M48
; DRILL file KiCad 10.0.3 date 2026-05-30T18:12:54
; FORMAT={-:-/ absolute / metric / decimal}
; #@! TF.CreationDate,2026-05-30T18:12:54-06:00
; #@! TF.GenerationSoftware,Kicad,Pcbnew,10.0.3
; #@! TF.FileFunction,Plated,1,2,PTH
FMAT,2
METRIC
; #@! TA.AperFunction,Plated,PTH,ComponentDrill
T1C0.800
; #@! TA.AperFunction,Plated,PTH,ComponentDrill
T2C0.900
; #@! TA.AperFunction,Plated,PTH,ComponentDrill
T3C1.000
; #@! TA.AperFunction,Plated,PTH,ComponentDrill
T4C1.750
%
G90
G05
T1
X147.26Y-97.5
X147.26Y-100.04
X147.26Y-102.58
X147.26Y-105.12
X147.26Y-107.66
X147.26Y-110.2
X147.26Y-112.74
X147.26Y-115.28
X147.26Y-117.82
X147.26Y-120.36
X147.26Y-122.9
X147.26Y-125.44
X149.0Y-135.0
X149.46Y-129.85
X149.46Y-132.39
X149.8Y-106.39
X149.8Y-108.93
X149.8Y-125.44
X149.84Y-97.0
X149.84Y-100.5
X149.84Y-104.0
X149.84Y-111.5
X149.84Y-114.5
X152.0Y-129.85
X152.0Y-132.39
X152.34Y-125.44
X153.5Y-108.0
X154.0Y-135.0
X154.54Y-129.85
X154.54Y-132.39
X154.88Y-125.44
X156.5Y-138.0
X156.5Y-148.16
X157.08Y-129.85
X157.08Y-132.39
X158.5Y-108.0
X160.0Y-97.0
X160.0Y-100.5
X160.0Y-104.0
X160.0Y-111.5
X160.0Y-114.5
X160.0Y-138.0
X160.0Y-148.16
X162.5Y-97.5
X162.5Y-100.04
X162.5Y-102.58
X162.5Y-105.12
X162.5Y-107.66
X162.5Y-110.2
X162.5Y-112.74
X162.5Y-115.28
X162.5Y-117.82
X162.5Y-120.36
X162.5Y-122.9
X162.5Y-125.44
T2
X150.0Y-138.46
X150.0Y-141.0
X150.0Y-144.96
X150.0Y-147.5
T3
X150.0Y-91.5
X152.54Y-91.5
X155.08Y-91.5
X157.62Y-91.5
X160.16Y-91.5
T4
X151.62Y-154.5
X155.5Y-154.5
M30
