%TF.GenerationSoftware,KiCad,Pcbnew,10.0.3*%
%TF.CreationDate,2026-05-30T18:12:54-06:00*%
%TF.ProjectId,Esk8_spring_26,45736b38-5f73-4707-9269-6e675f32362e,rev?*%
%TF.SameCoordinates,Original*%
%TF.FileFunction,Drillmap*%
%TF.FilePolarity,Positive*%
%FSLAX45Y45*%
G04 Gerber Fmt 4.5, Leading zero omitted, Abs format (unit mm)*
G04 Created by KiCad (PCBNEW 10.0.3) date 2026-05-30 18:12:54*
%MOMM*%
%LPD*%
G01*
G04 APERTURE LIST*
%ADD10C,0.050000*%
%ADD11C,0.200000*%
G04 APERTURE END LIST*
D10*
X14403502Y-8950000D02*
X16596498Y-8950000D01*
X16596498Y-15851921D01*
X14403502Y-15851921D01*
X14403502Y-8950000D01*
D11*
X14661779Y-16165905D02*
X14661779Y-15965905D01*
X14661779Y-15965905D02*
X14709398Y-15965905D01*
X14709398Y-15965905D02*
X14737969Y-15975429D01*
X14737969Y-15975429D02*
X14757017Y-15994477D01*
X14757017Y-15994477D02*
X14766541Y-16013524D01*
X14766541Y-16013524D02*
X14776065Y-16051619D01*
X14776065Y-16051619D02*
X14776065Y-16080191D01*
X14776065Y-16080191D02*
X14766541Y-16118286D01*
X14766541Y-16118286D02*
X14757017Y-16137334D01*
X14757017Y-16137334D02*
X14737969Y-16156381D01*
X14737969Y-16156381D02*
X14709398Y-16165905D01*
X14709398Y-16165905D02*
X14661779Y-16165905D01*
X14861779Y-16165905D02*
X14861779Y-16032572D01*
X14861779Y-16070667D02*
X14871303Y-16051619D01*
X14871303Y-16051619D02*
X14880827Y-16042096D01*
X14880827Y-16042096D02*
X14899874Y-16032572D01*
X14899874Y-16032572D02*
X14918922Y-16032572D01*
X14985588Y-16165905D02*
X14985588Y-16032572D01*
X14985588Y-15965905D02*
X14976065Y-15975429D01*
X14976065Y-15975429D02*
X14985588Y-15984953D01*
X14985588Y-15984953D02*
X14995112Y-15975429D01*
X14995112Y-15975429D02*
X14985588Y-15965905D01*
X14985588Y-15965905D02*
X14985588Y-15984953D01*
X15109398Y-16165905D02*
X15090350Y-16156381D01*
X15090350Y-16156381D02*
X15080827Y-16137334D01*
X15080827Y-16137334D02*
X15080827Y-15965905D01*
X15214160Y-16165905D02*
X15195112Y-16156381D01*
X15195112Y-16156381D02*
X15185588Y-16137334D01*
X15185588Y-16137334D02*
X15185588Y-15965905D01*
X15442731Y-16165905D02*
X15442731Y-15965905D01*
X15442731Y-15965905D02*
X15509398Y-16108762D01*
X15509398Y-16108762D02*
X15576065Y-15965905D01*
X15576065Y-15965905D02*
X15576065Y-16165905D01*
X15757017Y-16165905D02*
X15757017Y-16061143D01*
X15757017Y-16061143D02*
X15747493Y-16042096D01*
X15747493Y-16042096D02*
X15728446Y-16032572D01*
X15728446Y-16032572D02*
X15690350Y-16032572D01*
X15690350Y-16032572D02*
X15671303Y-16042096D01*
X15757017Y-16156381D02*
X15737969Y-16165905D01*
X15737969Y-16165905D02*
X15690350Y-16165905D01*
X15690350Y-16165905D02*
X15671303Y-16156381D01*
X15671303Y-16156381D02*
X15661779Y-16137334D01*
X15661779Y-16137334D02*
X15661779Y-16118286D01*
X15661779Y-16118286D02*
X15671303Y-16099239D01*
X15671303Y-16099239D02*
X15690350Y-16089715D01*
X15690350Y-16089715D02*
X15737969Y-16089715D01*
X15737969Y-16089715D02*
X15757017Y-16080191D01*
X15852255Y-16032572D02*
X15852255Y-16232572D01*
X15852255Y-16042096D02*
X15871303Y-16032572D01*
X15871303Y-16032572D02*
X15909398Y-16032572D01*
X15909398Y-16032572D02*
X15928446Y-16042096D01*
X15928446Y-16042096D02*
X15937969Y-16051619D01*
X15937969Y-16051619D02*
X15947493Y-16070667D01*
X15947493Y-16070667D02*
X15947493Y-16127810D01*
X15947493Y-16127810D02*
X15937969Y-16146858D01*
X15937969Y-16146858D02*
X15928446Y-16156381D01*
X15928446Y-16156381D02*
X15909398Y-16165905D01*
X15909398Y-16165905D02*
X15871303Y-16165905D01*
X15871303Y-16165905D02*
X15852255Y-16156381D01*
X16033208Y-16146858D02*
X16042731Y-16156381D01*
X16042731Y-16156381D02*
X16033208Y-16165905D01*
X16033208Y-16165905D02*
X16023684Y-16156381D01*
X16023684Y-16156381D02*
X16033208Y-16146858D01*
X16033208Y-16146858D02*
X16033208Y-16165905D01*
X16033208Y-16042096D02*
X16042731Y-16051619D01*
X16042731Y-16051619D02*
X16033208Y-16061143D01*
X16033208Y-16061143D02*
X16023684Y-16051619D01*
X16023684Y-16051619D02*
X16033208Y-16042096D01*
X16033208Y-16042096D02*
X16033208Y-16061143D01*
M02*
