  0
SECTION
  2
HEADER
  9
$ANGBASE
  50
0.0
  9
$ANGDIR
  70
1
  9
$MEASUREMENT
  70
1
  9
$INSUNITS
  70
4
  0
ENDSEC
  0
SECTION
  2
TABLES
  0
TABLE
  2
LTYPE
  70
4
  0
LTYPE
  5
40F
  2
CONTINUOUS
  70
0
  3
Solid line
  72
65
  73
0
  40
0.0
  0
LTYPE
  5
410
  2
DASHDOT
 70
0
  3
Dash Dot ____ _ ____ _
 72
65
 73
4
 40
2.0
 49
1.25
 49
-0.25
 49
0.25
 49
-0.25
  0
LTYPE
  5
411
  2
DASHED
 70
0
  3
Dashed __ __ __ __ __
 72
65
 73
2
 40
0.75
 49
0.5
 49
-0.25
  0
LTYPE
  5
43B
  2
DOTTED
 70
0
  3
Dotted .  .  .  .
 72
65
 73
2
 40
0.2
 49
0.0
 49
-0.2
  0
ENDTAB
  0
TABLE
  2
STYLE
  70
4
  0
STYLE
  2
KICAD
  70
0
  40
0
  41
1
  42
1
  50
0
  71
0
  3
isocp.shx
  0
STYLE
  2
KICADB
  70
0
  40
0
  41
1
  42
1
  50
0
  71
0
  3
isocp.shx
  0
STYLE
  2
KICADI
  70
0
  40
0
  41
1
  42
1
  50
15
  71
0
  3
isocp.shx
  0
STYLE
  2
KICADBI
  70
0
  40
0
  41
1
  42
1
  50
15
  71
0
  3
isocp.shx
  0
ENDTAB
  0
TABLE
  2
LAYER
  70
1
  0
LAYER
  2
BLACK
  70
0
  62
250
  6
CONTINUOUS
  0
ENDTAB
  0
ENDSEC
  0
SECTION
  2
ENTITIES
0
LINE
8
BLACK
6
CONTINUOUS
10
144.0350219999999979
20
-89.5
11
165.9649770000000046
21
-89.5
0
LINE
8
BLACK
6
CONTINUOUS
10
165.9649770000000046
20
-89.5
11
165.9649770000000046
21
-158.5192150000000026
0
LINE
8
BLACK
6
CONTINUOUS
10
165.9649770000000046
20
-158.5192150000000026
11
144.0350219999999979
21
-158.5192150000000026
0
LINE
8
BLACK
6
CONTINUOUS
10
144.0350219999999979
20
-158.5192150000000026
11
144.0350219999999979
21
-89.5
0
LINE
8
BLACK
6
CONTINUOUS
10
146.6177899999999852
20
-161.6590530000000001
11
146.6177899999999852
21
-159.6590530000000001
0
LINE
8
BLACK
6
CONTINUOUS
10
146.6177899999999852
20
-159.6590530000000001
11
147.0939799999999877
21
-159.6590530000000001
0
LINE
8
BLACK
6
CONTINUOUS
10
147.0939799999999877
20
-159.6590530000000001
11
147.3796949999999981
21
-159.7542909999999949
0
LINE
8
BLACK
6
CONTINUOUS
10
147.3796949999999981
20
-159.7542909999999949
11
147.5701709999999878
21
-159.9447669999999846
0
LINE
8
BLACK
6
CONTINUOUS
10
147.5701709999999878
20
-159.9447669999999846
11
147.6654089999999826
21
-160.1352430000000027
0
LINE
8
BLACK
6
CONTINUOUS
10
147.6654089999999826
20
-160.1352430000000027
11
147.7606470000000058
21
-160.516194999999982
0
LINE
8
BLACK
6
CONTINUOUS
10
147.7606470000000058
20
-160.516194999999982
11
147.7606470000000058
21
-160.8019099999999924
0
LINE
8
BLACK
6
CONTINUOUS
10
147.7606470000000058
20
-160.8019099999999924
11
147.6654089999999826
21
-161.1828620000000001
0
LINE
8
BLACK
6
CONTINUOUS
10
147.6654089999999826
20
-161.1828620000000001
11
147.5701709999999878
21
-161.3733379999999897
0
LINE
8
BLACK
6
CONTINUOUS
10
147.5701709999999878
20
-161.3733379999999897
11
147.3796949999999981
21
-161.5638150000000053
0
LINE
8
BLACK
6
CONTINUOUS
10
147.3796949999999981
20
-161.5638150000000053
11
147.0939799999999877
21
-161.6590530000000001
0
LINE
8
BLACK
6
CONTINUOUS
10
147.0939799999999877
20
-161.6590530000000001
11
146.6177899999999852
21
-161.6590530000000001
0
LINE
8
BLACK
6
CONTINUOUS
10
148.6177899999999852
20
-161.6590530000000001
11
148.6177899999999852
21
-160.3257189999999923
0
LINE
8
BLACK
6
CONTINUOUS
10
148.6177899999999852
20
-160.7066719999999975
11
148.71302799999998
21
-160.516194999999982
0
LINE
8
BLACK
6
CONTINUOUS
10
148.71302799999998
20
-160.516194999999982
11
148.8082660000000033
21
-160.4209569999999871
0
LINE
8
BLACK
6
CONTINUOUS
10
148.8082660000000033
20
-160.4209569999999871
11
148.9987419999999929
21
-160.3257189999999923
0
LINE
8
BLACK
6
CONTINUOUS
10
148.9987419999999929
20
-160.3257189999999923
11
149.18921899999998
21
-160.3257189999999923
0
LINE
8
BLACK
6
CONTINUOUS
10
149.8558850000000007
20
-161.6590530000000001
11
149.8558850000000007
21
-160.3257189999999923
0
LINE
8
BLACK
6
CONTINUOUS
10
149.8558850000000007
20
-159.6590530000000001
11
149.7606470000000058
21
-159.7542909999999949
0
LINE
8
BLACK
6
CONTINUOUS
10
149.7606470000000058
20
-159.7542909999999949
11
149.8558850000000007
21
-159.8495289999999898
0
LINE
8
BLACK
6
CONTINUOUS
10
149.8558850000000007
20
-159.8495289999999898
11
149.9511229999999955
21
-159.7542909999999949
0
LINE
8
BLACK
6
CONTINUOUS
10
149.9511229999999955
20
-159.7542909999999949
11
149.8558850000000007
21
-159.6590530000000001
0
LINE
8
BLACK
6
CONTINUOUS
10
149.8558850000000007
20
-159.6590530000000001
11
149.8558850000000007
21
-159.8495289999999898
0
LINE
8
BLACK
6
CONTINUOUS
10
151.0939799999999877
20
-161.6590530000000001
11
150.9035039999999981
21
-161.5638150000000053
0
LINE
8
BLACK
6
CONTINUOUS
10
150.9035039999999981
20
-161.5638150000000053
11
150.8082660000000033
21
-161.3733379999999897
0
LINE
8
BLACK
6
CONTINUOUS
10
150.8082660000000033
20
-161.3733379999999897
11
150.8082660000000033
21
-159.6590530000000001
0
LINE
8
BLACK
6
CONTINUOUS
10
152.1415989999999852
20
-161.6590530000000001
11
151.9511229999999955
21
-161.5638150000000053
0
LINE
8
BLACK
6
CONTINUOUS
10
151.9511229999999955
20
-161.5638150000000053
11
151.8558850000000007
21
-161.3733379999999897
0
LINE
8
BLACK
6
CONTINUOUS
10
151.8558850000000007
20
-161.3733379999999897
11
151.8558850000000007
21
-159.6590530000000001
0
LINE
8
BLACK
6
CONTINUOUS
10
154.4273139999999955
20
-161.6590530000000001
11
154.4273139999999955
21
-159.6590530000000001
0
LINE
8
BLACK
6
CONTINUOUS
10
154.4273139999999955
20
-159.6590530000000001
11
155.0939809999999852
21
-161.0876240000000053
0
LINE
8
BLACK
6
CONTINUOUS
10
155.0939809999999852
20
-161.0876240000000053
11
155.7606470000000058
21
-159.6590530000000001
0
LINE
8
BLACK
6
CONTINUOUS
10
155.7606470000000058
20
-159.6590530000000001
11
155.7606470000000058
21
-161.6590530000000001
0
LINE
8
BLACK
6
CONTINUOUS
10
157.5701709999999878
20
-161.6590530000000001
11
157.5701709999999878
21
-160.6114340000000027
0
LINE
8
BLACK
6
CONTINUOUS
10
157.5701709999999878
20
-160.6114340000000027
11
157.4749329999999929
21
-160.4209569999999871
0
LINE
8
BLACK
6
CONTINUOUS
10
157.4749329999999929
20
-160.4209569999999871
11
157.2844570000000033
21
-160.3257189999999923
0
LINE
8
BLACK
6
CONTINUOUS
10
157.2844570000000033
20
-160.3257189999999923
11
156.9035039999999981
21
-160.3257189999999923
0
LINE
8
BLACK
6
CONTINUOUS
10
156.9035039999999981
20
-160.3257189999999923
11
156.71302799999998
21
-160.4209569999999871
0
LINE
8
BLACK
6
CONTINUOUS
10
157.5701709999999878
20
-161.5638150000000053
11
157.3796949999999981
21
-161.6590530000000001
0
LINE
8
BLACK
6
CONTINUOUS
10
157.3796949999999981
20
-161.6590530000000001
11
156.9035039999999981
21
-161.6590530000000001
0
LINE
8
BLACK
6
CONTINUOUS
10
156.9035039999999981
20
-161.6590530000000001
11
156.71302799999998
21
-161.5638150000000053
0
LINE
8
BLACK
6
CONTINUOUS
10
156.71302799999998
20
-161.5638150000000053
11
156.6177899999999852
21
-161.3733379999999897
0
LINE
8
BLACK
6
CONTINUOUS
10
156.6177899999999852
20
-161.3733379999999897
11
156.6177899999999852
21
-161.1828620000000001
0
LINE
8
BLACK
6
CONTINUOUS
10
156.6177899999999852
20
-161.1828620000000001
11
156.71302799999998
21
-160.992385999999982
0
LINE
8
BLACK
6
CONTINUOUS
10
156.71302799999998
20
-160.992385999999982
11
156.9035039999999981
21
-160.8971479999999872
0
LINE
8
BLACK
6
CONTINUOUS
10
156.9035039999999981
20
-160.8971479999999872
11
157.3796949999999981
21
-160.8971479999999872
0
LINE
8
BLACK
6
CONTINUOUS
10
157.3796949999999981
20
-160.8971479999999872
11
157.5701709999999878
21
-160.8019099999999924
0
LINE
8
BLACK
6
CONTINUOUS
10
158.5225519999999904
20
-160.3257189999999923
11
158.5225519999999904
21
-162.3257189999999923
0
LINE
8
BLACK
6
CONTINUOUS
10
158.5225519999999904
20
-160.4209569999999871
11
158.71302799999998
21
-160.3257189999999923
0
LINE
8
BLACK
6
CONTINUOUS
10
158.71302799999998
20
-160.3257189999999923
11
159.0939809999999852
21
-160.3257189999999923
0
LINE
8
BLACK
6
CONTINUOUS
10
159.0939809999999852
20
-160.3257189999999923
11
159.2844570000000033
21
-160.4209569999999871
0
LINE
8
BLACK
6
CONTINUOUS
10
159.2844570000000033
20
-160.4209569999999871
11
159.3796949999999981
21
-160.516194999999982
0
LINE
8
BLACK
6
CONTINUOUS
10
159.3796949999999981
20
-160.516194999999982
11
159.4749329999999929
21
-160.7066719999999975
0
LINE
8
BLACK
6
CONTINUOUS
10
159.4749329999999929
20
-160.7066719999999975
11
159.4749329999999929
21
-161.2780999999999949
0
LINE
8
BLACK
6
CONTINUOUS
10
159.4749329999999929
20
-161.2780999999999949
11
159.3796949999999981
21
-161.4685759999999846
0
LINE
8
BLACK
6
CONTINUOUS
10
159.3796949999999981
20
-161.4685759999999846
11
159.2844570000000033
21
-161.5638150000000053
0
LINE
8
BLACK
6
CONTINUOUS
10
159.2844570000000033
20
-161.5638150000000053
11
159.0939809999999852
21
-161.6590530000000001
0
LINE
8
BLACK
6
CONTINUOUS
10
159.0939809999999852
20
-161.6590530000000001
11
158.71302799999998
21
-161.6590530000000001
0
LINE
8
BLACK
6
CONTINUOUS
10
158.71302799999998
20
-161.6590530000000001
11
158.5225519999999904
21
-161.5638150000000053
0
LINE
8
BLACK
6
CONTINUOUS
10
160.3320760000000007
20
-161.4685759999999846
11
160.4273139999999955
21
-161.5638150000000053
0
LINE
8
BLACK
6
CONTINUOUS
10
160.4273139999999955
20
-161.5638150000000053
11
160.3320760000000007
21
-161.6590530000000001
0
LINE
8
BLACK
6
CONTINUOUS
10
160.3320760000000007
20
-161.6590530000000001
11
160.2368380000000059
21
-161.5638150000000053
0
LINE
8
BLACK
6
CONTINUOUS
10
160.2368380000000059
20
-161.5638150000000053
11
160.3320760000000007
21
-161.4685759999999846
0
LINE
8
BLACK
6
CONTINUOUS
10
160.3320760000000007
20
-161.4685759999999846
11
160.3320760000000007
21
-161.6590530000000001
0
LINE
8
BLACK
6
CONTINUOUS
10
160.3320760000000007
20
-160.4209569999999871
11
160.4273139999999955
21
-160.516194999999982
0
LINE
8
BLACK
6
CONTINUOUS
10
160.4273139999999955
20
-160.516194999999982
11
160.3320760000000007
21
-160.6114340000000027
0
LINE
8
BLACK
6
CONTINUOUS
10
160.3320760000000007
20
-160.6114340000000027
11
160.2368380000000059
21
-160.516194999999982
0
LINE
8
BLACK
6
CONTINUOUS
10
160.2368380000000059
20
-160.516194999999982
11
160.3320760000000007
21
-160.4209569999999871
0
LINE
8
BLACK
6
CONTINUOUS
10
160.3320760000000007
20
-160.4209569999999871
11
160.3320760000000007
21
-160.6114340000000027
  0
ENDSEC
  0
EOF
