  0
SECTION
  2
HEADER
  9
$ANGBASE
  50
0.0
  9
$ANGDIR
  70
1
  9
$MEASUREMENT
  70
1
  9
$INSUNITS
  70
4
  0
ENDSEC
  0
SECTION
  2
TABLES
  0
TABLE
  2
LTYPE
  70
4
  0
LTYPE
  5
40F
  2
CONTINUOUS
  70
0
  3
Solid line
  72
65
  73
0
  40
0.0
  0
LTYPE
  5
410
  2
DASHDOT
 70
0
  3
Dash Dot ____ _ ____ _
 72
65
 73
4
 40
2.0
 49
1.25
 49
-0.25
 49
0.25
 49
-0.25
  0
LTYPE
  5
411
  2
DASHED
 70
0
  3
Dashed __ __ __ __ __
 72
65
 73
2
 40
0.75
 49
0.5
 49
-0.25
  0
LTYPE
  5
43B
  2
DOTTED
 70
0
  3
Dotted .  .  .  .
 72
65
 73
2
 40
0.2
 49
0.0
 49
-0.2
  0
ENDTAB
  0
TABLE
  2
STYLE
  70
4
  0
STYLE
  2
KICAD
  70
0
  40
0
  41
1
  42
1
  50
0
  71
0
  3
isocp.shx
  0
STYLE
  2
KICADB
  70
0
  40
0
  41
1
  42
1
  50
0
  71
0
  3
isocp.shx
  0
STYLE
  2
KICADI
  70
0
  40
0
  41
1
  42
1
  50
15
  71
0
  3
isocp.shx
  0
STYLE
  2
KICADBI
  70
0
  40
0
  41
1
  42
1
  50
15
  71
0
  3
isocp.shx
  0
ENDTAB
  0
TABLE
  2
LAYER
  70
1
  0
LAYER
  2
BLACK
  70
0
  62
250
  6
CONTINUOUS
  0
ENDTAB
  0
ENDSEC
  0
SECTION
  2
ENTITIES
0
LINE
8
BLACK
6
CONTINUOUS
10
144.0350219999999979
20
-89.5
11
165.9649770000000046
21
-89.5
0
LINE
8
BLACK
6
CONTINUOUS
10
165.9649770000000046
20
-89.5
11
165.9649770000000046
21
-158.5192150000000026
0
LINE
8
BLACK
6
CONTINUOUS
10
165.9649770000000046
20
-158.5192150000000026
11
144.0350219999999979
21
-158.5192150000000026
0
LINE
8
BLACK
6
CONTINUOUS
10
144.0350219999999979
20
-158.5192150000000026
11
144.0350219999999979
21
-89.5
0
LINE
8
BLACK
6
CONTINUOUS
10
146.8599999999999852
20
-97.0999999999999943
11
147.6599999999999966
21
-97.8999999999999915
0
LINE
8
BLACK
6
CONTINUOUS
10
147.6599999999999966
20
-97.0999999999999943
11
146.8599999999999852
21
-97.8999999999999915
0
LINE
8
BLACK
6
CONTINUOUS
10
146.8599999999999852
20
-99.6400000000000006
11
147.6599999999999966
21
-100.4399999999999977
0
LINE
8
BLACK
6
CONTINUOUS
10
147.6599999999999966
20
-99.6400000000000006
11
146.8599999999999852
21
-100.4399999999999977
0
LINE
8
BLACK
6
CONTINUOUS
10
146.8599999999999852
20
-102.1799999999999926
11
147.6599999999999966
21
-102.9799999999999898
0
LINE
8
BLACK
6
CONTINUOUS
10
147.6599999999999966
20
-102.1799999999999926
11
146.8599999999999852
21
-102.9799999999999898
0
LINE
8
BLACK
6
CONTINUOUS
10
146.8599999999999852
20
-104.7199999999999989
11
147.6599999999999966
21
-105.519999999999996
0
LINE
8
BLACK
6
CONTINUOUS
10
147.6599999999999966
20
-104.7199999999999989
11
146.8599999999999852
21
-105.519999999999996
0
LINE
8
BLACK
6
CONTINUOUS
10
146.8599999999999852
20
-107.2599999999999909
11
147.6599999999999966
21
-108.0599999999999881
0
LINE
8
BLACK
6
CONTINUOUS
10
147.6599999999999966
20
-107.2599999999999909
11
146.8599999999999852
21
-108.0599999999999881
0
LINE
8
BLACK
6
CONTINUOUS
10
146.8599999999999852
20
-109.7999999999999972
11
147.6599999999999966
21
-110.5999999999999943
0
LINE
8
BLACK
6
CONTINUOUS
10
147.6599999999999966
20
-109.7999999999999972
11
146.8599999999999852
21
-110.5999999999999943
0
LINE
8
BLACK
6
CONTINUOUS
10
146.8599999999999852
20
-112.3399999999999892
11
147.6599999999999966
21
-113.1400000000000006
0
LINE
8
BLACK
6
CONTINUOUS
10
147.6599999999999966
20
-112.3399999999999892
11
146.8599999999999852
21
-113.1400000000000006
0
LINE
8
BLACK
6
CONTINUOUS
10
146.8599999999999852
20
-114.8799999999999955
11
147.6599999999999966
21
-115.6799999999999926
0
LINE
8
BLACK
6
CONTINUOUS
10
147.6599999999999966
20
-114.8799999999999955
11
146.8599999999999852
21
-115.6799999999999926
0
LINE
8
BLACK
6
CONTINUOUS
10
146.8599999999999852
20
-117.4200000000000017
11
147.6599999999999966
21
-118.2199999999999989
0
LINE
8
BLACK
6
CONTINUOUS
10
147.6599999999999966
20
-117.4200000000000017
11
146.8599999999999852
21
-118.2199999999999989
0
LINE
8
BLACK
6
CONTINUOUS
10
146.8599999999999852
20
-119.9599999999999937
11
147.6599999999999966
21
-120.7599999999999909
0
LINE
8
BLACK
6
CONTINUOUS
10
147.6599999999999966
20
-119.9599999999999937
11
146.8599999999999852
21
-120.7599999999999909
0
LINE
8
BLACK
6
CONTINUOUS
10
146.8599999999999852
20
-122.5
11
147.6599999999999966
21
-123.2999999999999972
0
LINE
8
BLACK
6
CONTINUOUS
10
147.6599999999999966
20
-122.5
11
146.8599999999999852
21
-123.2999999999999972
0
LINE
8
BLACK
6
CONTINUOUS
10
146.8599999999999852
20
-125.039999999999992
11
147.6599999999999966
21
-125.8399999999999892
0
LINE
8
BLACK
6
CONTINUOUS
10
147.6599999999999966
20
-125.039999999999992
11
146.8599999999999852
21
-125.8399999999999892
0
LINE
8
BLACK
6
CONTINUOUS
10
148.5999999999999943
20
-134.5999999999999943
11
149.4000000000000057
21
-135.4000000000000057
0
LINE
8
BLACK
6
CONTINUOUS
10
149.4000000000000057
20
-134.5999999999999943
11
148.5999999999999943
21
-135.4000000000000057
0
LINE
8
BLACK
6
CONTINUOUS
10
149.0600000000000023
20
-129.4499999999999886
11
149.8599999999999852
21
-130.25
0
LINE
8
BLACK
6
CONTINUOUS
10
149.8599999999999852
20
-129.4499999999999886
11
149.0600000000000023
21
-130.25
0
LINE
8
BLACK
6
CONTINUOUS
10
149.0600000000000023
20
-131.9899999999999807
11
149.8599999999999852
21
-132.789999999999992
0
LINE
8
BLACK
6
CONTINUOUS
10
149.8599999999999852
20
-131.9899999999999807
11
149.0600000000000023
21
-132.789999999999992
0
LINE
8
BLACK
6
CONTINUOUS
10
149.4000000000000057
20
-105.9899999999999949
11
150.1999999999999886
21
-106.789999999999992
0
LINE
8
BLACK
6
CONTINUOUS
10
150.1999999999999886
20
-105.9899999999999949
11
149.4000000000000057
21
-106.789999999999992
0
LINE
8
BLACK
6
CONTINUOUS
10
149.4000000000000057
20
-108.5300000000000011
11
150.1999999999999886
21
-109.3299999999999983
0
LINE
8
BLACK
6
CONTINUOUS
10
150.1999999999999886
20
-108.5300000000000011
11
149.4000000000000057
21
-109.3299999999999983
0
LINE
8
BLACK
6
CONTINUOUS
10
149.4000000000000057
20
-125.039999999999992
11
150.1999999999999886
21
-125.8399999999999892
0
LINE
8
BLACK
6
CONTINUOUS
10
150.1999999999999886
20
-125.039999999999992
11
149.4000000000000057
21
-125.8399999999999892
0
LINE
8
BLACK
6
CONTINUOUS
10
149.4399999999999977
20
-96.5999999999999943
11
150.2399999999999807
21
-97.3999999999999915
0
LINE
8
BLACK
6
CONTINUOUS
10
150.2399999999999807
20
-96.5999999999999943
11
149.4399999999999977
21
-97.3999999999999915
0
LINE
8
BLACK
6
CONTINUOUS
10
149.4399999999999977
20
-100.0999999999999943
11
150.2399999999999807
21
-100.8999999999999915
0
LINE
8
BLACK
6
CONTINUOUS
10
150.2399999999999807
20
-100.0999999999999943
11
149.4399999999999977
21
-100.8999999999999915
0
LINE
8
BLACK
6
CONTINUOUS
10
149.4399999999999977
20
-103.5999999999999943
11
150.2399999999999807
21
-104.3999999999999915
0
LINE
8
BLACK
6
CONTINUOUS
10
150.2399999999999807
20
-103.5999999999999943
11
149.4399999999999977
21
-104.3999999999999915
0
LINE
8
BLACK
6
CONTINUOUS
10
149.4399999999999977
20
-111.0999999999999943
11
150.2399999999999807
21
-111.8999999999999915
0
LINE
8
BLACK
6
CONTINUOUS
10
150.2399999999999807
20
-111.0999999999999943
11
149.4399999999999977
21
-111.8999999999999915
0
LINE
8
BLACK
6
CONTINUOUS
10
149.4399999999999977
20
-114.0999999999999943
11
150.2399999999999807
21
-114.8999999999999915
0
LINE
8
BLACK
6
CONTINUOUS
10
150.2399999999999807
20
-114.0999999999999943
11
149.4399999999999977
21
-114.8999999999999915
0
LINE
8
BLACK
6
CONTINUOUS
10
151.5999999999999943
20
-129.4499999999999886
11
152.4000000000000057
21
-130.25
0
LINE
8
BLACK
6
CONTINUOUS
10
152.4000000000000057
20
-129.4499999999999886
11
151.5999999999999943
21
-130.25
0
LINE
8
BLACK
6
CONTINUOUS
10
151.5999999999999943
20
-131.9899999999999807
11
152.4000000000000057
21
-132.789999999999992
0
LINE
8
BLACK
6
CONTINUOUS
10
152.4000000000000057
20
-131.9899999999999807
11
151.5999999999999943
21
-132.789999999999992
0
LINE
8
BLACK
6
CONTINUOUS
10
151.9399999999999977
20
-125.039999999999992
11
152.7399999999999807
21
-125.8399999999999892
0
LINE
8
BLACK
6
CONTINUOUS
10
152.7399999999999807
20
-125.039999999999992
11
151.9399999999999977
21
-125.8399999999999892
0
LINE
8
BLACK
6
CONTINUOUS
10
153.0999999999999943
20
-107.5999999999999943
11
153.9000000000000057
21
-108.3999999999999915
0
LINE
8
BLACK
6
CONTINUOUS
10
153.9000000000000057
20
-107.5999999999999943
11
153.0999999999999943
21
-108.3999999999999915
0
LINE
8
BLACK
6
CONTINUOUS
10
153.5999999999999943
20
-134.5999999999999943
11
154.4000000000000057
21
-135.4000000000000057
0
LINE
8
BLACK
6
CONTINUOUS
10
154.4000000000000057
20
-134.5999999999999943
11
153.5999999999999943
21
-135.4000000000000057
0
LINE
8
BLACK
6
CONTINUOUS
10
154.1399999999999864
20
-129.4499999999999886
11
154.9399999999999977
21
-130.25
0
LINE
8
BLACK
6
CONTINUOUS
10
154.9399999999999977
20
-129.4499999999999886
11
154.1399999999999864
21
-130.25
0
LINE
8
BLACK
6
CONTINUOUS
10
154.1399999999999864
20
-131.9899999999999807
11
154.9399999999999977
21
-132.789999999999992
0
LINE
8
BLACK
6
CONTINUOUS
10
154.9399999999999977
20
-131.9899999999999807
11
154.1399999999999864
21
-132.789999999999992
0
LINE
8
BLACK
6
CONTINUOUS
10
154.4799999999999898
20
-125.039999999999992
11
155.2800000000000011
21
-125.8399999999999892
0
LINE
8
BLACK
6
CONTINUOUS
10
155.2800000000000011
20
-125.039999999999992
11
154.4799999999999898
21
-125.8399999999999892
0
LINE
8
BLACK
6
CONTINUOUS
10
156.0999999999999943
20
-137.5999999999999943
11
156.9000000000000057
21
-138.4000000000000057
0
LINE
8
BLACK
6
CONTINUOUS
10
156.9000000000000057
20
-137.5999999999999943
11
156.0999999999999943
21
-138.4000000000000057
0
LINE
8
BLACK
6
CONTINUOUS
10
156.0999999999999943
20
-147.7599999999999909
11
156.9000000000000057
21
-148.5600000000000023
0
LINE
8
BLACK
6
CONTINUOUS
10
156.9000000000000057
20
-147.7599999999999909
11
156.0999999999999943
21
-148.5600000000000023
0
LINE
8
BLACK
6
CONTINUOUS
10
156.6800000000000068
20
-129.4499999999999886
11
157.4799999999999898
21
-130.25
0
LINE
8
BLACK
6
CONTINUOUS
10
157.4799999999999898
20
-129.4499999999999886
11
156.6800000000000068
21
-130.25
0
LINE
8
BLACK
6
CONTINUOUS
10
156.6800000000000068
20
-131.9899999999999807
11
157.4799999999999898
21
-132.789999999999992
0
LINE
8
BLACK
6
CONTINUOUS
10
157.4799999999999898
20
-131.9899999999999807
11
156.6800000000000068
21
-132.789999999999992
0
LINE
8
BLACK
6
CONTINUOUS
10
158.0999999999999943
20
-107.5999999999999943
11
158.9000000000000057
21
-108.3999999999999915
0
LINE
8
BLACK
6
CONTINUOUS
10
158.9000000000000057
20
-107.5999999999999943
11
158.0999999999999943
21
-108.3999999999999915
0
LINE
8
BLACK
6
CONTINUOUS
10
159.5999999999999943
20
-96.5999999999999943
11
160.4000000000000057
21
-97.3999999999999915
0
LINE
8
BLACK
6
CONTINUOUS
10
160.4000000000000057
20
-96.5999999999999943
11
159.5999999999999943
21
-97.3999999999999915
0
LINE
8
BLACK
6
CONTINUOUS
10
159.5999999999999943
20
-100.0999999999999943
11
160.4000000000000057
21
-100.8999999999999915
0
LINE
8
BLACK
6
CONTINUOUS
10
160.4000000000000057
20
-100.0999999999999943
11
159.5999999999999943
21
-100.8999999999999915
0
LINE
8
BLACK
6
CONTINUOUS
10
159.5999999999999943
20
-103.5999999999999943
11
160.4000000000000057
21
-104.3999999999999915
0
LINE
8
BLACK
6
CONTINUOUS
10
160.4000000000000057
20
-103.5999999999999943
11
159.5999999999999943
21
-104.3999999999999915
0
LINE
8
BLACK
6
CONTINUOUS
10
159.5999999999999943
20
-111.0999999999999943
11
160.4000000000000057
21
-111.8999999999999915
0
LINE
8
BLACK
6
CONTINUOUS
10
160.4000000000000057
20
-111.0999999999999943
11
159.5999999999999943
21
-111.8999999999999915
0
LINE
8
BLACK
6
CONTINUOUS
10
159.5999999999999943
20
-114.0999999999999943
11
160.4000000000000057
21
-114.8999999999999915
0
LINE
8
BLACK
6
CONTINUOUS
10
160.4000000000000057
20
-114.0999999999999943
11
159.5999999999999943
21
-114.8999999999999915
0
LINE
8
BLACK
6
CONTINUOUS
10
159.5999999999999943
20
-137.5999999999999943
11
160.4000000000000057
21
-138.4000000000000057
0
LINE
8
BLACK
6
CONTINUOUS
10
160.4000000000000057
20
-137.5999999999999943
11
159.5999999999999943
21
-138.4000000000000057
0
LINE
8
BLACK
6
CONTINUOUS
10
159.5999999999999943
20
-147.7599999999999909
11
160.4000000000000057
21
-148.5600000000000023
0
LINE
8
BLACK
6
CONTINUOUS
10
160.4000000000000057
20
-147.7599999999999909
11
159.5999999999999943
21
-148.5600000000000023
0
LINE
8
BLACK
6
CONTINUOUS
10
162.0999999999999943
20
-97.0999999999999943
11
162.9000000000000057
21
-97.8999999999999915
0
LINE
8
BLACK
6
CONTINUOUS
10
162.9000000000000057
20
-97.0999999999999943
11
162.0999999999999943
21
-97.8999999999999915
0
LINE
8
BLACK
6
CONTINUOUS
10
162.0999999999999943
20
-99.6400000000000006
11
162.9000000000000057
21
-100.4399999999999977
0
LINE
8
BLACK
6
CONTINUOUS
10
162.9000000000000057
20
-99.6400000000000006
11
162.0999999999999943
21
-100.4399999999999977
0
LINE
8
BLACK
6
CONTINUOUS
10
162.0999999999999943
20
-102.1799999999999926
11
162.9000000000000057
21
-102.9799999999999898
0
LINE
8
BLACK
6
CONTINUOUS
10
162.9000000000000057
20
-102.1799999999999926
11
162.0999999999999943
21
-102.9799999999999898
0
LINE
8
BLACK
6
CONTINUOUS
10
162.0999999999999943
20
-104.7199999999999989
11
162.9000000000000057
21
-105.519999999999996
0
LINE
8
BLACK
6
CONTINUOUS
10
162.9000000000000057
20
-104.7199999999999989
11
162.0999999999999943
21
-105.519999999999996
0
LINE
8
BLACK
6
CONTINUOUS
10
162.0999999999999943
20
-107.2599999999999909
11
162.9000000000000057
21
-108.0599999999999881
0
LINE
8
BLACK
6
CONTINUOUS
10
162.9000000000000057
20
-107.2599999999999909
11
162.0999999999999943
21
-108.0599999999999881
0
LINE
8
BLACK
6
CONTINUOUS
10
162.0999999999999943
20
-109.7999999999999972
11
162.9000000000000057
21
-110.5999999999999943
0
LINE
8
BLACK
6
CONTINUOUS
10
162.9000000000000057
20
-109.7999999999999972
11
162.0999999999999943
21
-110.5999999999999943
0
LINE
8
BLACK
6
CONTINUOUS
10
162.0999999999999943
20
-112.3399999999999892
11
162.9000000000000057
21
-113.1400000000000006
0
LINE
8
BLACK
6
CONTINUOUS
10
162.9000000000000057
20
-112.3399999999999892
11
162.0999999999999943
21
-113.1400000000000006
0
LINE
8
BLACK
6
CONTINUOUS
10
162.0999999999999943
20
-114.8799999999999955
11
162.9000000000000057
21
-115.6799999999999926
0
LINE
8
BLACK
6
CONTINUOUS
10
162.9000000000000057
20
-114.8799999999999955
11
162.0999999999999943
21
-115.6799999999999926
0
LINE
8
BLACK
6
CONTINUOUS
10
162.0999999999999943
20
-117.4200000000000017
11
162.9000000000000057
21
-118.2199999999999989
0
LINE
8
BLACK
6
CONTINUOUS
10
162.9000000000000057
20
-117.4200000000000017
11
162.0999999999999943
21
-118.2199999999999989
0
LINE
8
BLACK
6
CONTINUOUS
10
162.0999999999999943
20
-119.9599999999999937
11
162.9000000000000057
21
-120.7599999999999909
0
LINE
8
BLACK
6
CONTINUOUS
10
162.9000000000000057
20
-119.9599999999999937
11
162.0999999999999943
21
-120.7599999999999909
0
LINE
8
BLACK
6
CONTINUOUS
10
162.0999999999999943
20
-122.5
11
162.9000000000000057
21
-123.2999999999999972
0
LINE
8
BLACK
6
CONTINUOUS
10
162.9000000000000057
20
-122.5
11
162.0999999999999943
21
-123.2999999999999972
0
LINE
8
BLACK
6
CONTINUOUS
10
162.0999999999999943
20
-125.039999999999992
11
162.9000000000000057
21
-125.8399999999999892
0
LINE
8
BLACK
6
CONTINUOUS
10
162.9000000000000057
20
-125.039999999999992
11
162.0999999999999943
21
-125.8399999999999892
0
CIRCLE
8
BLACK
10
150.
20
-138.4599999999999795
40
0.45
0
CIRCLE
8
BLACK
10
150.
20
-141.
40
0.45
0
CIRCLE
8
BLACK
10
150.
20
-144.9599999999999795
40
0.45
0
CIRCLE
8
BLACK
10
150.
20
-147.5
40
0.45
0
LINE
8
BLACK
6
CONTINUOUS
10
150.
20
-91.
11
150.
21
-92.
0
LINE
8
BLACK
6
CONTINUOUS
10
149.5
20
-91.5
11
150.5
21
-91.5
0
LINE
8
BLACK
6
CONTINUOUS
10
152.539999999999992
20
-91.
11
152.539999999999992
21
-92.
0
LINE
8
BLACK
6
CONTINUOUS
10
152.039999999999992
20
-91.5
11
153.039999999999992
21
-91.5
0
LINE
8
BLACK
6
CONTINUOUS
10
155.0799999999999841
20
-91.
11
155.0799999999999841
21
-92.
0
LINE
8
BLACK
6
CONTINUOUS
10
154.5799999999999841
20
-91.5
11
155.5799999999999841
21
-91.5
0
LINE
8
BLACK
6
CONTINUOUS
10
157.6200000000000045
20
-91.
11
157.6200000000000045
21
-92.
0
LINE
8
BLACK
6
CONTINUOUS
10
157.1200000000000045
20
-91.5
11
158.1200000000000045
21
-91.5
0
LINE
8
BLACK
6
CONTINUOUS
10
160.1599999999999966
20
-91.
11
160.1599999999999966
21
-92.
0
LINE
8
BLACK
6
CONTINUOUS
10
159.6599999999999966
20
-91.5
11
160.6599999999999966
21
-91.5
0
LINE
8
BLACK
6
CONTINUOUS
10
152.2387239999999906
20
-155.1187239999999861
11
152.2387239999999906
21
-153.8812759999999855
0
LINE
8
BLACK
6
CONTINUOUS
10
152.2387239999999906
20
-153.8812759999999855
11
151.0012759999999901
21
-153.8812759999999855
0
LINE
8
BLACK
6
CONTINUOUS
10
151.0012759999999901
20
-153.8812759999999855
11
151.0012759999999901
21
-155.1187239999999861
0
LINE
8
BLACK
6
CONTINUOUS
10
151.0012759999999901
20
-155.1187239999999861
11
152.2387239999999906
21
-155.1187239999999861
0
LINE
8
BLACK
6
CONTINUOUS
10
156.1187239999999861
20
-155.1187239999999861
11
156.1187239999999861
21
-153.8812759999999855
0
LINE
8
BLACK
6
CONTINUOUS
10
156.1187239999999861
20
-153.8812759999999855
11
154.8812759999999855
21
-153.8812759999999855
0
LINE
8
BLACK
6
CONTINUOUS
10
154.8812759999999855
20
-153.8812759999999855
11
154.8812759999999855
21
-155.1187239999999861
0
LINE
8
BLACK
6
CONTINUOUS
10
154.8812759999999855
20
-155.1187239999999861
11
156.1187239999999861
21
-155.1187239999999861
0
LINE
8
BLACK
6
CONTINUOUS
10
146.6177899999999852
20
-161.6590530000000001
11
146.6177899999999852
21
-159.6590530000000001
0
LINE
8
BLACK
6
CONTINUOUS
10
146.6177899999999852
20
-159.6590530000000001
11
147.0939799999999877
21
-159.6590530000000001
0
LINE
8
BLACK
6
CONTINUOUS
10
147.0939799999999877
20
-159.6590530000000001
11
147.3796949999999981
21
-159.7542909999999949
0
LINE
8
BLACK
6
CONTINUOUS
10
147.3796949999999981
20
-159.7542909999999949
11
147.5701709999999878
21
-159.9447669999999846
0
LINE
8
BLACK
6
CONTINUOUS
10
147.5701709999999878
20
-159.9447669999999846
11
147.6654089999999826
21
-160.1352430000000027
0
LINE
8
BLACK
6
CONTINUOUS
10
147.6654089999999826
20
-160.1352430000000027
11
147.7606470000000058
21
-160.516194999999982
0
LINE
8
BLACK
6
CONTINUOUS
10
147.7606470000000058
20
-160.516194999999982
11
147.7606470000000058
21
-160.8019099999999924
0
LINE
8
BLACK
6
CONTINUOUS
10
147.7606470000000058
20
-160.8019099999999924
11
147.6654089999999826
21
-161.1828620000000001
0
LINE
8
BLACK
6
CONTINUOUS
10
147.6654089999999826
20
-161.1828620000000001
11
147.5701709999999878
21
-161.3733379999999897
0
LINE
8
BLACK
6
CONTINUOUS
10
147.5701709999999878
20
-161.3733379999999897
11
147.3796949999999981
21
-161.5638150000000053
0
LINE
8
BLACK
6
CONTINUOUS
10
147.3796949999999981
20
-161.5638150000000053
11
147.0939799999999877
21
-161.6590530000000001
0
LINE
8
BLACK
6
CONTINUOUS
10
147.0939799999999877
20
-161.6590530000000001
11
146.6177899999999852
21
-161.6590530000000001
0
LINE
8
BLACK
6
CONTINUOUS
10
148.6177899999999852
20
-161.6590530000000001
11
148.6177899999999852
21
-160.3257189999999923
0
LINE
8
BLACK
6
CONTINUOUS
10
148.6177899999999852
20
-160.7066719999999975
11
148.71302799999998
21
-160.516194999999982
0
LINE
8
BLACK
6
CONTINUOUS
10
148.71302799999998
20
-160.516194999999982
11
148.8082660000000033
21
-160.4209569999999871
0
LINE
8
BLACK
6
CONTINUOUS
10
148.8082660000000033
20
-160.4209569999999871
11
148.9987419999999929
21
-160.3257189999999923
0
LINE
8
BLACK
6
CONTINUOUS
10
148.9987419999999929
20
-160.3257189999999923
11
149.18921899999998
21
-160.3257189999999923
0
LINE
8
BLACK
6
CONTINUOUS
10
149.8558850000000007
20
-161.6590530000000001
11
149.8558850000000007
21
-160.3257189999999923
0
LINE
8
BLACK
6
CONTINUOUS
10
149.8558850000000007
20
-159.6590530000000001
11
149.7606470000000058
21
-159.7542909999999949
0
LINE
8
BLACK
6
CONTINUOUS
10
149.7606470000000058
20
-159.7542909999999949
11
149.8558850000000007
21
-159.8495289999999898
0
LINE
8
BLACK
6
CONTINUOUS
10
149.8558850000000007
20
-159.8495289999999898
11
149.9511229999999955
21
-159.7542909999999949
0
LINE
8
BLACK
6
CONTINUOUS
10
149.9511229999999955
20
-159.7542909999999949
11
149.8558850000000007
21
-159.6590530000000001
0
LINE
8
BLACK
6
CONTINUOUS
10
149.8558850000000007
20
-159.6590530000000001
11
149.8558850000000007
21
-159.8495289999999898
0
LINE
8
BLACK
6
CONTINUOUS
10
151.0939799999999877
20
-161.6590530000000001
11
150.9035039999999981
21
-161.5638150000000053
0
LINE
8
BLACK
6
CONTINUOUS
10
150.9035039999999981
20
-161.5638150000000053
11
150.8082660000000033
21
-161.3733379999999897
0
LINE
8
BLACK
6
CONTINUOUS
10
150.8082660000000033
20
-161.3733379999999897
11
150.8082660000000033
21
-159.6590530000000001
0
LINE
8
BLACK
6
CONTINUOUS
10
152.1415989999999852
20
-161.6590530000000001
11
151.9511229999999955
21
-161.5638150000000053
0
LINE
8
BLACK
6
CONTINUOUS
10
151.9511229999999955
20
-161.5638150000000053
11
151.8558850000000007
21
-161.3733379999999897
0
LINE
8
BLACK
6
CONTINUOUS
10
151.8558850000000007
20
-161.3733379999999897
11
151.8558850000000007
21
-159.6590530000000001
0
LINE
8
BLACK
6
CONTINUOUS
10
154.4273139999999955
20
-161.6590530000000001
11
154.4273139999999955
21
-159.6590530000000001
0
LINE
8
BLACK
6
CONTINUOUS
10
154.4273139999999955
20
-159.6590530000000001
11
155.0939809999999852
21
-161.0876240000000053
0
LINE
8
BLACK
6
CONTINUOUS
10
155.0939809999999852
20
-161.0876240000000053
11
155.7606470000000058
21
-159.6590530000000001
0
LINE
8
BLACK
6
CONTINUOUS
10
155.7606470000000058
20
-159.6590530000000001
11
155.7606470000000058
21
-161.6590530000000001
0
LINE
8
BLACK
6
CONTINUOUS
10
157.5701709999999878
20
-161.6590530000000001
11
157.5701709999999878
21
-160.6114340000000027
0
LINE
8
BLACK
6
CONTINUOUS
10
157.5701709999999878
20
-160.6114340000000027
11
157.4749329999999929
21
-160.4209569999999871
0
LINE
8
BLACK
6
CONTINUOUS
10
157.4749329999999929
20
-160.4209569999999871
11
157.2844570000000033
21
-160.3257189999999923
0
LINE
8
BLACK
6
CONTINUOUS
10
157.2844570000000033
20
-160.3257189999999923
11
156.9035039999999981
21
-160.3257189999999923
0
LINE
8
BLACK
6
CONTINUOUS
10
156.9035039999999981
20
-160.3257189999999923
11
156.71302799999998
21
-160.4209569999999871
0
LINE
8
BLACK
6
CONTINUOUS
10
157.5701709999999878
20
-161.5638150000000053
11
157.3796949999999981
21
-161.6590530000000001
0
LINE
8
BLACK
6
CONTINUOUS
10
157.3796949999999981
20
-161.6590530000000001
11
156.9035039999999981
21
-161.6590530000000001
0
LINE
8
BLACK
6
CONTINUOUS
10
156.9035039999999981
20
-161.6590530000000001
11
156.71302799999998
21
-161.5638150000000053
0
LINE
8
BLACK
6
CONTINUOUS
10
156.71302799999998
20
-161.5638150000000053
11
156.6177899999999852
21
-161.3733379999999897
0
LINE
8
BLACK
6
CONTINUOUS
10
156.6177899999999852
20
-161.3733379999999897
11
156.6177899999999852
21
-161.1828620000000001
0
LINE
8
BLACK
6
CONTINUOUS
10
156.6177899999999852
20
-161.1828620000000001
11
156.71302799999998
21
-160.992385999999982
0
LINE
8
BLACK
6
CONTINUOUS
10
156.71302799999998
20
-160.992385999999982
11
156.9035039999999981
21
-160.8971479999999872
0
LINE
8
BLACK
6
CONTINUOUS
10
156.9035039999999981
20
-160.8971479999999872
11
157.3796949999999981
21
-160.8971479999999872
0
LINE
8
BLACK
6
CONTINUOUS
10
157.3796949999999981
20
-160.8971479999999872
11
157.5701709999999878
21
-160.8019099999999924
0
LINE
8
BLACK
6
CONTINUOUS
10
158.5225519999999904
20
-160.3257189999999923
11
158.5225519999999904
21
-162.3257189999999923
0
LINE
8
BLACK
6
CONTINUOUS
10
158.5225519999999904
20
-160.4209569999999871
11
158.71302799999998
21
-160.3257189999999923
0
LINE
8
BLACK
6
CONTINUOUS
10
158.71302799999998
20
-160.3257189999999923
11
159.0939809999999852
21
-160.3257189999999923
0
LINE
8
BLACK
6
CONTINUOUS
10
159.0939809999999852
20
-160.3257189999999923
11
159.2844570000000033
21
-160.4209569999999871
0
LINE
8
BLACK
6
CONTINUOUS
10
159.2844570000000033
20
-160.4209569999999871
11
159.3796949999999981
21
-160.516194999999982
0
LINE
8
BLACK
6
CONTINUOUS
10
159.3796949999999981
20
-160.516194999999982
11
159.4749329999999929
21
-160.7066719999999975
0
LINE
8
BLACK
6
CONTINUOUS
10
159.4749329999999929
20
-160.7066719999999975
11
159.4749329999999929
21
-161.2780999999999949
0
LINE
8
BLACK
6
CONTINUOUS
10
159.4749329999999929
20
-161.2780999999999949
11
159.3796949999999981
21
-161.4685759999999846
0
LINE
8
BLACK
6
CONTINUOUS
10
159.3796949999999981
20
-161.4685759999999846
11
159.2844570000000033
21
-161.5638150000000053
0
LINE
8
BLACK
6
CONTINUOUS
10
159.2844570000000033
20
-161.5638150000000053
11
159.0939809999999852
21
-161.6590530000000001
0
LINE
8
BLACK
6
CONTINUOUS
10
159.0939809999999852
20
-161.6590530000000001
11
158.71302799999998
21
-161.6590530000000001
0
LINE
8
BLACK
6
CONTINUOUS
10
158.71302799999998
20
-161.6590530000000001
11
158.5225519999999904
21
-161.5638150000000053
0
LINE
8
BLACK
6
CONTINUOUS
10
160.3320760000000007
20
-161.4685759999999846
11
160.4273139999999955
21
-161.5638150000000053
0
LINE
8
BLACK
6
CONTINUOUS
10
160.4273139999999955
20
-161.5638150000000053
11
160.3320760000000007
21
-161.6590530000000001
0
LINE
8
BLACK
6
CONTINUOUS
10
160.3320760000000007
20
-161.6590530000000001
11
160.2368380000000059
21
-161.5638150000000053
0
LINE
8
BLACK
6
CONTINUOUS
10
160.2368380000000059
20
-161.5638150000000053
11
160.3320760000000007
21
-161.4685759999999846
0
LINE
8
BLACK
6
CONTINUOUS
10
160.3320760000000007
20
-161.4685759999999846
11
160.3320760000000007
21
-161.6590530000000001
0
LINE
8
BLACK
6
CONTINUOUS
10
160.3320760000000007
20
-160.4209569999999871
11
160.4273139999999955
21
-160.516194999999982
0
LINE
8
BLACK
6
CONTINUOUS
10
160.4273139999999955
20
-160.516194999999982
11
160.3320760000000007
21
-160.6114340000000027
0
LINE
8
BLACK
6
CONTINUOUS
10
160.3320760000000007
20
-160.6114340000000027
11
160.2368380000000059
21
-160.516194999999982
0
LINE
8
BLACK
6
CONTINUOUS
10
160.2368380000000059
20
-160.516194999999982
11
160.3320760000000007
21
-160.4209569999999871
0
LINE
8
BLACK
6
CONTINUOUS
10
160.3320760000000007
20
-160.4209569999999871
11
160.3320760000000007
21
-160.6114340000000027
0
LINE
8
BLACK
6
CONTINUOUS
10
143.2100219999999808
20
-164.5442149999999799
11
144.0100219999999922
21
-165.3442149999999913
0
LINE
8
BLACK
6
CONTINUOUS
10
144.0100219999999922
20
-164.5442149999999799
11
143.2100219999999808
21
-165.3442149999999913
0
LINE
8
BLACK
6
CONTINUOUS
10
146.9987419999999929
20
-163.8590529999999887
11
147.18921899999998
21
-163.8590529999999887
0
LINE
8
BLACK
6
CONTINUOUS
10
147.18921899999998
20
-163.8590529999999887
11
147.3796949999999981
21
-163.9542909999999836
0
LINE
8
BLACK
6
CONTINUOUS
10
147.3796949999999981
20
-163.9542909999999836
11
147.4749329999999929
21
-164.0495289999999784
0
LINE
8
BLACK
6
CONTINUOUS
10
147.4749329999999929
20
-164.0495289999999784
11
147.5701709999999878
21
-164.2400049999999965
0
LINE
8
BLACK
6
CONTINUOUS
10
147.5701709999999878
20
-164.2400049999999965
11
147.6654089999999826
21
-164.6209570000000042
0
LINE
8
BLACK
6
CONTINUOUS
10
147.6654089999999826
20
-164.6209570000000042
11
147.6654089999999826
21
-165.0971480000000042
0
LINE
8
BLACK
6
CONTINUOUS
10
147.6654089999999826
20
-165.0971480000000042
11
147.5701709999999878
21
-165.4780999999999835
0
LINE
8
BLACK
6
CONTINUOUS
10
147.5701709999999878
20
-165.4780999999999835
11
147.4749329999999929
21
-165.6685760000000016
0
LINE
8
BLACK
6
CONTINUOUS
10
147.4749329999999929
20
-165.6685760000000016
11
147.3796949999999981
21
-165.7638149999999939
0
LINE
8
BLACK
6
CONTINUOUS
10
147.3796949999999981
20
-165.7638149999999939
11
147.18921899999998
21
-165.8590529999999887
0
LINE
8
BLACK
6
CONTINUOUS
10
147.18921899999998
20
-165.8590529999999887
11
146.9987419999999929
21
-165.8590529999999887
0
LINE
8
BLACK
6
CONTINUOUS
10
146.9987419999999929
20
-165.8590529999999887
11
146.8082660000000033
21
-165.7638149999999939
0
LINE
8
BLACK
6
CONTINUOUS
10
146.8082660000000033
20
-165.7638149999999939
11
146.71302799999998
21
-165.6685760000000016
0
LINE
8
BLACK
6
CONTINUOUS
10
146.71302799999998
20
-165.6685760000000016
11
146.6177899999999852
21
-165.4780999999999835
0
LINE
8
BLACK
6
CONTINUOUS
10
146.6177899999999852
20
-165.4780999999999835
11
146.5225519999999904
21
-165.0971480000000042
0
LINE
8
BLACK
6
CONTINUOUS
10
146.5225519999999904
20
-165.0971480000000042
11
146.5225519999999904
21
-164.6209570000000042
0
LINE
8
BLACK
6
CONTINUOUS
10
146.5225519999999904
20
-164.6209570000000042
11
146.6177899999999852
21
-164.2400049999999965
0
LINE
8
BLACK
6
CONTINUOUS
10
146.6177899999999852
20
-164.2400049999999965
11
146.71302799999998
21
-164.0495289999999784
0
LINE
8
BLACK
6
CONTINUOUS
10
146.71302799999998
20
-164.0495289999999784
11
146.8082660000000033
21
-163.9542909999999836
0
LINE
8
BLACK
6
CONTINUOUS
10
146.8082660000000033
20
-163.9542909999999836
11
146.9987419999999929
21
-163.8590529999999887
0
LINE
8
BLACK
6
CONTINUOUS
10
148.5225519999999904
20
-165.6685760000000016
11
148.6177899999999852
21
-165.7638149999999939
0
LINE
8
BLACK
6
CONTINUOUS
10
148.6177899999999852
20
-165.7638149999999939
11
148.5225519999999904
21
-165.8590529999999887
0
LINE
8
BLACK
6
CONTINUOUS
10
148.5225519999999904
20
-165.8590529999999887
11
148.4273139999999955
21
-165.7638149999999939
0
LINE
8
BLACK
6
CONTINUOUS
10
148.4273139999999955
20
-165.7638149999999939
11
148.5225519999999904
21
-165.6685760000000016
0
LINE
8
BLACK
6
CONTINUOUS
10
148.5225519999999904
20
-165.6685760000000016
11
148.5225519999999904
21
-165.8590529999999887
0
LINE
8
BLACK
6
CONTINUOUS
10
149.7606470000000058
20
-164.716194999999999
11
149.5701709999999878
21
-164.6209570000000042
0
LINE
8
BLACK
6
CONTINUOUS
10
149.5701709999999878
20
-164.6209570000000042
11
149.4749329999999929
21
-164.525718999999981
0
LINE
8
BLACK
6
CONTINUOUS
10
149.4749329999999929
20
-164.525718999999981
11
149.3796949999999981
21
-164.3352429999999913
0
LINE
8
BLACK
6
CONTINUOUS
10
149.3796949999999981
20
-164.3352429999999913
11
149.3796949999999981
21
-164.2400049999999965
0
LINE
8
BLACK
6
CONTINUOUS
10
149.3796949999999981
20
-164.2400049999999965
11
149.4749329999999929
21
-164.0495289999999784
0
LINE
8
BLACK
6
CONTINUOUS
10
149.4749329999999929
20
-164.0495289999999784
11
149.5701709999999878
21
-163.9542909999999836
0
LINE
8
BLACK
6
CONTINUOUS
10
149.5701709999999878
20
-163.9542909999999836
11
149.7606470000000058
21
-163.8590529999999887
0
LINE
8
BLACK
6
CONTINUOUS
10
149.7606470000000058
20
-163.8590529999999887
11
150.1415999999999826
21
-163.8590529999999887
0
LINE
8
BLACK
6
CONTINUOUS
10
150.1415999999999826
20
-163.8590529999999887
11
150.3320760000000007
21
-163.9542909999999836
0
LINE
8
BLACK
6
CONTINUOUS
10
150.3320760000000007
20
-163.9542909999999836
11
150.4273139999999955
21
-164.0495289999999784
0
LINE
8
BLACK
6
CONTINUOUS
10
150.4273139999999955
20
-164.0495289999999784
11
150.5225519999999904
21
-164.2400049999999965
0
LINE
8
BLACK
6
CONTINUOUS
10
150.5225519999999904
20
-164.2400049999999965
11
150.5225519999999904
21
-164.3352429999999913
0
LINE
8
BLACK
6
CONTINUOUS
10
150.5225519999999904
20
-164.3352429999999913
11
150.4273139999999955
21
-164.525718999999981
0
LINE
8
BLACK
6
CONTINUOUS
10
150.4273139999999955
20
-164.525718999999981
11
150.3320760000000007
21
-164.6209570000000042
0
LINE
8
BLACK
6
CONTINUOUS
10
150.3320760000000007
20
-164.6209570000000042
11
150.1415999999999826
21
-164.716194999999999
0
LINE
8
BLACK
6
CONTINUOUS
10
150.1415999999999826
20
-164.716194999999999
11
149.7606470000000058
21
-164.716194999999999
0
LINE
8
BLACK
6
CONTINUOUS
10
149.7606470000000058
20
-164.716194999999999
11
149.5701709999999878
21
-164.8114339999999913
0
LINE
8
BLACK
6
CONTINUOUS
10
149.5701709999999878
20
-164.8114339999999913
11
149.4749329999999929
21
-164.9066719999999862
0
LINE
8
BLACK
6
CONTINUOUS
10
149.4749329999999929
20
-164.9066719999999862
11
149.3796949999999981
21
-165.0971480000000042
0
LINE
8
BLACK
6
CONTINUOUS
10
149.3796949999999981
20
-165.0971480000000042
11
149.3796949999999981
21
-165.4780999999999835
0
LINE
8
BLACK
6
CONTINUOUS
10
149.3796949999999981
20
-165.4780999999999835
11
149.4749329999999929
21
-165.6685760000000016
0
LINE
8
BLACK
6
CONTINUOUS
10
149.4749329999999929
20
-165.6685760000000016
11
149.5701709999999878
21
-165.7638149999999939
0
LINE
8
BLACK
6
CONTINUOUS
10
149.5701709999999878
20
-165.7638149999999939
11
149.7606470000000058
21
-165.8590529999999887
0
LINE
8
BLACK
6
CONTINUOUS
10
149.7606470000000058
20
-165.8590529999999887
11
150.1415999999999826
21
-165.8590529999999887
0
LINE
8
BLACK
6
CONTINUOUS
10
150.1415999999999826
20
-165.8590529999999887
11
150.3320760000000007
21
-165.7638149999999939
0
LINE
8
BLACK
6
CONTINUOUS
10
150.3320760000000007
20
-165.7638149999999939
11
150.4273139999999955
21
-165.6685760000000016
0
LINE
8
BLACK
6
CONTINUOUS
10
150.4273139999999955
20
-165.6685760000000016
11
150.5225519999999904
21
-165.4780999999999835
0
LINE
8
BLACK
6
CONTINUOUS
10
150.5225519999999904
20
-165.4780999999999835
11
150.5225519999999904
21
-165.0971480000000042
0
LINE
8
BLACK
6
CONTINUOUS
10
150.5225519999999904
20
-165.0971480000000042
11
150.4273139999999955
21
-164.9066719999999862
0
LINE
8
BLACK
6
CONTINUOUS
10
150.4273139999999955
20
-164.9066719999999862
11
150.3320760000000007
21
-164.8114339999999913
0
LINE
8
BLACK
6
CONTINUOUS
10
150.3320760000000007
20
-164.8114339999999913
11
150.1415999999999826
21
-164.716194999999999
0
LINE
8
BLACK
6
CONTINUOUS
10
151.7606470000000058
20
-163.8590529999999887
11
151.951123999999993
21
-163.8590529999999887
0
LINE
8
BLACK
6
CONTINUOUS
10
151.951123999999993
20
-163.8590529999999887
11
152.1415999999999826
21
-163.9542909999999836
0
LINE
8
BLACK
6
CONTINUOUS
10
152.1415999999999826
20
-163.9542909999999836
11
152.2368380000000059
21
-164.0495289999999784
0
LINE
8
BLACK
6
CONTINUOUS
10
152.2368380000000059
20
-164.0495289999999784
11
152.3320760000000007
21
-164.2400049999999965
0
LINE
8
BLACK
6
CONTINUOUS
10
152.3320760000000007
20
-164.2400049999999965
11
152.4273139999999955
21
-164.6209570000000042
0
LINE
8
BLACK
6
CONTINUOUS
10
152.4273139999999955
20
-164.6209570000000042
11
152.4273139999999955
21
-165.0971480000000042
0
LINE
8
BLACK
6
CONTINUOUS
10
152.4273139999999955
20
-165.0971480000000042
11
152.3320760000000007
21
-165.4780999999999835
0
LINE
8
BLACK
6
CONTINUOUS
10
152.3320760000000007
20
-165.4780999999999835
11
152.2368380000000059
21
-165.6685760000000016
0
LINE
8
BLACK
6
CONTINUOUS
10
152.2368380000000059
20
-165.6685760000000016
11
152.1415999999999826
21
-165.7638149999999939
0
LINE
8
BLACK
6
CONTINUOUS
10
152.1415999999999826
20
-165.7638149999999939
11
151.951123999999993
21
-165.8590529999999887
0
LINE
8
BLACK
6
CONTINUOUS
10
151.951123999999993
20
-165.8590529999999887
11
151.7606470000000058
21
-165.8590529999999887
0
LINE
8
BLACK
6
CONTINUOUS
10
151.7606470000000058
20
-165.8590529999999887
11
151.5701709999999878
21
-165.7638149999999939
0
LINE
8
BLACK
6
CONTINUOUS
10
151.5701709999999878
20
-165.7638149999999939
11
151.4749329999999929
21
-165.6685760000000016
0
LINE
8
BLACK
6
CONTINUOUS
10
151.4749329999999929
20
-165.6685760000000016
11
151.3796949999999981
21
-165.4780999999999835
0
LINE
8
BLACK
6
CONTINUOUS
10
151.3796949999999981
20
-165.4780999999999835
11
151.2844570000000033
21
-165.0971480000000042
0
LINE
8
BLACK
6
CONTINUOUS
10
151.2844570000000033
20
-165.0971480000000042
11
151.2844570000000033
21
-164.6209570000000042
0
LINE
8
BLACK
6
CONTINUOUS
10
151.2844570000000033
20
-164.6209570000000042
11
151.3796949999999981
21
-164.2400049999999965
0
LINE
8
BLACK
6
CONTINUOUS
10
151.3796949999999981
20
-164.2400049999999965
11
151.4749329999999929
21
-164.0495289999999784
0
LINE
8
BLACK
6
CONTINUOUS
10
151.4749329999999929
20
-164.0495289999999784
11
151.5701709999999878
21
-163.9542909999999836
0
LINE
8
BLACK
6
CONTINUOUS
10
151.5701709999999878
20
-163.9542909999999836
11
151.7606470000000058
21
-163.8590529999999887
0
LINE
8
BLACK
6
CONTINUOUS
10
153.6654089999999826
20
-163.8590529999999887
11
153.8558859999999981
21
-163.8590529999999887
0
LINE
8
BLACK
6
CONTINUOUS
10
153.8558859999999981
20
-163.8590529999999887
11
154.0463619999999878
21
-163.9542909999999836
0
LINE
8
BLACK
6
CONTINUOUS
10
154.0463619999999878
20
-163.9542909999999836
11
154.1415999999999826
21
-164.0495289999999784
0
LINE
8
BLACK
6
CONTINUOUS
10
154.1415999999999826
20
-164.0495289999999784
11
154.2368380000000059
21
-164.2400049999999965
0
LINE
8
BLACK
6
CONTINUOUS
10
154.2368380000000059
20
-164.2400049999999965
11
154.3320760000000007
21
-164.6209570000000042
0
LINE
8
BLACK
6
CONTINUOUS
10
154.3320760000000007
20
-164.6209570000000042
11
154.3320760000000007
21
-165.0971480000000042
0
LINE
8
BLACK
6
CONTINUOUS
10
154.3320760000000007
20
-165.0971480000000042
11
154.2368380000000059
21
-165.4780999999999835
0
LINE
8
BLACK
6
CONTINUOUS
10
154.2368380000000059
20
-165.4780999999999835
11
154.1415999999999826
21
-165.6685760000000016
0
LINE
8
BLACK
6
CONTINUOUS
10
154.1415999999999826
20
-165.6685760000000016
11
154.0463619999999878
21
-165.7638149999999939
0
LINE
8
BLACK
6
CONTINUOUS
10
154.0463619999999878
20
-165.7638149999999939
11
153.8558859999999981
21
-165.8590529999999887
0
LINE
8
BLACK
6
CONTINUOUS
10
153.8558859999999981
20
-165.8590529999999887
11
153.6654089999999826
21
-165.8590529999999887
0
LINE
8
BLACK
6
CONTINUOUS
10
153.6654089999999826
20
-165.8590529999999887
11
153.4749329999999929
21
-165.7638149999999939
0
LINE
8
BLACK
6
CONTINUOUS
10
153.4749329999999929
20
-165.7638149999999939
11
153.3796949999999981
21
-165.6685760000000016
0
LINE
8
BLACK
6
CONTINUOUS
10
153.3796949999999981
20
-165.6685760000000016
11
153.2844570000000033
21
-165.4780999999999835
0
LINE
8
BLACK
6
CONTINUOUS
10
153.2844570000000033
20
-165.4780999999999835
11
153.18921899999998
21
-165.0971480000000042
0
LINE
8
BLACK
6
CONTINUOUS
10
153.18921899999998
20
-165.0971480000000042
11
153.18921899999998
21
-164.6209570000000042
0
LINE
8
BLACK
6
CONTINUOUS
10
153.18921899999998
20
-164.6209570000000042
11
153.2844570000000033
21
-164.2400049999999965
0
LINE
8
BLACK
6
CONTINUOUS
10
153.2844570000000033
20
-164.2400049999999965
11
153.3796949999999981
21
-164.0495289999999784
0
LINE
8
BLACK
6
CONTINUOUS
10
153.3796949999999981
20
-164.0495289999999784
11
153.4749329999999929
21
-163.9542909999999836
0
LINE
8
BLACK
6
CONTINUOUS
10
153.4749329999999929
20
-163.9542909999999836
11
153.6654089999999826
21
-163.8590529999999887
0
LINE
8
BLACK
6
CONTINUOUS
10
155.18921899999998
20
-165.8590529999999887
11
155.18921899999998
21
-164.525718999999981
0
LINE
8
BLACK
6
CONTINUOUS
10
155.18921899999998
20
-164.716194999999999
11
155.2844570000000033
21
-164.6209570000000042
0
LINE
8
BLACK
6
CONTINUOUS
10
155.2844570000000033
20
-164.6209570000000042
11
155.4749329999999929
21
-164.525718999999981
0
LINE
8
BLACK
6
CONTINUOUS
10
155.4749329999999929
20
-164.525718999999981
11
155.7606480000000033
21
-164.525718999999981
0
LINE
8
BLACK
6
CONTINUOUS
10
155.7606480000000033
20
-164.525718999999981
11
155.951123999999993
21
-164.6209570000000042
0
LINE
8
BLACK
6
CONTINUOUS
10
155.951123999999993
20
-164.6209570000000042
11
156.0463619999999878
21
-164.8114339999999913
0
LINE
8
BLACK
6
CONTINUOUS
10
156.0463619999999878
20
-164.8114339999999913
11
156.0463619999999878
21
-165.8590529999999887
0
LINE
8
BLACK
6
CONTINUOUS
10
156.0463619999999878
20
-164.8114339999999913
11
156.1415999999999826
21
-164.6209570000000042
0
LINE
8
BLACK
6
CONTINUOUS
10
156.1415999999999826
20
-164.6209570000000042
11
156.3320760000000007
21
-164.525718999999981
0
LINE
8
BLACK
6
CONTINUOUS
10
156.3320760000000007
20
-164.525718999999981
11
156.6177899999999852
21
-164.525718999999981
0
LINE
8
BLACK
6
CONTINUOUS
10
156.6177899999999852
20
-164.525718999999981
11
156.8082670000000007
21
-164.6209570000000042
0
LINE
8
BLACK
6
CONTINUOUS
10
156.8082670000000007
20
-164.6209570000000042
11
156.9035049999999956
21
-164.8114339999999913
0
LINE
8
BLACK
6
CONTINUOUS
10
156.9035049999999956
20
-164.8114339999999913
11
156.9035049999999956
21
-165.8590529999999887
0
LINE
8
BLACK
6
CONTINUOUS
10
157.8558859999999981
20
-165.8590529999999887
11
157.8558859999999981
21
-164.525718999999981
0
LINE
8
BLACK
6
CONTINUOUS
10
157.8558859999999981
20
-164.716194999999999
11
157.951123999999993
21
-164.6209570000000042
0
LINE
8
BLACK
6
CONTINUOUS
10
157.951123999999993
20
-164.6209570000000042
11
158.1415999999999826
21
-164.525718999999981
0
LINE
8
BLACK
6
CONTINUOUS
10
158.1415999999999826
20
-164.525718999999981
11
158.427314999999993
21
-164.525718999999981
0
LINE
8
BLACK
6
CONTINUOUS
10
158.427314999999993
20
-164.525718999999981
11
158.6177909999999827
21
-164.6209570000000042
0
LINE
8
BLACK
6
CONTINUOUS
10
158.6177909999999827
20
-164.6209570000000042
11
158.7130290000000059
21
-164.8114339999999913
0
LINE
8
BLACK
6
CONTINUOUS
10
158.7130290000000059
20
-164.8114339999999913
11
158.7130290000000059
21
-165.8590529999999887
0
LINE
8
BLACK
6
CONTINUOUS
10
158.7130290000000059
20
-164.8114339999999913
11
158.8082670000000007
21
-164.6209570000000042
0
LINE
8
BLACK
6
CONTINUOUS
10
158.8082670000000007
20
-164.6209570000000042
11
158.9987429999999904
21
-164.525718999999981
0
LINE
8
BLACK
6
CONTINUOUS
10
158.9987429999999904
20
-164.525718999999981
11
159.2844570000000033
21
-164.525718999999981
0
LINE
8
BLACK
6
CONTINUOUS
10
159.2844570000000033
20
-164.525718999999981
11
159.4749339999999904
21
-164.6209570000000042
0
LINE
8
BLACK
6
CONTINUOUS
10
159.4749339999999904
20
-164.6209570000000042
11
159.5701719999999852
21
-164.8114339999999913
0
LINE
8
BLACK
6
CONTINUOUS
10
159.5701719999999852
20
-164.8114339999999913
11
159.5701719999999852
21
-165.8590529999999887
0
LINE
8
BLACK
6
CONTINUOUS
10
163.4749339999999904
20
-163.7638149999999939
11
161.7606490000000008
21
-166.3352429999999913
0
LINE
8
BLACK
6
CONTINUOUS
10
166.0463629999999853
20
-163.8590529999999887
11
166.2368400000000008
21
-163.8590529999999887
0
LINE
8
BLACK
6
CONTINUOUS
10
166.2368400000000008
20
-163.8590529999999887
11
166.4273159999999905
21
-163.9542909999999836
0
LINE
8
BLACK
6
CONTINUOUS
10
166.4273159999999905
20
-163.9542909999999836
11
166.5225539999999853
21
-164.0495289999999784
0
LINE
8
BLACK
6
CONTINUOUS
10
166.5225539999999853
20
-164.0495289999999784
11
166.6177919999999801
21
-164.2400049999999965
0
LINE
8
BLACK
6
CONTINUOUS
10
166.6177919999999801
20
-164.2400049999999965
11
166.7130300000000034
21
-164.6209570000000042
0
LINE
8
BLACK
6
CONTINUOUS
10
166.7130300000000034
20
-164.6209570000000042
11
166.7130300000000034
21
-165.0971480000000042
0
LINE
8
BLACK
6
CONTINUOUS
10
166.7130300000000034
20
-165.0971480000000042
11
166.6177919999999801
21
-165.4780999999999835
0
LINE
8
BLACK
6
CONTINUOUS
10
166.6177919999999801
20
-165.4780999999999835
11
166.5225539999999853
21
-165.6685760000000016
0
LINE
8
BLACK
6
CONTINUOUS
10
166.5225539999999853
20
-165.6685760000000016
11
166.4273159999999905
21
-165.7638149999999939
0
LINE
8
BLACK
6
CONTINUOUS
10
166.4273159999999905
20
-165.7638149999999939
11
166.2368400000000008
21
-165.8590529999999887
0
LINE
8
BLACK
6
CONTINUOUS
10
166.2368400000000008
20
-165.8590529999999887
11
166.0463629999999853
21
-165.8590529999999887
0
LINE
8
BLACK
6
CONTINUOUS
10
166.0463629999999853
20
-165.8590529999999887
11
165.8558869999999956
21
-165.7638149999999939
0
LINE
8
BLACK
6
CONTINUOUS
10
165.8558869999999956
20
-165.7638149999999939
11
165.7606490000000008
21
-165.6685760000000016
0
LINE
8
BLACK
6
CONTINUOUS
10
165.7606490000000008
20
-165.6685760000000016
11
165.665411000000006
21
-165.4780999999999835
0
LINE
8
BLACK
6
CONTINUOUS
10
165.665411000000006
20
-165.4780999999999835
11
165.5701729999999827
21
-165.0971480000000042
0
LINE
8
BLACK
6
CONTINUOUS
10
165.5701729999999827
20
-165.0971480000000042
11
165.5701729999999827
21
-164.6209570000000042
0
LINE
8
BLACK
6
CONTINUOUS
10
165.5701729999999827
20
-164.6209570000000042
11
165.665411000000006
21
-164.2400049999999965
0
LINE
8
BLACK
6
CONTINUOUS
10
165.665411000000006
20
-164.2400049999999965
11
165.7606490000000008
21
-164.0495289999999784
0
LINE
8
BLACK
6
CONTINUOUS
10
165.7606490000000008
20
-164.0495289999999784
11
165.8558869999999956
21
-163.9542909999999836
0
LINE
8
BLACK
6
CONTINUOUS
10
165.8558869999999956
20
-163.9542909999999836
11
166.0463629999999853
21
-163.8590529999999887
0
LINE
8
BLACK
6
CONTINUOUS
10
167.5701729999999827
20
-165.6685760000000016
11
167.665411000000006
21
-165.7638149999999939
0
LINE
8
BLACK
6
CONTINUOUS
10
167.665411000000006
20
-165.7638149999999939
11
167.5701729999999827
21
-165.8590529999999887
0
LINE
8
BLACK
6
CONTINUOUS
10
167.5701729999999827
20
-165.8590529999999887
11
167.4749349999999879
21
-165.7638149999999939
0
LINE
8
BLACK
6
CONTINUOUS
10
167.4749349999999879
20
-165.7638149999999939
11
167.5701729999999827
21
-165.6685760000000016
0
LINE
8
BLACK
6
CONTINUOUS
10
167.5701729999999827
20
-165.6685760000000016
11
167.5701729999999827
21
-165.8590529999999887
0
LINE
8
BLACK
6
CONTINUOUS
10
168.903505999999993
20
-163.8590529999999887
11
169.0939829999999802
21
-163.8590529999999887
0
LINE
8
BLACK
6
CONTINUOUS
10
169.0939829999999802
20
-163.8590529999999887
11
169.2844589999999982
21
-163.9542909999999836
0
LINE
8
BLACK
6
CONTINUOUS
10
169.2844589999999982
20
-163.9542909999999836
11
169.3796969999999931
21
-164.0495289999999784
0
LINE
8
BLACK
6
CONTINUOUS
10
169.3796969999999931
20
-164.0495289999999784
11
169.4749349999999879
21
-164.2400049999999965
0
LINE
8
BLACK
6
CONTINUOUS
10
169.4749349999999879
20
-164.2400049999999965
11
169.5701729999999827
21
-164.6209570000000042
0
LINE
8
BLACK
6
CONTINUOUS
10
169.5701729999999827
20
-164.6209570000000042
11
169.5701729999999827
21
-165.0971480000000042
0
LINE
8
BLACK
6
CONTINUOUS
10
169.5701729999999827
20
-165.0971480000000042
11
169.4749349999999879
21
-165.4780999999999835
0
LINE
8
BLACK
6
CONTINUOUS
10
169.4749349999999879
20
-165.4780999999999835
11
169.3796969999999931
21
-165.6685760000000016
0
LINE
8
BLACK
6
CONTINUOUS
10
169.3796969999999931
20
-165.6685760000000016
11
169.2844589999999982
21
-165.7638149999999939
0
LINE
8
BLACK
6
CONTINUOUS
10
169.2844589999999982
20
-165.7638149999999939
11
169.0939829999999802
21
-165.8590529999999887
0
LINE
8
BLACK
6
CONTINUOUS
10
169.0939829999999802
20
-165.8590529999999887
11
168.903505999999993
21
-165.8590529999999887
0
LINE
8
BLACK
6
CONTINUOUS
10
168.903505999999993
20
-165.8590529999999887
11
168.7130300000000034
21
-165.7638149999999939
0
LINE
8
BLACK
6
CONTINUOUS
10
168.7130300000000034
20
-165.7638149999999939
11
168.6177919999999801
21
-165.6685760000000016
0
LINE
8
BLACK
6
CONTINUOUS
10
168.6177919999999801
20
-165.6685760000000016
11
168.5225539999999853
21
-165.4780999999999835
0
LINE
8
BLACK
6
CONTINUOUS
10
168.5225539999999853
20
-165.4780999999999835
11
168.4273159999999905
21
-165.0971480000000042
0
LINE
8
BLACK
6
CONTINUOUS
10
168.4273159999999905
20
-165.0971480000000042
11
168.4273159999999905
21
-164.6209570000000042
0
LINE
8
BLACK
6
CONTINUOUS
10
168.4273159999999905
20
-164.6209570000000042
11
168.5225539999999853
21
-164.2400049999999965
0
LINE
8
BLACK
6
CONTINUOUS
10
168.5225539999999853
20
-164.2400049999999965
11
168.6177919999999801
21
-164.0495289999999784
0
LINE
8
BLACK
6
CONTINUOUS
10
168.6177919999999801
20
-164.0495289999999784
11
168.7130300000000034
21
-163.9542909999999836
0
LINE
8
BLACK
6
CONTINUOUS
10
168.7130300000000034
20
-163.9542909999999836
11
168.903505999999993
21
-163.8590529999999887
0
LINE
8
BLACK
6
CONTINUOUS
10
170.2368400000000008
20
-163.8590529999999887
11
171.4749349999999879
21
-163.8590529999999887
0
LINE
8
BLACK
6
CONTINUOUS
10
171.4749349999999879
20
-163.8590529999999887
11
170.8082679999999982
21
-164.6209570000000042
0
LINE
8
BLACK
6
CONTINUOUS
10
170.8082679999999982
20
-164.6209570000000042
11
171.0939829999999802
21
-164.6209570000000042
0
LINE
8
BLACK
6
CONTINUOUS
10
171.0939829999999802
20
-164.6209570000000042
11
171.2844589999999982
21
-164.716194999999999
0
LINE
8
BLACK
6
CONTINUOUS
10
171.2844589999999982
20
-164.716194999999999
11
171.3796969999999931
21
-164.8114339999999913
0
LINE
8
BLACK
6
CONTINUOUS
10
171.3796969999999931
20
-164.8114339999999913
11
171.4749349999999879
21
-165.001909999999981
0
LINE
8
BLACK
6
CONTINUOUS
10
171.4749349999999879
20
-165.001909999999981
11
171.4749349999999879
21
-165.4780999999999835
0
LINE
8
BLACK
6
CONTINUOUS
10
171.4749349999999879
20
-165.4780999999999835
11
171.3796969999999931
21
-165.6685760000000016
0
LINE
8
BLACK
6
CONTINUOUS
10
171.3796969999999931
20
-165.6685760000000016
11
171.2844589999999982
21
-165.7638149999999939
0
LINE
8
BLACK
6
CONTINUOUS
10
171.2844589999999982
20
-165.7638149999999939
11
171.0939829999999802
21
-165.8590529999999887
0
LINE
8
BLACK
6
CONTINUOUS
10
171.0939829999999802
20
-165.8590529999999887
11
170.5225539999999853
21
-165.8590529999999887
0
LINE
8
BLACK
6
CONTINUOUS
10
170.5225539999999853
20
-165.8590529999999887
11
170.3320779999999957
21
-165.7638149999999939
0
LINE
8
BLACK
6
CONTINUOUS
10
170.3320779999999957
20
-165.7638149999999939
11
170.2368400000000008
21
-165.6685760000000016
0
LINE
8
BLACK
6
CONTINUOUS
10
173.3796969999999931
20
-165.8590529999999887
11
172.2368400000000008
21
-165.8590529999999887
0
LINE
8
BLACK
6
CONTINUOUS
10
172.8082679999999982
20
-165.8590529999999887
11
172.8082679999999982
21
-163.8590529999999887
0
LINE
8
BLACK
6
CONTINUOUS
10
172.8082679999999982
20
-163.8590529999999887
11
172.6177919999999801
21
-164.1447670000000016
0
LINE
8
BLACK
6
CONTINUOUS
10
172.6177919999999801
20
-164.1447670000000016
11
172.4273159999999905
21
-164.3352429999999913
0
LINE
8
BLACK
6
CONTINUOUS
10
172.4273159999999905
20
-164.3352429999999913
11
172.2368400000000008
21
-164.4304809999999861
0
LINE
8
BLACK
6
CONTINUOUS
10
175.1892210000000034
20
-163.8590529999999887
11
174.2368400000000008
21
-163.8590529999999887
0
LINE
8
BLACK
6
CONTINUOUS
10
174.2368400000000008
20
-163.8590529999999887
11
174.141602000000006
21
-164.8114339999999913
0
LINE
8
BLACK
6
CONTINUOUS
10
174.141602000000006
20
-164.8114339999999913
11
174.2368400000000008
21
-164.716194999999999
0
LINE
8
BLACK
6
CONTINUOUS
10
174.2368400000000008
20
-164.716194999999999
11
174.4273159999999905
21
-164.6209570000000042
0
LINE
8
BLACK
6
CONTINUOUS
10
174.4273159999999905
20
-164.6209570000000042
11
174.9035069999999905
21
-164.6209570000000042
0
LINE
8
BLACK
6
CONTINUOUS
10
174.9035069999999905
20
-164.6209570000000042
11
175.0939829999999802
21
-164.716194999999999
0
LINE
8
BLACK
6
CONTINUOUS
10
175.0939829999999802
20
-164.716194999999999
11
175.1892210000000034
21
-164.8114339999999913
0
LINE
8
BLACK
6
CONTINUOUS
10
175.1892210000000034
20
-164.8114339999999913
11
175.2844589999999982
21
-165.001909999999981
0
LINE
8
BLACK
6
CONTINUOUS
10
175.2844589999999982
20
-165.001909999999981
11
175.2844589999999982
21
-165.4780999999999835
0
LINE
8
BLACK
6
CONTINUOUS
10
175.2844589999999982
20
-165.4780999999999835
11
175.1892210000000034
21
-165.6685760000000016
0
LINE
8
BLACK
6
CONTINUOUS
10
175.1892210000000034
20
-165.6685760000000016
11
175.0939829999999802
21
-165.7638149999999939
0
LINE
8
BLACK
6
CONTINUOUS
10
175.0939829999999802
20
-165.7638149999999939
11
174.9035069999999905
21
-165.8590529999999887
0
LINE
8
BLACK
6
CONTINUOUS
10
174.9035069999999905
20
-165.8590529999999887
11
174.4273159999999905
21
-165.8590529999999887
0
LINE
8
BLACK
6
CONTINUOUS
10
174.4273159999999905
20
-165.8590529999999887
11
174.2368400000000008
21
-165.7638149999999939
0
LINE
8
BLACK
6
CONTINUOUS
10
174.2368400000000008
20
-165.7638149999999939
11
174.141602000000006
21
-165.6685760000000016
0
LINE
8
BLACK
6
CONTINUOUS
10
176.0463639999999828
20
-163.8590529999999887
11
176.0463639999999828
21
-164.2400049999999965
0
LINE
8
BLACK
6
CONTINUOUS
10
176.8082689999999957
20
-163.8590529999999887
11
176.8082689999999957
21
-164.2400049999999965
0
LINE
8
BLACK
6
CONTINUOUS
10
179.7606509999999957
20
-166.6209570000000042
11
179.6654120000000034
21
-166.525718999999981
0
LINE
8
BLACK
6
CONTINUOUS
10
179.6654120000000034
20
-166.525718999999981
11
179.4749359999999854
21
-166.2400049999999965
0
LINE
8
BLACK
6
CONTINUOUS
10
179.4749359999999854
20
-166.2400049999999965
11
179.3796979999999905
21
-166.0495289999999784
0
LINE
8
BLACK
6
CONTINUOUS
10
179.3796979999999905
20
-166.0495289999999784
11
179.2844599999999957
21
-165.7638149999999939
0
LINE
8
BLACK
6
CONTINUOUS
10
179.2844599999999957
20
-165.7638149999999939
11
179.1892220000000009
21
-165.2876239999999939
0
LINE
8
BLACK
6
CONTINUOUS
10
179.1892220000000009
20
-165.2876239999999939
11
179.1892220000000009
21
-164.9066719999999862
0
LINE
8
BLACK
6
CONTINUOUS
10
179.1892220000000009
20
-164.9066719999999862
11
179.2844599999999957
21
-164.4304809999999861
0
LINE
8
BLACK
6
CONTINUOUS
10
179.2844599999999957
20
-164.4304809999999861
11
179.3796979999999905
21
-164.1447670000000016
0
LINE
8
BLACK
6
CONTINUOUS
10
179.3796979999999905
20
-164.1447670000000016
11
179.4749359999999854
21
-163.9542909999999836
0
LINE
8
BLACK
6
CONTINUOUS
10
179.4749359999999854
20
-163.9542909999999836
11
179.6654120000000034
21
-163.6685760000000016
0
LINE
8
BLACK
6
CONTINUOUS
10
179.6654120000000034
20
-163.6685760000000016
11
179.7606509999999957
21
-163.5733380000000068
0
LINE
8
BLACK
6
CONTINUOUS
10
181.4749359999999854
20
-163.8590529999999887
11
180.5225549999999828
21
-163.8590529999999887
0
LINE
8
BLACK
6
CONTINUOUS
10
180.5225549999999828
20
-163.8590529999999887
11
180.427316999999988
21
-164.8114339999999913
0
LINE
8
BLACK
6
CONTINUOUS
10
180.427316999999988
20
-164.8114339999999913
11
180.5225549999999828
21
-164.716194999999999
0
LINE
8
BLACK
6
CONTINUOUS
10
180.5225549999999828
20
-164.716194999999999
11
180.7130310000000009
21
-164.6209570000000042
0
LINE
8
BLACK
6
CONTINUOUS
10
180.7130310000000009
20
-164.6209570000000042
11
181.1892220000000009
21
-164.6209570000000042
0
LINE
8
BLACK
6
CONTINUOUS
10
181.1892220000000009
20
-164.6209570000000042
11
181.3796979999999905
21
-164.716194999999999
0
LINE
8
BLACK
6
CONTINUOUS
10
181.3796979999999905
20
-164.716194999999999
11
181.4749359999999854
21
-164.8114339999999913
0
LINE
8
BLACK
6
CONTINUOUS
10
181.4749359999999854
20
-164.8114339999999913
11
181.5701739999999802
21
-165.001909999999981
0
LINE
8
BLACK
6
CONTINUOUS
10
181.5701739999999802
20
-165.001909999999981
11
181.5701739999999802
21
-165.4780999999999835
0
LINE
8
BLACK
6
CONTINUOUS
10
181.5701739999999802
20
-165.4780999999999835
11
181.4749359999999854
21
-165.6685760000000016
0
LINE
8
BLACK
6
CONTINUOUS
10
181.4749359999999854
20
-165.6685760000000016
11
181.3796979999999905
21
-165.7638149999999939
0
LINE
8
BLACK
6
CONTINUOUS
10
181.3796979999999905
20
-165.7638149999999939
11
181.1892220000000009
21
-165.8590529999999887
0
LINE
8
BLACK
6
CONTINUOUS
10
181.1892220000000009
20
-165.8590529999999887
11
180.7130310000000009
21
-165.8590529999999887
0
LINE
8
BLACK
6
CONTINUOUS
10
180.7130310000000009
20
-165.8590529999999887
11
180.5225549999999828
21
-165.7638149999999939
0
LINE
8
BLACK
6
CONTINUOUS
10
180.5225549999999828
20
-165.7638149999999939
11
180.427316999999988
21
-165.6685760000000016
0
LINE
8
BLACK
6
CONTINUOUS
10
183.3796979999999905
20
-163.8590529999999887
11
182.427316999999988
21
-163.8590529999999887
0
LINE
8
BLACK
6
CONTINUOUS
10
182.427316999999988
20
-163.8590529999999887
11
182.3320789999999931
21
-164.8114339999999913
0
LINE
8
BLACK
6
CONTINUOUS
10
182.3320789999999931
20
-164.8114339999999913
11
182.427316999999988
21
-164.716194999999999
0
LINE
8
BLACK
6
CONTINUOUS
10
182.427316999999988
20
-164.716194999999999
11
182.6177929999999776
21
-164.6209570000000042
0
LINE
8
BLACK
6
CONTINUOUS
10
182.6177929999999776
20
-164.6209570000000042
11
183.0939839999999776
21
-164.6209570000000042
0
LINE
8
BLACK
6
CONTINUOUS
10
183.0939839999999776
20
-164.6209570000000042
11
183.2844599999999957
21
-164.716194999999999
0
LINE
8
BLACK
6
CONTINUOUS
10
183.2844599999999957
20
-164.716194999999999
11
183.3796979999999905
21
-164.8114339999999913
0
LINE
8
BLACK
6
CONTINUOUS
10
183.3796979999999905
20
-164.8114339999999913
11
183.4749359999999854
21
-165.001909999999981
0
LINE
8
BLACK
6
CONTINUOUS
10
183.4749359999999854
20
-165.001909999999981
11
183.4749359999999854
21
-165.4780999999999835
0
LINE
8
BLACK
6
CONTINUOUS
10
183.4749359999999854
20
-165.4780999999999835
11
183.3796979999999905
21
-165.6685760000000016
0
LINE
8
BLACK
6
CONTINUOUS
10
183.3796979999999905
20
-165.6685760000000016
11
183.2844599999999957
21
-165.7638149999999939
0
LINE
8
BLACK
6
CONTINUOUS
10
183.2844599999999957
20
-165.7638149999999939
11
183.0939839999999776
21
-165.8590529999999887
0
LINE
8
BLACK
6
CONTINUOUS
10
183.0939839999999776
20
-165.8590529999999887
11
182.6177929999999776
21
-165.8590529999999887
0
LINE
8
BLACK
6
CONTINUOUS
10
182.6177929999999776
20
-165.8590529999999887
11
182.427316999999988
21
-165.7638149999999939
0
LINE
8
BLACK
6
CONTINUOUS
10
182.427316999999988
20
-165.7638149999999939
11
182.3320789999999931
21
-165.6685760000000016
0
LINE
8
BLACK
6
CONTINUOUS
10
185.8558889999999906
20
-165.8590529999999887
11
185.8558889999999906
21
-163.8590529999999887
0
LINE
8
BLACK
6
CONTINUOUS
10
186.7130319999999983
20
-165.8590529999999887
11
186.7130319999999983
21
-164.8114339999999913
0
LINE
8
BLACK
6
CONTINUOUS
10
186.7130319999999983
20
-164.8114339999999913
11
186.6177940000000035
21
-164.6209570000000042
0
LINE
8
BLACK
6
CONTINUOUS
10
186.6177940000000035
20
-164.6209570000000042
11
186.4273179999999854
21
-164.525718999999981
0
LINE
8
BLACK
6
CONTINUOUS
10
186.4273179999999854
20
-164.525718999999981
11
186.1416030000000035
21
-164.525718999999981
0
LINE
8
BLACK
6
CONTINUOUS
10
186.1416030000000035
20
-164.525718999999981
11
185.9511269999999854
21
-164.6209570000000042
0
LINE
8
BLACK
6
CONTINUOUS
10
185.9511269999999854
20
-164.6209570000000042
11
185.8558889999999906
21
-164.716194999999999
0
LINE
8
BLACK
6
CONTINUOUS
10
187.9511269999999854
20
-165.8590529999999887
11
187.7606509999999957
21
-165.7638149999999939
0
LINE
8
BLACK
6
CONTINUOUS
10
187.7606509999999957
20
-165.7638149999999939
11
187.6654130000000009
21
-165.6685760000000016
0
LINE
8
BLACK
6
CONTINUOUS
10
187.6654130000000009
20
-165.6685760000000016
11
187.5701749999999777
21
-165.4780999999999835
0
LINE
8
BLACK
6
CONTINUOUS
10
187.5701749999999777
20
-165.4780999999999835
11
187.5701749999999777
21
-164.9066719999999862
0
LINE
8
BLACK
6
CONTINUOUS
10
187.5701749999999777
20
-164.9066719999999862
11
187.6654130000000009
21
-164.716194999999999
0
LINE
8
BLACK
6
CONTINUOUS
10
187.6654130000000009
20
-164.716194999999999
11
187.7606509999999957
21
-164.6209570000000042
0
LINE
8
BLACK
6
CONTINUOUS
10
187.7606509999999957
20
-164.6209570000000042
11
187.9511269999999854
21
-164.525718999999981
0
LINE
8
BLACK
6
CONTINUOUS
10
187.9511269999999854
20
-164.525718999999981
11
188.2368419999999958
21
-164.525718999999981
0
LINE
8
BLACK
6
CONTINUOUS
10
188.2368419999999958
20
-164.525718999999981
11
188.4273179999999854
21
-164.6209570000000042
0
LINE
8
BLACK
6
CONTINUOUS
10
188.4273179999999854
20
-164.6209570000000042
11
188.5225559999999803
21
-164.716194999999999
0
LINE
8
BLACK
6
CONTINUOUS
10
188.5225559999999803
20
-164.716194999999999
11
188.6177940000000035
21
-164.9066719999999862
0
LINE
8
BLACK
6
CONTINUOUS
10
188.6177940000000035
20
-164.9066719999999862
11
188.6177940000000035
21
-165.4780999999999835
0
LINE
8
BLACK
6
CONTINUOUS
10
188.6177940000000035
20
-165.4780999999999835
11
188.5225559999999803
21
-165.6685760000000016
0
LINE
8
BLACK
6
CONTINUOUS
10
188.5225559999999803
20
-165.6685760000000016
11
188.4273179999999854
21
-165.7638149999999939
0
LINE
8
BLACK
6
CONTINUOUS
10
188.4273179999999854
20
-165.7638149999999939
11
188.2368419999999958
21
-165.8590529999999887
0
LINE
8
BLACK
6
CONTINUOUS
10
188.2368419999999958
20
-165.8590529999999887
11
187.9511269999999854
21
-165.8590529999999887
0
LINE
8
BLACK
6
CONTINUOUS
10
189.7606509999999957
20
-165.8590529999999887
11
189.5701749999999777
21
-165.7638149999999939
0
LINE
8
BLACK
6
CONTINUOUS
10
189.5701749999999777
20
-165.7638149999999939
11
189.4749369999999828
21
-165.5733379999999784
0
LINE
8
BLACK
6
CONTINUOUS
10
189.4749369999999828
20
-165.5733379999999784
11
189.4749369999999828
21
-163.8590529999999887
0
LINE
8
BLACK
6
CONTINUOUS
10
191.2844609999999932
20
-165.7638149999999939
11
191.0939850000000035
21
-165.8590529999999887
0
LINE
8
BLACK
6
CONTINUOUS
10
191.0939850000000035
20
-165.8590529999999887
11
190.7130319999999983
21
-165.8590529999999887
0
LINE
8
BLACK
6
CONTINUOUS
10
190.7130319999999983
20
-165.8590529999999887
11
190.5225559999999803
21
-165.7638149999999939
0
LINE
8
BLACK
6
CONTINUOUS
10
190.5225559999999803
20
-165.7638149999999939
11
190.4273179999999854
21
-165.5733379999999784
0
LINE
8
BLACK
6
CONTINUOUS
10
190.4273179999999854
20
-165.5733379999999784
11
190.4273179999999854
21
-164.8114339999999913
0
LINE
8
BLACK
6
CONTINUOUS
10
190.4273179999999854
20
-164.8114339999999913
11
190.5225559999999803
21
-164.6209570000000042
0
LINE
8
BLACK
6
CONTINUOUS
10
190.5225559999999803
20
-164.6209570000000042
11
190.7130319999999983
21
-164.525718999999981
0
LINE
8
BLACK
6
CONTINUOUS
10
190.7130319999999983
20
-164.525718999999981
11
191.0939850000000035
21
-164.525718999999981
0
LINE
8
BLACK
6
CONTINUOUS
10
191.0939850000000035
20
-164.525718999999981
11
191.2844609999999932
21
-164.6209570000000042
0
LINE
8
BLACK
6
CONTINUOUS
10
191.2844609999999932
20
-164.6209570000000042
11
191.379698999999988
21
-164.8114339999999913
0
LINE
8
BLACK
6
CONTINUOUS
10
191.379698999999988
20
-164.8114339999999913
11
191.379698999999988
21
-165.001909999999981
0
LINE
8
BLACK
6
CONTINUOUS
10
191.379698999999988
20
-165.001909999999981
11
190.4273179999999854
21
-165.1923859999999991
0
LINE
8
BLACK
6
CONTINUOUS
10
192.141604000000001
20
-165.7638149999999939
11
192.3320799999999906
21
-165.8590529999999887
0
LINE
8
BLACK
6
CONTINUOUS
10
192.3320799999999906
20
-165.8590529999999887
11
192.7130319999999983
21
-165.8590529999999887
0
LINE
8
BLACK
6
CONTINUOUS
10
192.7130319999999983
20
-165.8590529999999887
11
192.9035089999999855
21
-165.7638149999999939
0
LINE
8
BLACK
6
CONTINUOUS
10
192.9035089999999855
20
-165.7638149999999939
11
192.9987469999999803
21
-165.5733379999999784
0
LINE
8
BLACK
6
CONTINUOUS
10
192.9987469999999803
20
-165.5733379999999784
11
192.9987469999999803
21
-165.4780999999999835
0
LINE
8
BLACK
6
CONTINUOUS
10
192.9987469999999803
20
-165.4780999999999835
11
192.9035089999999855
21
-165.2876239999999939
0
LINE
8
BLACK
6
CONTINUOUS
10
192.9035089999999855
20
-165.2876239999999939
11
192.7130319999999983
21
-165.1923859999999991
0
LINE
8
BLACK
6
CONTINUOUS
10
192.7130319999999983
20
-165.1923859999999991
11
192.4273179999999854
21
-165.1923859999999991
0
LINE
8
BLACK
6
CONTINUOUS
10
192.4273179999999854
20
-165.1923859999999991
11
192.2368419999999958
21
-165.0971480000000042
0
LINE
8
BLACK
6
CONTINUOUS
10
192.2368419999999958
20
-165.0971480000000042
11
192.141604000000001
21
-164.9066719999999862
0
LINE
8
BLACK
6
CONTINUOUS
10
192.141604000000001
20
-164.9066719999999862
11
192.141604000000001
21
-164.8114339999999913
0
LINE
8
BLACK
6
CONTINUOUS
10
192.141604000000001
20
-164.8114339999999913
11
192.2368419999999958
21
-164.6209570000000042
0
LINE
8
BLACK
6
CONTINUOUS
10
192.2368419999999958
20
-164.6209570000000042
11
192.4273179999999854
21
-164.525718999999981
0
LINE
8
BLACK
6
CONTINUOUS
10
192.4273179999999854
20
-164.525718999999981
11
192.7130319999999983
21
-164.525718999999981
0
LINE
8
BLACK
6
CONTINUOUS
10
192.7130319999999983
20
-164.525718999999981
11
192.9035089999999855
21
-164.6209570000000042
0
LINE
8
BLACK
6
CONTINUOUS
10
193.6654139999999984
20
-166.6209570000000042
11
193.7606519999999932
21
-166.525718999999981
0
LINE
8
BLACK
6
CONTINUOUS
10
193.7606519999999932
20
-166.525718999999981
11
193.9511279999999829
21
-166.2400049999999965
0
LINE
8
BLACK
6
CONTINUOUS
10
193.9511279999999829
20
-166.2400049999999965
11
194.0463659999999777
21
-166.0495289999999784
0
LINE
8
BLACK
6
CONTINUOUS
10
194.0463659999999777
20
-166.0495289999999784
11
194.141604000000001
21
-165.7638149999999939
0
LINE
8
BLACK
6
CONTINUOUS
10
194.141604000000001
20
-165.7638149999999939
11
194.2368419999999958
21
-165.2876239999999939
0
LINE
8
BLACK
6
CONTINUOUS
10
194.2368419999999958
20
-165.2876239999999939
11
194.2368419999999958
21
-164.9066719999999862
0
LINE
8
BLACK
6
CONTINUOUS
10
194.2368419999999958
20
-164.9066719999999862
11
194.141604000000001
21
-164.4304809999999861
0
LINE
8
BLACK
6
CONTINUOUS
10
194.141604000000001
20
-164.4304809999999861
11
194.0463659999999777
21
-164.1447670000000016
0
LINE
8
BLACK
6
CONTINUOUS
10
194.0463659999999777
20
-164.1447670000000016
11
193.9511279999999829
21
-163.9542909999999836
0
LINE
8
BLACK
6
CONTINUOUS
10
193.9511279999999829
20
-163.9542909999999836
11
193.7606519999999932
21
-163.6685760000000016
0
LINE
8
BLACK
6
CONTINUOUS
10
193.7606519999999932
20
-163.6685760000000016
11
193.6654139999999984
21
-163.5733380000000068
0
CIRCLE
8
BLACK
10
143.5600220000000036
20
-167.5842150000000004
40
0.45
0
LINE
8
BLACK
6
CONTINUOUS
10
146.9987419999999929
20
-166.4990530000000035
11
147.18921899999998
21
-166.4990530000000035
0
LINE
8
BLACK
6
CONTINUOUS
10
147.18921899999998
20
-166.4990530000000035
11
147.3796949999999981
21
-166.5942909999999983
0
LINE
8
BLACK
6
CONTINUOUS
10
147.3796949999999981
20
-166.5942909999999983
11
147.4749329999999929
21
-166.6895289999999932
0
LINE
8
BLACK
6
CONTINUOUS
10
147.4749329999999929
20
-166.6895289999999932
11
147.5701709999999878
21
-166.8800049999999828
0
LINE
8
BLACK
6
CONTINUOUS
10
147.5701709999999878
20
-166.8800049999999828
11
147.6654089999999826
21
-167.2609569999999906
0
LINE
8
BLACK
6
CONTINUOUS
10
147.6654089999999826
20
-167.2609569999999906
11
147.6654089999999826
21
-167.7371479999999906
0
LINE
8
BLACK
6
CONTINUOUS
10
147.6654089999999826
20
-167.7371479999999906
11
147.5701709999999878
21
-168.1180999999999983
0
LINE
8
BLACK
6
CONTINUOUS
10
147.5701709999999878
20
-168.1180999999999983
11
147.4749329999999929
21
-168.308575999999988
0
LINE
8
BLACK
6
CONTINUOUS
10
147.4749329999999929
20
-168.308575999999988
11
147.3796949999999981
21
-168.4038149999999803
0
LINE
8
BLACK
6
CONTINUOUS
10
147.3796949999999981
20
-168.4038149999999803
11
147.18921899999998
21
-168.4990530000000035
0
LINE
8
BLACK
6
CONTINUOUS
10
147.18921899999998
20
-168.4990530000000035
11
146.9987419999999929
21
-168.4990530000000035
0
LINE
8
BLACK
6
CONTINUOUS
10
146.9987419999999929
20
-168.4990530000000035
11
146.8082660000000033
21
-168.4038149999999803
0
LINE
8
BLACK
6
CONTINUOUS
10
146.8082660000000033
20
-168.4038149999999803
11
146.71302799999998
21
-168.308575999999988
0
LINE
8
BLACK
6
CONTINUOUS
10
146.71302799999998
20
-168.308575999999988
11
146.6177899999999852
21
-168.1180999999999983
0
LINE
8
BLACK
6
CONTINUOUS
10
146.6177899999999852
20
-168.1180999999999983
11
146.5225519999999904
21
-167.7371479999999906
0
LINE
8
BLACK
6
CONTINUOUS
10
146.5225519999999904
20
-167.7371479999999906
11
146.5225519999999904
21
-167.2609569999999906
0
LINE
8
BLACK
6
CONTINUOUS
10
146.5225519999999904
20
-167.2609569999999906
11
146.6177899999999852
21
-166.8800049999999828
0
LINE
8
BLACK
6
CONTINUOUS
10
146.6177899999999852
20
-166.8800049999999828
11
146.71302799999998
21
-166.6895289999999932
0
LINE
8
BLACK
6
CONTINUOUS
10
146.71302799999998
20
-166.6895289999999932
11
146.8082660000000033
21
-166.5942909999999983
0
LINE
8
BLACK
6
CONTINUOUS
10
146.8082660000000033
20
-166.5942909999999983
11
146.9987419999999929
21
-166.4990530000000035
0
LINE
8
BLACK
6
CONTINUOUS
10
148.5225519999999904
20
-168.308575999999988
11
148.6177899999999852
21
-168.4038149999999803
0
LINE
8
BLACK
6
CONTINUOUS
10
148.6177899999999852
20
-168.4038149999999803
11
148.5225519999999904
21
-168.4990530000000035
0
LINE
8
BLACK
6
CONTINUOUS
10
148.5225519999999904
20
-168.4990530000000035
11
148.4273139999999955
21
-168.4038149999999803
0
LINE
8
BLACK
6
CONTINUOUS
10
148.4273139999999955
20
-168.4038149999999803
11
148.5225519999999904
21
-168.308575999999988
0
LINE
8
BLACK
6
CONTINUOUS
10
148.5225519999999904
20
-168.308575999999988
11
148.5225519999999904
21
-168.4990530000000035
0
LINE
8
BLACK
6
CONTINUOUS
10
149.5701709999999878
20
-168.4990530000000035
11
149.9511229999999955
21
-168.4990530000000035
0
LINE
8
BLACK
6
CONTINUOUS
10
149.9511229999999955
20
-168.4990530000000035
11
150.1415999999999826
21
-168.4038149999999803
0
LINE
8
BLACK
6
CONTINUOUS
10
150.1415999999999826
20
-168.4038149999999803
11
150.2368380000000059
21
-168.308575999999988
0
LINE
8
BLACK
6
CONTINUOUS
10
150.2368380000000059
20
-168.308575999999988
11
150.4273139999999955
21
-168.0228620000000035
0
LINE
8
BLACK
6
CONTINUOUS
10
150.4273139999999955
20
-168.0228620000000035
11
150.5225519999999904
21
-167.6419099999999958
0
LINE
8
BLACK
6
CONTINUOUS
10
150.5225519999999904
20
-167.6419099999999958
11
150.5225519999999904
21
-166.8800049999999828
0
LINE
8
BLACK
6
CONTINUOUS
10
150.5225519999999904
20
-166.8800049999999828
11
150.4273139999999955
21
-166.6895289999999932
0
LINE
8
BLACK
6
CONTINUOUS
10
150.4273139999999955
20
-166.6895289999999932
11
150.3320760000000007
21
-166.5942909999999983
0
LINE
8
BLACK
6
CONTINUOUS
10
150.3320760000000007
20
-166.5942909999999983
11
150.1415999999999826
21
-166.4990530000000035
0
LINE
8
BLACK
6
CONTINUOUS
10
150.1415999999999826
20
-166.4990530000000035
11
149.7606470000000058
21
-166.4990530000000035
0
LINE
8
BLACK
6
CONTINUOUS
10
149.7606470000000058
20
-166.4990530000000035
11
149.5701709999999878
21
-166.5942909999999983
0
LINE
8
BLACK
6
CONTINUOUS
10
149.5701709999999878
20
-166.5942909999999983
11
149.4749329999999929
21
-166.6895289999999932
0
LINE
8
BLACK
6
CONTINUOUS
10
149.4749329999999929
20
-166.6895289999999932
11
149.3796949999999981
21
-166.8800049999999828
0
LINE
8
BLACK
6
CONTINUOUS
10
149.3796949999999981
20
-166.8800049999999828
11
149.3796949999999981
21
-167.3561949999999854
0
LINE
8
BLACK
6
CONTINUOUS
10
149.3796949999999981
20
-167.3561949999999854
11
149.4749329999999929
21
-167.5466720000000009
0
LINE
8
BLACK
6
CONTINUOUS
10
149.4749329999999929
20
-167.5466720000000009
11
149.5701709999999878
21
-167.6419099999999958
0
LINE
8
BLACK
6
CONTINUOUS
10
149.5701709999999878
20
-167.6419099999999958
11
149.7606470000000058
21
-167.7371479999999906
0
LINE
8
BLACK
6
CONTINUOUS
10
149.7606470000000058
20
-167.7371479999999906
11
150.1415999999999826
21
-167.7371479999999906
0
LINE
8
BLACK
6
CONTINUOUS
10
150.1415999999999826
20
-167.7371479999999906
11
150.3320760000000007
21
-167.6419099999999958
0
LINE
8
BLACK
6
CONTINUOUS
10
150.3320760000000007
20
-167.6419099999999958
11
150.4273139999999955
21
-167.5466720000000009
0
LINE
8
BLACK
6
CONTINUOUS
10
150.4273139999999955
20
-167.5466720000000009
11
150.5225519999999904
21
-167.3561949999999854
0
LINE
8
BLACK
6
CONTINUOUS
10
151.7606470000000058
20
-166.4990530000000035
11
151.951123999999993
21
-166.4990530000000035
0
LINE
8
BLACK
6
CONTINUOUS
10
151.951123999999993
20
-166.4990530000000035
11
152.1415999999999826
21
-166.5942909999999983
0
LINE
8
BLACK
6
CONTINUOUS
10
152.1415999999999826
20
-166.5942909999999983
11
152.2368380000000059
21
-166.6895289999999932
0
LINE
8
BLACK
6
CONTINUOUS
10
152.2368380000000059
20
-166.6895289999999932
11
152.3320760000000007
21
-166.8800049999999828
0
LINE
8
BLACK
6
CONTINUOUS
10
152.3320760000000007
20
-166.8800049999999828
11
152.4273139999999955
21
-167.2609569999999906
0
LINE
8
BLACK
6
CONTINUOUS
10
152.4273139999999955
20
-167.2609569999999906
11
152.4273139999999955
21
-167.7371479999999906
0
LINE
8
BLACK
6
CONTINUOUS
10
152.4273139999999955
20
-167.7371479999999906
11
152.3320760000000007
21
-168.1180999999999983
0
LINE
8
BLACK
6
CONTINUOUS
10
152.3320760000000007
20
-168.1180999999999983
11
152.2368380000000059
21
-168.308575999999988
0
LINE
8
BLACK
6
CONTINUOUS
10
152.2368380000000059
20
-168.308575999999988
11
152.1415999999999826
21
-168.4038149999999803
0
LINE
8
BLACK
6
CONTINUOUS
10
152.1415999999999826
20
-168.4038149999999803
11
151.951123999999993
21
-168.4990530000000035
0
LINE
8
BLACK
6
CONTINUOUS
10
151.951123999999993
20
-168.4990530000000035
11
151.7606470000000058
21
-168.4990530000000035
0
LINE
8
BLACK
6
CONTINUOUS
10
151.7606470000000058
20
-168.4990530000000035
11
151.5701709999999878
21
-168.4038149999999803
0
LINE
8
BLACK
6
CONTINUOUS
10
151.5701709999999878
20
-168.4038149999999803
11
151.4749329999999929
21
-168.308575999999988
0
LINE
8
BLACK
6
CONTINUOUS
10
151.4749329999999929
20
-168.308575999999988
11
151.3796949999999981
21
-168.1180999999999983
0
LINE
8
BLACK
6
CONTINUOUS
10
151.3796949999999981
20
-168.1180999999999983
11
151.2844570000000033
21
-167.7371479999999906
0
LINE
8
BLACK
6
CONTINUOUS
10
151.2844570000000033
20
-167.7371479999999906
11
151.2844570000000033
21
-167.2609569999999906
0
LINE
8
BLACK
6
CONTINUOUS
10
151.2844570000000033
20
-167.2609569999999906
11
151.3796949999999981
21
-166.8800049999999828
0
LINE
8
BLACK
6
CONTINUOUS
10
151.3796949999999981
20
-166.8800049999999828
11
151.4749329999999929
21
-166.6895289999999932
0
LINE
8
BLACK
6
CONTINUOUS
10
151.4749329999999929
20
-166.6895289999999932
11
151.5701709999999878
21
-166.5942909999999983
0
LINE
8
BLACK
6
CONTINUOUS
10
151.5701709999999878
20
-166.5942909999999983
11
151.7606470000000058
21
-166.4990530000000035
0
LINE
8
BLACK
6
CONTINUOUS
10
153.6654089999999826
20
-166.4990530000000035
11
153.8558859999999981
21
-166.4990530000000035
0
LINE
8
BLACK
6
CONTINUOUS
10
153.8558859999999981
20
-166.4990530000000035
11
154.0463619999999878
21
-166.5942909999999983
0
LINE
8
BLACK
6
CONTINUOUS
10
154.0463619999999878
20
-166.5942909999999983
11
154.1415999999999826
21
-166.6895289999999932
0
LINE
8
BLACK
6
CONTINUOUS
10
154.1415999999999826
20
-166.6895289999999932
11
154.2368380000000059
21
-166.8800049999999828
0
LINE
8
BLACK
6
CONTINUOUS
10
154.2368380000000059
20
-166.8800049999999828
11
154.3320760000000007
21
-167.2609569999999906
0
LINE
8
BLACK
6
CONTINUOUS
10
154.3320760000000007
20
-167.2609569999999906
11
154.3320760000000007
21
-167.7371479999999906
0
LINE
8
BLACK
6
CONTINUOUS
10
154.3320760000000007
20
-167.7371479999999906
11
154.2368380000000059
21
-168.1180999999999983
0
LINE
8
BLACK
6
CONTINUOUS
10
154.2368380000000059
20
-168.1180999999999983
11
154.1415999999999826
21
-168.308575999999988
0
LINE
8
BLACK
6
CONTINUOUS
10
154.1415999999999826
20
-168.308575999999988
11
154.0463619999999878
21
-168.4038149999999803
0
LINE
8
BLACK
6
CONTINUOUS
10
154.0463619999999878
20
-168.4038149999999803
11
153.8558859999999981
21
-168.4990530000000035
0
LINE
8
BLACK
6
CONTINUOUS
10
153.8558859999999981
20
-168.4990530000000035
11
153.6654089999999826
21
-168.4990530000000035
0
LINE
8
BLACK
6
CONTINUOUS
10
153.6654089999999826
20
-168.4990530000000035
11
153.4749329999999929
21
-168.4038149999999803
0
LINE
8
BLACK
6
CONTINUOUS
10
153.4749329999999929
20
-168.4038149999999803
11
153.3796949999999981
21
-168.308575999999988
0
LINE
8
BLACK
6
CONTINUOUS
10
153.3796949999999981
20
-168.308575999999988
11
153.2844570000000033
21
-168.1180999999999983
0
LINE
8
BLACK
6
CONTINUOUS
10
153.2844570000000033
20
-168.1180999999999983
11
153.18921899999998
21
-167.7371479999999906
0
LINE
8
BLACK
6
CONTINUOUS
10
153.18921899999998
20
-167.7371479999999906
11
153.18921899999998
21
-167.2609569999999906
0
LINE
8
BLACK
6
CONTINUOUS
10
153.18921899999998
20
-167.2609569999999906
11
153.2844570000000033
21
-166.8800049999999828
0
LINE
8
BLACK
6
CONTINUOUS
10
153.2844570000000033
20
-166.8800049999999828
11
153.3796949999999981
21
-166.6895289999999932
0
LINE
8
BLACK
6
CONTINUOUS
10
153.3796949999999981
20
-166.6895289999999932
11
153.4749329999999929
21
-166.5942909999999983
0
LINE
8
BLACK
6
CONTINUOUS
10
153.4749329999999929
20
-166.5942909999999983
11
153.6654089999999826
21
-166.4990530000000035
0
LINE
8
BLACK
6
CONTINUOUS
10
155.18921899999998
20
-168.4990530000000035
11
155.18921899999998
21
-167.1657189999999957
0
LINE
8
BLACK
6
CONTINUOUS
10
155.18921899999998
20
-167.3561949999999854
11
155.2844570000000033
21
-167.2609569999999906
0
LINE
8
BLACK
6
CONTINUOUS
10
155.2844570000000033
20
-167.2609569999999906
11
155.4749329999999929
21
-167.1657189999999957
0
LINE
8
BLACK
6
CONTINUOUS
10
155.4749329999999929
20
-167.1657189999999957
11
155.7606480000000033
21
-167.1657189999999957
0
LINE
8
BLACK
6
CONTINUOUS
10
155.7606480000000033
20
-167.1657189999999957
11
155.951123999999993
21
-167.2609569999999906
0
LINE
8
BLACK
6
CONTINUOUS
10
155.951123999999993
20
-167.2609569999999906
11
156.0463619999999878
21
-167.4514340000000061
0
LINE
8
BLACK
6
CONTINUOUS
10
156.0463619999999878
20
-167.4514340000000061
11
156.0463619999999878
21
-168.4990530000000035
0
LINE
8
BLACK
6
CONTINUOUS
10
156.0463619999999878
20
-167.4514340000000061
11
156.1415999999999826
21
-167.2609569999999906
0
LINE
8
BLACK
6
CONTINUOUS
10
156.1415999999999826
20
-167.2609569999999906
11
156.3320760000000007
21
-167.1657189999999957
0
LINE
8
BLACK
6
CONTINUOUS
10
156.3320760000000007
20
-167.1657189999999957
11
156.6177899999999852
21
-167.1657189999999957
0
LINE
8
BLACK
6
CONTINUOUS
10
156.6177899999999852
20
-167.1657189999999957
11
156.8082670000000007
21
-167.2609569999999906
0
LINE
8
BLACK
6
CONTINUOUS
10
156.8082670000000007
20
-167.2609569999999906
11
156.9035049999999956
21
-167.4514340000000061
0
LINE
8
BLACK
6
CONTINUOUS
10
156.9035049999999956
20
-167.4514340000000061
11
156.9035049999999956
21
-168.4990530000000035
0
LINE
8
BLACK
6
CONTINUOUS
10
157.8558859999999981
20
-168.4990530000000035
11
157.8558859999999981
21
-167.1657189999999957
0
LINE
8
BLACK
6
CONTINUOUS
10
157.8558859999999981
20
-167.3561949999999854
11
157.951123999999993
21
-167.2609569999999906
0
LINE
8
BLACK
6
CONTINUOUS
10
157.951123999999993
20
-167.2609569999999906
11
158.1415999999999826
21
-167.1657189999999957
0
LINE
8
BLACK
6
CONTINUOUS
10
158.1415999999999826
20
-167.1657189999999957
11
158.427314999999993
21
-167.1657189999999957
0
LINE
8
BLACK
6
CONTINUOUS
10
158.427314999999993
20
-167.1657189999999957
11
158.6177909999999827
21
-167.2609569999999906
0
LINE
8
BLACK
6
CONTINUOUS
10
158.6177909999999827
20
-167.2609569999999906
11
158.7130290000000059
21
-167.4514340000000061
0
LINE
8
BLACK
6
CONTINUOUS
10
158.7130290000000059
20
-167.4514340000000061
11
158.7130290000000059
21
-168.4990530000000035
0
LINE
8
BLACK
6
CONTINUOUS
10
158.7130290000000059
20
-167.4514340000000061
11
158.8082670000000007
21
-167.2609569999999906
0
LINE
8
BLACK
6
CONTINUOUS
10
158.8082670000000007
20
-167.2609569999999906
11
158.9987429999999904
21
-167.1657189999999957
0
LINE
8
BLACK
6
CONTINUOUS
10
158.9987429999999904
20
-167.1657189999999957
11
159.2844570000000033
21
-167.1657189999999957
0
LINE
8
BLACK
6
CONTINUOUS
10
159.2844570000000033
20
-167.1657189999999957
11
159.4749339999999904
21
-167.2609569999999906
0
LINE
8
BLACK
6
CONTINUOUS
10
159.4749339999999904
20
-167.2609569999999906
11
159.5701719999999852
21
-167.4514340000000061
0
LINE
8
BLACK
6
CONTINUOUS
10
159.5701719999999852
20
-167.4514340000000061
11
159.5701719999999852
21
-168.4990530000000035
0
LINE
8
BLACK
6
CONTINUOUS
10
163.4749339999999904
20
-166.4038149999999803
11
161.7606490000000008
21
-168.9752430000000061
0
LINE
8
BLACK
6
CONTINUOUS
10
166.0463629999999853
20
-166.4990530000000035
11
166.2368400000000008
21
-166.4990530000000035
0
LINE
8
BLACK
6
CONTINUOUS
10
166.2368400000000008
20
-166.4990530000000035
11
166.4273159999999905
21
-166.5942909999999983
0
LINE
8
BLACK
6
CONTINUOUS
10
166.4273159999999905
20
-166.5942909999999983
11
166.5225539999999853
21
-166.6895289999999932
0
LINE
8
BLACK
6
CONTINUOUS
10
166.5225539999999853
20
-166.6895289999999932
11
166.6177919999999801
21
-166.8800049999999828
0
LINE
8
BLACK
6
CONTINUOUS
10
166.6177919999999801
20
-166.8800049999999828
11
166.7130300000000034
21
-167.2609569999999906
0
LINE
8
BLACK
6
CONTINUOUS
10
166.7130300000000034
20
-167.2609569999999906
11
166.7130300000000034
21
-167.7371479999999906
0
LINE
8
BLACK
6
CONTINUOUS
10
166.7130300000000034
20
-167.7371479999999906
11
166.6177919999999801
21
-168.1180999999999983
0
LINE
8
BLACK
6
CONTINUOUS
10
166.6177919999999801
20
-168.1180999999999983
11
166.5225539999999853
21
-168.308575999999988
0
LINE
8
BLACK
6
CONTINUOUS
10
166.5225539999999853
20
-168.308575999999988
11
166.4273159999999905
21
-168.4038149999999803
0
LINE
8
BLACK
6
CONTINUOUS
10
166.4273159999999905
20
-168.4038149999999803
11
166.2368400000000008
21
-168.4990530000000035
0
LINE
8
BLACK
6
CONTINUOUS
10
166.2368400000000008
20
-168.4990530000000035
11
166.0463629999999853
21
-168.4990530000000035
0
LINE
8
BLACK
6
CONTINUOUS
10
166.0463629999999853
20
-168.4990530000000035
11
165.8558869999999956
21
-168.4038149999999803
0
LINE
8
BLACK
6
CONTINUOUS
10
165.8558869999999956
20
-168.4038149999999803
11
165.7606490000000008
21
-168.308575999999988
0
LINE
8
BLACK
6
CONTINUOUS
10
165.7606490000000008
20
-168.308575999999988
11
165.665411000000006
21
-168.1180999999999983
0
LINE
8
BLACK
6
CONTINUOUS
10
165.665411000000006
20
-168.1180999999999983
11
165.5701729999999827
21
-167.7371479999999906
0
LINE
8
BLACK
6
CONTINUOUS
10
165.5701729999999827
20
-167.7371479999999906
11
165.5701729999999827
21
-167.2609569999999906
0
LINE
8
BLACK
6
CONTINUOUS
10
165.5701729999999827
20
-167.2609569999999906
11
165.665411000000006
21
-166.8800049999999828
0
LINE
8
BLACK
6
CONTINUOUS
10
165.665411000000006
20
-166.8800049999999828
11
165.7606490000000008
21
-166.6895289999999932
0
LINE
8
BLACK
6
CONTINUOUS
10
165.7606490000000008
20
-166.6895289999999932
11
165.8558869999999956
21
-166.5942909999999983
0
LINE
8
BLACK
6
CONTINUOUS
10
165.8558869999999956
20
-166.5942909999999983
11
166.0463629999999853
21
-166.4990530000000035
0
LINE
8
BLACK
6
CONTINUOUS
10
167.5701729999999827
20
-168.308575999999988
11
167.665411000000006
21
-168.4038149999999803
0
LINE
8
BLACK
6
CONTINUOUS
10
167.665411000000006
20
-168.4038149999999803
11
167.5701729999999827
21
-168.4990530000000035
0
LINE
8
BLACK
6
CONTINUOUS
10
167.5701729999999827
20
-168.4990530000000035
11
167.4749349999999879
21
-168.4038149999999803
0
LINE
8
BLACK
6
CONTINUOUS
10
167.4749349999999879
20
-168.4038149999999803
11
167.5701729999999827
21
-168.308575999999988
0
LINE
8
BLACK
6
CONTINUOUS
10
167.5701729999999827
20
-168.308575999999988
11
167.5701729999999827
21
-168.4990530000000035
0
LINE
8
BLACK
6
CONTINUOUS
10
168.903505999999993
20
-166.4990530000000035
11
169.0939829999999802
21
-166.4990530000000035
0
LINE
8
BLACK
6
CONTINUOUS
10
169.0939829999999802
20
-166.4990530000000035
11
169.2844589999999982
21
-166.5942909999999983
0
LINE
8
BLACK
6
CONTINUOUS
10
169.2844589999999982
20
-166.5942909999999983
11
169.3796969999999931
21
-166.6895289999999932
0
LINE
8
BLACK
6
CONTINUOUS
10
169.3796969999999931
20
-166.6895289999999932
11
169.4749349999999879
21
-166.8800049999999828
0
LINE
8
BLACK
6
CONTINUOUS
10
169.4749349999999879
20
-166.8800049999999828
11
169.5701729999999827
21
-167.2609569999999906
0
LINE
8
BLACK
6
CONTINUOUS
10
169.5701729999999827
20
-167.2609569999999906
11
169.5701729999999827
21
-167.7371479999999906
0
LINE
8
BLACK
6
CONTINUOUS
10
169.5701729999999827
20
-167.7371479999999906
11
169.4749349999999879
21
-168.1180999999999983
0
LINE
8
BLACK
6
CONTINUOUS
10
169.4749349999999879
20
-168.1180999999999983
11
169.3796969999999931
21
-168.308575999999988
0
LINE
8
BLACK
6
CONTINUOUS
10
169.3796969999999931
20
-168.308575999999988
11
169.2844589999999982
21
-168.4038149999999803
0
LINE
8
BLACK
6
CONTINUOUS
10
169.2844589999999982
20
-168.4038149999999803
11
169.0939829999999802
21
-168.4990530000000035
0
LINE
8
BLACK
6
CONTINUOUS
10
169.0939829999999802
20
-168.4990530000000035
11
168.903505999999993
21
-168.4990530000000035
0
LINE
8
BLACK
6
CONTINUOUS
10
168.903505999999993
20
-168.4990530000000035
11
168.7130300000000034
21
-168.4038149999999803
0
LINE
8
BLACK
6
CONTINUOUS
10
168.7130300000000034
20
-168.4038149999999803
11
168.6177919999999801
21
-168.308575999999988
0
LINE
8
BLACK
6
CONTINUOUS
10
168.6177919999999801
20
-168.308575999999988
11
168.5225539999999853
21
-168.1180999999999983
0
LINE
8
BLACK
6
CONTINUOUS
10
168.5225539999999853
20
-168.1180999999999983
11
168.4273159999999905
21
-167.7371479999999906
0
LINE
8
BLACK
6
CONTINUOUS
10
168.4273159999999905
20
-167.7371479999999906
11
168.4273159999999905
21
-167.2609569999999906
0
LINE
8
BLACK
6
CONTINUOUS
10
168.4273159999999905
20
-167.2609569999999906
11
168.5225539999999853
21
-166.8800049999999828
0
LINE
8
BLACK
6
CONTINUOUS
10
168.5225539999999853
20
-166.8800049999999828
11
168.6177919999999801
21
-166.6895289999999932
0
LINE
8
BLACK
6
CONTINUOUS
10
168.6177919999999801
20
-166.6895289999999932
11
168.7130300000000034
21
-166.5942909999999983
0
LINE
8
BLACK
6
CONTINUOUS
10
168.7130300000000034
20
-166.5942909999999983
11
168.903505999999993
21
-166.4990530000000035
0
LINE
8
BLACK
6
CONTINUOUS
10
170.2368400000000008
20
-166.4990530000000035
11
171.4749349999999879
21
-166.4990530000000035
0
LINE
8
BLACK
6
CONTINUOUS
10
171.4749349999999879
20
-166.4990530000000035
11
170.8082679999999982
21
-167.2609569999999906
0
LINE
8
BLACK
6
CONTINUOUS
10
170.8082679999999982
20
-167.2609569999999906
11
171.0939829999999802
21
-167.2609569999999906
0
LINE
8
BLACK
6
CONTINUOUS
10
171.0939829999999802
20
-167.2609569999999906
11
171.2844589999999982
21
-167.3561949999999854
0
LINE
8
BLACK
6
CONTINUOUS
10
171.2844589999999982
20
-167.3561949999999854
11
171.3796969999999931
21
-167.4514340000000061
0
LINE
8
BLACK
6
CONTINUOUS
10
171.3796969999999931
20
-167.4514340000000061
11
171.4749349999999879
21
-167.6419099999999958
0
LINE
8
BLACK
6
CONTINUOUS
10
171.4749349999999879
20
-167.6419099999999958
11
171.4749349999999879
21
-168.1180999999999983
0
LINE
8
BLACK
6
CONTINUOUS
10
171.4749349999999879
20
-168.1180999999999983
11
171.3796969999999931
21
-168.308575999999988
0
LINE
8
BLACK
6
CONTINUOUS
10
171.3796969999999931
20
-168.308575999999988
11
171.2844589999999982
21
-168.4038149999999803
0
LINE
8
BLACK
6
CONTINUOUS
10
171.2844589999999982
20
-168.4038149999999803
11
171.0939829999999802
21
-168.4990530000000035
0
LINE
8
BLACK
6
CONTINUOUS
10
171.0939829999999802
20
-168.4990530000000035
11
170.5225539999999853
21
-168.4990530000000035
0
LINE
8
BLACK
6
CONTINUOUS
10
170.5225539999999853
20
-168.4990530000000035
11
170.3320779999999957
21
-168.4038149999999803
0
LINE
8
BLACK
6
CONTINUOUS
10
170.3320779999999957
20
-168.4038149999999803
11
170.2368400000000008
21
-168.308575999999988
0
LINE
8
BLACK
6
CONTINUOUS
10
173.2844589999999982
20
-166.4990530000000035
11
172.3320779999999957
21
-166.4990530000000035
0
LINE
8
BLACK
6
CONTINUOUS
10
172.3320779999999957
20
-166.4990530000000035
11
172.2368400000000008
21
-167.4514340000000061
0
LINE
8
BLACK
6
CONTINUOUS
10
172.2368400000000008
20
-167.4514340000000061
11
172.3320779999999957
21
-167.3561949999999854
0
LINE
8
BLACK
6
CONTINUOUS
10
172.3320779999999957
20
-167.3561949999999854
11
172.5225539999999853
21
-167.2609569999999906
0
LINE
8
BLACK
6
CONTINUOUS
10
172.5225539999999853
20
-167.2609569999999906
11
172.9987449999999853
21
-167.2609569999999906
0
LINE
8
BLACK
6
CONTINUOUS
10
172.9987449999999853
20
-167.2609569999999906
11
173.1892210000000034
21
-167.3561949999999854
0
LINE
8
BLACK
6
CONTINUOUS
10
173.1892210000000034
20
-167.3561949999999854
11
173.2844589999999982
21
-167.4514340000000061
0
LINE
8
BLACK
6
CONTINUOUS
10
173.2844589999999982
20
-167.4514340000000061
11
173.3796969999999931
21
-167.6419099999999958
0
LINE
8
BLACK
6
CONTINUOUS
10
173.3796969999999931
20
-167.6419099999999958
11
173.3796969999999931
21
-168.1180999999999983
0
LINE
8
BLACK
6
CONTINUOUS
10
173.3796969999999931
20
-168.1180999999999983
11
173.2844589999999982
21
-168.308575999999988
0
LINE
8
BLACK
6
CONTINUOUS
10
173.2844589999999982
20
-168.308575999999988
11
173.1892210000000034
21
-168.4038149999999803
0
LINE
8
BLACK
6
CONTINUOUS
10
173.1892210000000034
20
-168.4038149999999803
11
172.9987449999999853
21
-168.4990530000000035
0
LINE
8
BLACK
6
CONTINUOUS
10
172.9987449999999853
20
-168.4990530000000035
11
172.5225539999999853
21
-168.4990530000000035
0
LINE
8
BLACK
6
CONTINUOUS
10
172.5225539999999853
20
-168.4990530000000035
11
172.3320779999999957
21
-168.4038149999999803
0
LINE
8
BLACK
6
CONTINUOUS
10
172.3320779999999957
20
-168.4038149999999803
11
172.2368400000000008
21
-168.308575999999988
0
LINE
8
BLACK
6
CONTINUOUS
10
175.0939829999999802
20
-167.1657189999999957
11
175.0939829999999802
21
-168.4990530000000035
0
LINE
8
BLACK
6
CONTINUOUS
10
174.6177919999999801
20
-166.4038149999999803
11
174.141602000000006
21
-167.8323859999999854
0
LINE
8
BLACK
6
CONTINUOUS
10
174.141602000000006
20
-167.8323859999999854
11
175.3796969999999931
21
-167.8323859999999854
0
LINE
8
BLACK
6
CONTINUOUS
10
176.0463639999999828
20
-166.4990530000000035
11
176.0463639999999828
21
-166.8800049999999828
0
LINE
8
BLACK
6
CONTINUOUS
10
176.8082689999999957
20
-166.4990530000000035
11
176.8082689999999957
21
-166.8800049999999828
0
LINE
8
BLACK
6
CONTINUOUS
10
179.7606509999999957
20
-169.2609569999999906
11
179.6654120000000034
21
-169.1657189999999957
0
LINE
8
BLACK
6
CONTINUOUS
10
179.6654120000000034
20
-169.1657189999999957
11
179.4749359999999854
21
-168.8800049999999828
0
LINE
8
BLACK
6
CONTINUOUS
10
179.4749359999999854
20
-168.8800049999999828
11
179.3796979999999905
21
-168.6895289999999932
0
LINE
8
BLACK
6
CONTINUOUS
10
179.3796979999999905
20
-168.6895289999999932
11
179.2844599999999957
21
-168.4038149999999803
0
LINE
8
BLACK
6
CONTINUOUS
10
179.2844599999999957
20
-168.4038149999999803
11
179.1892220000000009
21
-167.9276239999999802
0
LINE
8
BLACK
6
CONTINUOUS
10
179.1892220000000009
20
-167.9276239999999802
11
179.1892220000000009
21
-167.5466720000000009
0
LINE
8
BLACK
6
CONTINUOUS
10
179.1892220000000009
20
-167.5466720000000009
11
179.2844599999999957
21
-167.0704810000000009
0
LINE
8
BLACK
6
CONTINUOUS
10
179.2844599999999957
20
-167.0704810000000009
11
179.3796979999999905
21
-166.784766999999988
0
LINE
8
BLACK
6
CONTINUOUS
10
179.3796979999999905
20
-166.784766999999988
11
179.4749359999999854
21
-166.5942909999999983
0
LINE
8
BLACK
6
CONTINUOUS
10
179.4749359999999854
20
-166.5942909999999983
11
179.6654120000000034
21
-166.308575999999988
0
LINE
8
BLACK
6
CONTINUOUS
10
179.6654120000000034
20
-166.308575999999988
11
179.7606509999999957
21
-166.2133379999999931
0
LINE
8
BLACK
6
CONTINUOUS
10
181.3796979999999905
20
-167.1657189999999957
11
181.3796979999999905
21
-168.4990530000000035
0
LINE
8
BLACK
6
CONTINUOUS
10
180.9035069999999905
20
-166.4038149999999803
11
180.427316999999988
21
-167.8323859999999854
0
LINE
8
BLACK
6
CONTINUOUS
10
180.427316999999988
20
-167.8323859999999854
11
181.6654120000000034
21
-167.8323859999999854
0
LINE
8
BLACK
6
CONTINUOUS
10
183.9511269999999854
20
-168.4990530000000035
11
183.9511269999999854
21
-166.4990530000000035
0
LINE
8
BLACK
6
CONTINUOUS
10
184.8082699999999932
20
-168.4990530000000035
11
184.8082699999999932
21
-167.4514340000000061
0
LINE
8
BLACK
6
CONTINUOUS
10
184.8082699999999932
20
-167.4514340000000061
11
184.7130319999999983
21
-167.2609569999999906
0
LINE
8
BLACK
6
CONTINUOUS
10
184.7130319999999983
20
-167.2609569999999906
11
184.5225559999999803
21
-167.1657189999999957
0
LINE
8
BLACK
6
CONTINUOUS
10
184.5225559999999803
20
-167.1657189999999957
11
184.2368409999999983
21
-167.1657189999999957
0
LINE
8
BLACK
6
CONTINUOUS
10
184.2368409999999983
20
-167.1657189999999957
11
184.0463649999999802
21
-167.2609569999999906
0
LINE
8
BLACK
6
CONTINUOUS
10
184.0463649999999802
20
-167.2609569999999906
11
183.9511269999999854
21
-167.3561949999999854
0
LINE
8
BLACK
6
CONTINUOUS
10
186.0463649999999802
20
-168.4990530000000035
11
185.8558889999999906
21
-168.4038149999999803
0
LINE
8
BLACK
6
CONTINUOUS
10
185.8558889999999906
20
-168.4038149999999803
11
185.7606509999999957
21
-168.308575999999988
0
LINE
8
BLACK
6
CONTINUOUS
10
185.7606509999999957
20
-168.308575999999988
11
185.6654130000000009
21
-168.1180999999999983
0
LINE
8
BLACK
6
CONTINUOUS
10
185.6654130000000009
20
-168.1180999999999983
11
185.6654130000000009
21
-167.5466720000000009
0
LINE
8
BLACK
6
CONTINUOUS
10
185.6654130000000009
20
-167.5466720000000009
11
185.7606509999999957
21
-167.3561949999999854
0
LINE
8
BLACK
6
CONTINUOUS
10
185.7606509999999957
20
-167.3561949999999854
11
185.8558889999999906
21
-167.2609569999999906
0
LINE
8
BLACK
6
CONTINUOUS
10
185.8558889999999906
20
-167.2609569999999906
11
186.0463649999999802
21
-167.1657189999999957
0
LINE
8
BLACK
6
CONTINUOUS
10
186.0463649999999802
20
-167.1657189999999957
11
186.3320799999999906
21
-167.1657189999999957
0
LINE
8
BLACK
6
CONTINUOUS
10
186.3320799999999906
20
-167.1657189999999957
11
186.5225559999999803
21
-167.2609569999999906
0
LINE
8
BLACK
6
CONTINUOUS
10
186.5225559999999803
20
-167.2609569999999906
11
186.6177940000000035
21
-167.3561949999999854
0
LINE
8
BLACK
6
CONTINUOUS
10
186.6177940000000035
20
-167.3561949999999854
11
186.7130319999999983
21
-167.5466720000000009
0
LINE
8
BLACK
6
CONTINUOUS
10
186.7130319999999983
20
-167.5466720000000009
11
186.7130319999999983
21
-168.1180999999999983
0
LINE
8
BLACK
6
CONTINUOUS
10
186.7130319999999983
20
-168.1180999999999983
11
186.6177940000000035
21
-168.308575999999988
0
LINE
8
BLACK
6
CONTINUOUS
10
186.6177940000000035
20
-168.308575999999988
11
186.5225559999999803
21
-168.4038149999999803
0
LINE
8
BLACK
6
CONTINUOUS
10
186.5225559999999803
20
-168.4038149999999803
11
186.3320799999999906
21
-168.4990530000000035
0
LINE
8
BLACK
6
CONTINUOUS
10
186.3320799999999906
20
-168.4990530000000035
11
186.0463649999999802
21
-168.4990530000000035
0
LINE
8
BLACK
6
CONTINUOUS
10
187.8558889999999906
20
-168.4990530000000035
11
187.6654130000000009
21
-168.4038149999999803
0
LINE
8
BLACK
6
CONTINUOUS
10
187.6654130000000009
20
-168.4038149999999803
11
187.5701749999999777
21
-168.2133379999999931
0
LINE
8
BLACK
6
CONTINUOUS
10
187.5701749999999777
20
-168.2133379999999931
11
187.5701749999999777
21
-166.4990530000000035
0
LINE
8
BLACK
6
CONTINUOUS
10
189.379698999999988
20
-168.4038149999999803
11
189.1892229999999984
21
-168.4990530000000035
0
LINE
8
BLACK
6
CONTINUOUS
10
189.1892229999999984
20
-168.4990530000000035
11
188.8082699999999932
21
-168.4990530000000035
0
LINE
8
BLACK
6
CONTINUOUS
10
188.8082699999999932
20
-168.4990530000000035
11
188.6177940000000035
21
-168.4038149999999803
0
LINE
8
BLACK
6
CONTINUOUS
10
188.6177940000000035
20
-168.4038149999999803
11
188.5225559999999803
21
-168.2133379999999931
0
LINE
8
BLACK
6
CONTINUOUS
10
188.5225559999999803
20
-168.2133379999999931
11
188.5225559999999803
21
-167.4514340000000061
0
LINE
8
BLACK
6
CONTINUOUS
10
188.5225559999999803
20
-167.4514340000000061
11
188.6177940000000035
21
-167.2609569999999906
0
LINE
8
BLACK
6
CONTINUOUS
10
188.6177940000000035
20
-167.2609569999999906
11
188.8082699999999932
21
-167.1657189999999957
0
LINE
8
BLACK
6
CONTINUOUS
10
188.8082699999999932
20
-167.1657189999999957
11
189.1892229999999984
21
-167.1657189999999957
0
LINE
8
BLACK
6
CONTINUOUS
10
189.1892229999999984
20
-167.1657189999999957
11
189.379698999999988
21
-167.2609569999999906
0
LINE
8
BLACK
6
CONTINUOUS
10
189.379698999999988
20
-167.2609569999999906
11
189.4749369999999828
21
-167.4514340000000061
0
LINE
8
BLACK
6
CONTINUOUS
10
189.4749369999999828
20
-167.4514340000000061
11
189.4749369999999828
21
-167.6419099999999958
0
LINE
8
BLACK
6
CONTINUOUS
10
189.4749369999999828
20
-167.6419099999999958
11
188.5225559999999803
21
-167.8323859999999854
0
LINE
8
BLACK
6
CONTINUOUS
10
190.2368419999999958
20
-168.4038149999999803
11
190.4273179999999854
21
-168.4990530000000035
0
LINE
8
BLACK
6
CONTINUOUS
10
190.4273179999999854
20
-168.4990530000000035
11
190.8082699999999932
21
-168.4990530000000035
0
LINE
8
BLACK
6
CONTINUOUS
10
190.8082699999999932
20
-168.4990530000000035
11
190.9987469999999803
21
-168.4038149999999803
0
LINE
8
BLACK
6
CONTINUOUS
10
190.9987469999999803
20
-168.4038149999999803
11
191.0939850000000035
21
-168.2133379999999931
0
LINE
8
BLACK
6
CONTINUOUS
10
191.0939850000000035
20
-168.2133379999999931
11
191.0939850000000035
21
-168.1180999999999983
0
LINE
8
BLACK
6
CONTINUOUS
10
191.0939850000000035
20
-168.1180999999999983
11
190.9987469999999803
21
-167.9276239999999802
0
LINE
8
BLACK
6
CONTINUOUS
10
190.9987469999999803
20
-167.9276239999999802
11
190.8082699999999932
21
-167.8323859999999854
0
LINE
8
BLACK
6
CONTINUOUS
10
190.8082699999999932
20
-167.8323859999999854
11
190.5225559999999803
21
-167.8323859999999854
0
LINE
8
BLACK
6
CONTINUOUS
10
190.5225559999999803
20
-167.8323859999999854
11
190.3320799999999906
21
-167.7371479999999906
0
LINE
8
BLACK
6
CONTINUOUS
10
190.3320799999999906
20
-167.7371479999999906
11
190.2368419999999958
21
-167.5466720000000009
0
LINE
8
BLACK
6
CONTINUOUS
10
190.2368419999999958
20
-167.5466720000000009
11
190.2368419999999958
21
-167.4514340000000061
0
LINE
8
BLACK
6
CONTINUOUS
10
190.2368419999999958
20
-167.4514340000000061
11
190.3320799999999906
21
-167.2609569999999906
0
LINE
8
BLACK
6
CONTINUOUS
10
190.3320799999999906
20
-167.2609569999999906
11
190.5225559999999803
21
-167.1657189999999957
0
LINE
8
BLACK
6
CONTINUOUS
10
190.5225559999999803
20
-167.1657189999999957
11
190.8082699999999932
21
-167.1657189999999957
0
LINE
8
BLACK
6
CONTINUOUS
10
190.8082699999999932
20
-167.1657189999999957
11
190.9987469999999803
21
-167.2609569999999906
0
LINE
8
BLACK
6
CONTINUOUS
10
191.7606519999999932
20
-169.2609569999999906
11
191.855889999999988
21
-169.1657189999999957
0
LINE
8
BLACK
6
CONTINUOUS
10
191.855889999999988
20
-169.1657189999999957
11
192.0463659999999777
21
-168.8800049999999828
0
LINE
8
BLACK
6
CONTINUOUS
10
192.0463659999999777
20
-168.8800049999999828
11
192.141604000000001
21
-168.6895289999999932
0
LINE
8
BLACK
6
CONTINUOUS
10
192.141604000000001
20
-168.6895289999999932
11
192.2368419999999958
21
-168.4038149999999803
0
LINE
8
BLACK
6
CONTINUOUS
10
192.2368419999999958
20
-168.4038149999999803
11
192.3320799999999906
21
-167.9276239999999802
0
LINE
8
BLACK
6
CONTINUOUS
10
192.3320799999999906
20
-167.9276239999999802
11
192.3320799999999906
21
-167.5466720000000009
0
LINE
8
BLACK
6
CONTINUOUS
10
192.3320799999999906
20
-167.5466720000000009
11
192.2368419999999958
21
-167.0704810000000009
0
LINE
8
BLACK
6
CONTINUOUS
10
192.2368419999999958
20
-167.0704810000000009
11
192.141604000000001
21
-166.784766999999988
0
LINE
8
BLACK
6
CONTINUOUS
10
192.141604000000001
20
-166.784766999999988
11
192.0463659999999777
21
-166.5942909999999983
0
LINE
8
BLACK
6
CONTINUOUS
10
192.0463659999999777
20
-166.5942909999999983
11
191.855889999999988
21
-166.308575999999988
0
LINE
8
BLACK
6
CONTINUOUS
10
191.855889999999988
20
-166.308575999999988
11
191.7606519999999932
21
-166.2133379999999931
0
LINE
8
BLACK
6
CONTINUOUS
10
143.5100219999999922
20
-169.7242149999999867
11
143.5100219999999922
21
-170.7242149999999867
0
LINE
8
BLACK
6
CONTINUOUS
10
143.0100219999999922
20
-170.2242149999999867
11
144.0100219999999922
21
-170.2242149999999867
0
LINE
8
BLACK
6
CONTINUOUS
10
147.6654089999999826
20
-171.1390529999999899
11
146.5225519999999904
21
-171.1390529999999899
0
LINE
8
BLACK
6
CONTINUOUS
10
147.0939799999999877
20
-171.1390529999999899
11
147.0939799999999877
21
-169.1390529999999899
0
LINE
8
BLACK
6
CONTINUOUS
10
147.0939799999999877
20
-169.1390529999999899
11
146.9035039999999981
21
-169.4247670000000028
0
LINE
8
BLACK
6
CONTINUOUS
10
146.9035039999999981
20
-169.4247670000000028
11
146.71302799999998
21
-169.6152429999999924
0
LINE
8
BLACK
6
CONTINUOUS
10
146.71302799999998
20
-169.6152429999999924
11
146.5225519999999904
21
-169.7104809999999873
0
LINE
8
BLACK
6
CONTINUOUS
10
148.5225519999999904
20
-170.9485760000000028
11
148.6177899999999852
21
-171.0438149999999951
0
LINE
8
BLACK
6
CONTINUOUS
10
148.6177899999999852
20
-171.0438149999999951
11
148.5225519999999904
21
-171.1390529999999899
0
LINE
8
BLACK
6
CONTINUOUS
10
148.5225519999999904
20
-171.1390529999999899
11
148.4273139999999955
21
-171.0438149999999951
0
LINE
8
BLACK
6
CONTINUOUS
10
148.4273139999999955
20
-171.0438149999999951
11
148.5225519999999904
21
-170.9485760000000028
0
LINE
8
BLACK
6
CONTINUOUS
10
148.5225519999999904
20
-170.9485760000000028
11
148.5225519999999904
21
-171.1390529999999899
0
LINE
8
BLACK
6
CONTINUOUS
10
149.8558850000000007
20
-169.1390529999999899
11
150.0463619999999878
21
-169.1390529999999899
0
LINE
8
BLACK
6
CONTINUOUS
10
150.0463619999999878
20
-169.1390529999999899
11
150.2368380000000059
21
-169.2342909999999847
0
LINE
8
BLACK
6
CONTINUOUS
10
150.2368380000000059
20
-169.2342909999999847
11
150.3320760000000007
21
-169.3295289999999795
0
LINE
8
BLACK
6
CONTINUOUS
10
150.3320760000000007
20
-169.3295289999999795
11
150.4273139999999955
21
-169.5200049999999976
0
LINE
8
BLACK
6
CONTINUOUS
10
150.4273139999999955
20
-169.5200049999999976
11
150.5225519999999904
21
-169.9009570000000053
0
LINE
8
BLACK
6
CONTINUOUS
10
150.5225519999999904
20
-169.9009570000000053
11
150.5225519999999904
21
-170.3771480000000054
0
LINE
8
BLACK
6
CONTINUOUS
10
150.5225519999999904
20
-170.3771480000000054
11
150.4273139999999955
21
-170.7580999999999847
0
LINE
8
BLACK
6
CONTINUOUS
10
150.4273139999999955
20
-170.7580999999999847
11
150.3320760000000007
21
-170.9485760000000028
0
LINE
8
BLACK
6
CONTINUOUS
10
150.3320760000000007
20
-170.9485760000000028
11
150.2368380000000059
21
-171.0438149999999951
0
LINE
8
BLACK
6
CONTINUOUS
10
150.2368380000000059
20
-171.0438149999999951
11
150.0463619999999878
21
-171.1390529999999899
0
LINE
8
BLACK
6
CONTINUOUS
10
150.0463619999999878
20
-171.1390529999999899
11
149.8558850000000007
21
-171.1390529999999899
0
LINE
8
BLACK
6
CONTINUOUS
10
149.8558850000000007
20
-171.1390529999999899
11
149.6654089999999826
21
-171.0438149999999951
0
LINE
8
BLACK
6
CONTINUOUS
10
149.6654089999999826
20
-171.0438149999999951
11
149.5701709999999878
21
-170.9485760000000028
0
LINE
8
BLACK
6
CONTINUOUS
10
149.5701709999999878
20
-170.9485760000000028
11
149.4749329999999929
21
-170.7580999999999847
0
LINE
8
BLACK
6
CONTINUOUS
10
149.4749329999999929
20
-170.7580999999999847
11
149.3796949999999981
21
-170.3771480000000054
0
LINE
8
BLACK
6
CONTINUOUS
10
149.3796949999999981
20
-170.3771480000000054
11
149.3796949999999981
21
-169.9009570000000053
0
LINE
8
BLACK
6
CONTINUOUS
10
149.3796949999999981
20
-169.9009570000000053
11
149.4749329999999929
21
-169.5200049999999976
0
LINE
8
BLACK
6
CONTINUOUS
10
149.4749329999999929
20
-169.5200049999999976
11
149.5701709999999878
21
-169.3295289999999795
0
LINE
8
BLACK
6
CONTINUOUS
10
149.5701709999999878
20
-169.3295289999999795
11
149.6654089999999826
21
-169.2342909999999847
0
LINE
8
BLACK
6
CONTINUOUS
10
149.6654089999999826
20
-169.2342909999999847
11
149.8558850000000007
21
-169.1390529999999899
0
LINE
8
BLACK
6
CONTINUOUS
10
151.7606470000000058
20
-169.1390529999999899
11
151.951123999999993
21
-169.1390529999999899
0
LINE
8
BLACK
6
CONTINUOUS
10
151.951123999999993
20
-169.1390529999999899
11
152.1415999999999826
21
-169.2342909999999847
0
LINE
8
BLACK
6
CONTINUOUS
10
152.1415999999999826
20
-169.2342909999999847
11
152.2368380000000059
21
-169.3295289999999795
0
LINE
8
BLACK
6
CONTINUOUS
10
152.2368380000000059
20
-169.3295289999999795
11
152.3320760000000007
21
-169.5200049999999976
0
LINE
8
BLACK
6
CONTINUOUS
10
152.3320760000000007
20
-169.5200049999999976
11
152.4273139999999955
21
-169.9009570000000053
0
LINE
8
BLACK
6
CONTINUOUS
10
152.4273139999999955
20
-169.9009570000000053
11
152.4273139999999955
21
-170.3771480000000054
0
LINE
8
BLACK
6
CONTINUOUS
10
152.4273139999999955
20
-170.3771480000000054
11
152.3320760000000007
21
-170.7580999999999847
0
LINE
8
BLACK
6
CONTINUOUS
10
152.3320760000000007
20
-170.7580999999999847
11
152.2368380000000059
21
-170.9485760000000028
0
LINE
8
BLACK
6
CONTINUOUS
10
152.2368380000000059
20
-170.9485760000000028
11
152.1415999999999826
21
-171.0438149999999951
0
LINE
8
BLACK
6
CONTINUOUS
10
152.1415999999999826
20
-171.0438149999999951
11
151.951123999999993
21
-171.1390529999999899
0
LINE
8
BLACK
6
CONTINUOUS
10
151.951123999999993
20
-171.1390529999999899
11
151.7606470000000058
21
-171.1390529999999899
0
LINE
8
BLACK
6
CONTINUOUS
10
151.7606470000000058
20
-171.1390529999999899
11
151.5701709999999878
21
-171.0438149999999951
0
LINE
8
BLACK
6
CONTINUOUS
10
151.5701709999999878
20
-171.0438149999999951
11
151.4749329999999929
21
-170.9485760000000028
0
LINE
8
BLACK
6
CONTINUOUS
10
151.4749329999999929
20
-170.9485760000000028
11
151.3796949999999981
21
-170.7580999999999847
0
LINE
8
BLACK
6
CONTINUOUS
10
151.3796949999999981
20
-170.7580999999999847
11
151.2844570000000033
21
-170.3771480000000054
0
LINE
8
BLACK
6
CONTINUOUS
10
151.2844570000000033
20
-170.3771480000000054
11
151.2844570000000033
21
-169.9009570000000053
0
LINE
8
BLACK
6
CONTINUOUS
10
151.2844570000000033
20
-169.9009570000000053
11
151.3796949999999981
21
-169.5200049999999976
0
LINE
8
BLACK
6
CONTINUOUS
10
151.3796949999999981
20
-169.5200049999999976
11
151.4749329999999929
21
-169.3295289999999795
0
LINE
8
BLACK
6
CONTINUOUS
10
151.4749329999999929
20
-169.3295289999999795
11
151.5701709999999878
21
-169.2342909999999847
0
LINE
8
BLACK
6
CONTINUOUS
10
151.5701709999999878
20
-169.2342909999999847
11
151.7606470000000058
21
-169.1390529999999899
0
LINE
8
BLACK
6
CONTINUOUS
10
153.6654089999999826
20
-169.1390529999999899
11
153.8558859999999981
21
-169.1390529999999899
0
LINE
8
BLACK
6
CONTINUOUS
10
153.8558859999999981
20
-169.1390529999999899
11
154.0463619999999878
21
-169.2342909999999847
0
LINE
8
BLACK
6
CONTINUOUS
10
154.0463619999999878
20
-169.2342909999999847
11
154.1415999999999826
21
-169.3295289999999795
0
LINE
8
BLACK
6
CONTINUOUS
10
154.1415999999999826
20
-169.3295289999999795
11
154.2368380000000059
21
-169.5200049999999976
0
LINE
8
BLACK
6
CONTINUOUS
10
154.2368380000000059
20
-169.5200049999999976
11
154.3320760000000007
21
-169.9009570000000053
0
LINE
8
BLACK
6
CONTINUOUS
10
154.3320760000000007
20
-169.9009570000000053
11
154.3320760000000007
21
-170.3771480000000054
0
LINE
8
BLACK
6
CONTINUOUS
10
154.3320760000000007
20
-170.3771480000000054
11
154.2368380000000059
21
-170.7580999999999847
0
LINE
8
BLACK
6
CONTINUOUS
10
154.2368380000000059
20
-170.7580999999999847
11
154.1415999999999826
21
-170.9485760000000028
0
LINE
8
BLACK
6
CONTINUOUS
10
154.1415999999999826
20
-170.9485760000000028
11
154.0463619999999878
21
-171.0438149999999951
0
LINE
8
BLACK
6
CONTINUOUS
10
154.0463619999999878
20
-171.0438149999999951
11
153.8558859999999981
21
-171.1390529999999899
0
LINE
8
BLACK
6
CONTINUOUS
10
153.8558859999999981
20
-171.1390529999999899
11
153.6654089999999826
21
-171.1390529999999899
0
LINE
8
BLACK
6
CONTINUOUS
10
153.6654089999999826
20
-171.1390529999999899
11
153.4749329999999929
21
-171.0438149999999951
0
LINE
8
BLACK
6
CONTINUOUS
10
153.4749329999999929
20
-171.0438149999999951
11
153.3796949999999981
21
-170.9485760000000028
0
LINE
8
BLACK
6
CONTINUOUS
10
153.3796949999999981
20
-170.9485760000000028
11
153.2844570000000033
21
-170.7580999999999847
0
LINE
8
BLACK
6
CONTINUOUS
10
153.2844570000000033
20
-170.7580999999999847
11
153.18921899999998
21
-170.3771480000000054
0
LINE
8
BLACK
6
CONTINUOUS
10
153.18921899999998
20
-170.3771480000000054
11
153.18921899999998
21
-169.9009570000000053
0
LINE
8
BLACK
6
CONTINUOUS
10
153.18921899999998
20
-169.9009570000000053
11
153.2844570000000033
21
-169.5200049999999976
0
LINE
8
BLACK
6
CONTINUOUS
10
153.2844570000000033
20
-169.5200049999999976
11
153.3796949999999981
21
-169.3295289999999795
0
LINE
8
BLACK
6
CONTINUOUS
10
153.3796949999999981
20
-169.3295289999999795
11
153.4749329999999929
21
-169.2342909999999847
0
LINE
8
BLACK
6
CONTINUOUS
10
153.4749329999999929
20
-169.2342909999999847
11
153.6654089999999826
21
-169.1390529999999899
0
LINE
8
BLACK
6
CONTINUOUS
10
155.18921899999998
20
-171.1390529999999899
11
155.18921899999998
21
-169.8057189999999821
0
LINE
8
BLACK
6
CONTINUOUS
10
155.18921899999998
20
-169.9961950000000002
11
155.2844570000000033
21
-169.9009570000000053
0
LINE
8
BLACK
6
CONTINUOUS
10
155.2844570000000033
20
-169.9009570000000053
11
155.4749329999999929
21
-169.8057189999999821
0
LINE
8
BLACK
6
CONTINUOUS
10
155.4749329999999929
20
-169.8057189999999821
11
155.7606480000000033
21
-169.8057189999999821
0
LINE
8
BLACK
6
CONTINUOUS
10
155.7606480000000033
20
-169.8057189999999821
11
155.951123999999993
21
-169.9009570000000053
0
LINE
8
BLACK
6
CONTINUOUS
10
155.951123999999993
20
-169.9009570000000053
11
156.0463619999999878
21
-170.0914339999999925
0
LINE
8
BLACK
6
CONTINUOUS
10
156.0463619999999878
20
-170.0914339999999925
11
156.0463619999999878
21
-171.1390529999999899
0
LINE
8
BLACK
6
CONTINUOUS
10
156.0463619999999878
20
-170.0914339999999925
11
156.1415999999999826
21
-169.9009570000000053
0
LINE
8
BLACK
6
CONTINUOUS
10
156.1415999999999826
20
-169.9009570000000053
11
156.3320760000000007
21
-169.8057189999999821
0
LINE
8
BLACK
6
CONTINUOUS
10
156.3320760000000007
20
-169.8057189999999821
11
156.6177899999999852
21
-169.8057189999999821
0
LINE
8
BLACK
6
CONTINUOUS
10
156.6177899999999852
20
-169.8057189999999821
11
156.8082670000000007
21
-169.9009570000000053
0
LINE
8
BLACK
6
CONTINUOUS
10
156.8082670000000007
20
-169.9009570000000053
11
156.9035049999999956
21
-170.0914339999999925
0
LINE
8
BLACK
6
CONTINUOUS
10
156.9035049999999956
20
-170.0914339999999925
11
156.9035049999999956
21
-171.1390529999999899
0
LINE
8
BLACK
6
CONTINUOUS
10
157.8558859999999981
20
-171.1390529999999899
11
157.8558859999999981
21
-169.8057189999999821
0
LINE
8
BLACK
6
CONTINUOUS
10
157.8558859999999981
20
-169.9961950000000002
11
157.951123999999993
21
-169.9009570000000053
0
LINE
8
BLACK
6
CONTINUOUS
10
157.951123999999993
20
-169.9009570000000053
11
158.1415999999999826
21
-169.8057189999999821
0
LINE
8
BLACK
6
CONTINUOUS
10
158.1415999999999826
20
-169.8057189999999821
11
158.427314999999993
21
-169.8057189999999821
0
LINE
8
BLACK
6
CONTINUOUS
10
158.427314999999993
20
-169.8057189999999821
11
158.6177909999999827
21
-169.9009570000000053
0
LINE
8
BLACK
6
CONTINUOUS
10
158.6177909999999827
20
-169.9009570000000053
11
158.7130290000000059
21
-170.0914339999999925
0
LINE
8
BLACK
6
CONTINUOUS
10
158.7130290000000059
20
-170.0914339999999925
11
158.7130290000000059
21
-171.1390529999999899
0
LINE
8
BLACK
6
CONTINUOUS
10
158.7130290000000059
20
-170.0914339999999925
11
158.8082670000000007
21
-169.9009570000000053
0
LINE
8
BLACK
6
CONTINUOUS
10
158.8082670000000007
20
-169.9009570000000053
11
158.9987429999999904
21
-169.8057189999999821
0
LINE
8
BLACK
6
CONTINUOUS
10
158.9987429999999904
20
-169.8057189999999821
11
159.2844570000000033
21
-169.8057189999999821
0
LINE
8
BLACK
6
CONTINUOUS
10
159.2844570000000033
20
-169.8057189999999821
11
159.4749339999999904
21
-169.9009570000000053
0
LINE
8
BLACK
6
CONTINUOUS
10
159.4749339999999904
20
-169.9009570000000053
11
159.5701719999999852
21
-170.0914339999999925
0
LINE
8
BLACK
6
CONTINUOUS
10
159.5701719999999852
20
-170.0914339999999925
11
159.5701719999999852
21
-171.1390529999999899
0
LINE
8
BLACK
6
CONTINUOUS
10
163.4749339999999904
20
-169.0438149999999951
11
161.7606490000000008
21
-171.6152429999999924
0
LINE
8
BLACK
6
CONTINUOUS
10
166.0463629999999853
20
-169.1390529999999899
11
166.2368400000000008
21
-169.1390529999999899
0
LINE
8
BLACK
6
CONTINUOUS
10
166.2368400000000008
20
-169.1390529999999899
11
166.4273159999999905
21
-169.2342909999999847
0
LINE
8
BLACK
6
CONTINUOUS
10
166.4273159999999905
20
-169.2342909999999847
11
166.5225539999999853
21
-169.3295289999999795
0
LINE
8
BLACK
6
CONTINUOUS
10
166.5225539999999853
20
-169.3295289999999795
11
166.6177919999999801
21
-169.5200049999999976
0
LINE
8
BLACK
6
CONTINUOUS
10
166.6177919999999801
20
-169.5200049999999976
11
166.7130300000000034
21
-169.9009570000000053
0
LINE
8
BLACK
6
CONTINUOUS
10
166.7130300000000034
20
-169.9009570000000053
11
166.7130300000000034
21
-170.3771480000000054
0
LINE
8
BLACK
6
CONTINUOUS
10
166.7130300000000034
20
-170.3771480000000054
11
166.6177919999999801
21
-170.7580999999999847
0
LINE
8
BLACK
6
CONTINUOUS
10
166.6177919999999801
20
-170.7580999999999847
11
166.5225539999999853
21
-170.9485760000000028
0
LINE
8
BLACK
6
CONTINUOUS
10
166.5225539999999853
20
-170.9485760000000028
11
166.4273159999999905
21
-171.0438149999999951
0
LINE
8
BLACK
6
CONTINUOUS
10
166.4273159999999905
20
-171.0438149999999951
11
166.2368400000000008
21
-171.1390529999999899
0
LINE
8
BLACK
6
CONTINUOUS
10
166.2368400000000008
20
-171.1390529999999899
11
166.0463629999999853
21
-171.1390529999999899
0
LINE
8
BLACK
6
CONTINUOUS
10
166.0463629999999853
20
-171.1390529999999899
11
165.8558869999999956
21
-171.0438149999999951
0
LINE
8
BLACK
6
CONTINUOUS
10
165.8558869999999956
20
-171.0438149999999951
11
165.7606490000000008
21
-170.9485760000000028
0
LINE
8
BLACK
6
CONTINUOUS
10
165.7606490000000008
20
-170.9485760000000028
11
165.665411000000006
21
-170.7580999999999847
0
LINE
8
BLACK
6
CONTINUOUS
10
165.665411000000006
20
-170.7580999999999847
11
165.5701729999999827
21
-170.3771480000000054
0
LINE
8
BLACK
6
CONTINUOUS
10
165.5701729999999827
20
-170.3771480000000054
11
165.5701729999999827
21
-169.9009570000000053
0
LINE
8
BLACK
6
CONTINUOUS
10
165.5701729999999827
20
-169.9009570000000053
11
165.665411000000006
21
-169.5200049999999976
0
LINE
8
BLACK
6
CONTINUOUS
10
165.665411000000006
20
-169.5200049999999976
11
165.7606490000000008
21
-169.3295289999999795
0
LINE
8
BLACK
6
CONTINUOUS
10
165.7606490000000008
20
-169.3295289999999795
11
165.8558869999999956
21
-169.2342909999999847
0
LINE
8
BLACK
6
CONTINUOUS
10
165.8558869999999956
20
-169.2342909999999847
11
166.0463629999999853
21
-169.1390529999999899
0
LINE
8
BLACK
6
CONTINUOUS
10
167.5701729999999827
20
-170.9485760000000028
11
167.665411000000006
21
-171.0438149999999951
0
LINE
8
BLACK
6
CONTINUOUS
10
167.665411000000006
20
-171.0438149999999951
11
167.5701729999999827
21
-171.1390529999999899
0
LINE
8
BLACK
6
CONTINUOUS
10
167.5701729999999827
20
-171.1390529999999899
11
167.4749349999999879
21
-171.0438149999999951
0
LINE
8
BLACK
6
CONTINUOUS
10
167.4749349999999879
20
-171.0438149999999951
11
167.5701729999999827
21
-170.9485760000000028
0
LINE
8
BLACK
6
CONTINUOUS
10
167.5701729999999827
20
-170.9485760000000028
11
167.5701729999999827
21
-171.1390529999999899
0
LINE
8
BLACK
6
CONTINUOUS
10
168.903505999999993
20
-169.1390529999999899
11
169.0939829999999802
21
-169.1390529999999899
0
LINE
8
BLACK
6
CONTINUOUS
10
169.0939829999999802
20
-169.1390529999999899
11
169.2844589999999982
21
-169.2342909999999847
0
LINE
8
BLACK
6
CONTINUOUS
10
169.2844589999999982
20
-169.2342909999999847
11
169.3796969999999931
21
-169.3295289999999795
0
LINE
8
BLACK
6
CONTINUOUS
10
169.3796969999999931
20
-169.3295289999999795
11
169.4749349999999879
21
-169.5200049999999976
0
LINE
8
BLACK
6
CONTINUOUS
10
169.4749349999999879
20
-169.5200049999999976
11
169.5701729999999827
21
-169.9009570000000053
0
LINE
8
BLACK
6
CONTINUOUS
10
169.5701729999999827
20
-169.9009570000000053
11
169.5701729999999827
21
-170.3771480000000054
0
LINE
8
BLACK
6
CONTINUOUS
10
169.5701729999999827
20
-170.3771480000000054
11
169.4749349999999879
21
-170.7580999999999847
0
LINE
8
BLACK
6
CONTINUOUS
10
169.4749349999999879
20
-170.7580999999999847
11
169.3796969999999931
21
-170.9485760000000028
0
LINE
8
BLACK
6
CONTINUOUS
10
169.3796969999999931
20
-170.9485760000000028
11
169.2844589999999982
21
-171.0438149999999951
0
LINE
8
BLACK
6
CONTINUOUS
10
169.2844589999999982
20
-171.0438149999999951
11
169.0939829999999802
21
-171.1390529999999899
0
LINE
8
BLACK
6
CONTINUOUS
10
169.0939829999999802
20
-171.1390529999999899
11
168.903505999999993
21
-171.1390529999999899
0
LINE
8
BLACK
6
CONTINUOUS
10
168.903505999999993
20
-171.1390529999999899
11
168.7130300000000034
21
-171.0438149999999951
0
LINE
8
BLACK
6
CONTINUOUS
10
168.7130300000000034
20
-171.0438149999999951
11
168.6177919999999801
21
-170.9485760000000028
0
LINE
8
BLACK
6
CONTINUOUS
10
168.6177919999999801
20
-170.9485760000000028
11
168.5225539999999853
21
-170.7580999999999847
0
LINE
8
BLACK
6
CONTINUOUS
10
168.5225539999999853
20
-170.7580999999999847
11
168.4273159999999905
21
-170.3771480000000054
0
LINE
8
BLACK
6
CONTINUOUS
10
168.4273159999999905
20
-170.3771480000000054
11
168.4273159999999905
21
-169.9009570000000053
0
LINE
8
BLACK
6
CONTINUOUS
10
168.4273159999999905
20
-169.9009570000000053
11
168.5225539999999853
21
-169.5200049999999976
0
LINE
8
BLACK
6
CONTINUOUS
10
168.5225539999999853
20
-169.5200049999999976
11
168.6177919999999801
21
-169.3295289999999795
0
LINE
8
BLACK
6
CONTINUOUS
10
168.6177919999999801
20
-169.3295289999999795
11
168.7130300000000034
21
-169.2342909999999847
0
LINE
8
BLACK
6
CONTINUOUS
10
168.7130300000000034
20
-169.2342909999999847
11
168.903505999999993
21
-169.1390529999999899
0
LINE
8
BLACK
6
CONTINUOUS
10
170.2368400000000008
20
-169.1390529999999899
11
171.4749349999999879
21
-169.1390529999999899
0
LINE
8
BLACK
6
CONTINUOUS
10
171.4749349999999879
20
-169.1390529999999899
11
170.8082679999999982
21
-169.9009570000000053
0
LINE
8
BLACK
6
CONTINUOUS
10
170.8082679999999982
20
-169.9009570000000053
11
171.0939829999999802
21
-169.9009570000000053
0
LINE
8
BLACK
6
CONTINUOUS
10
171.0939829999999802
20
-169.9009570000000053
11
171.2844589999999982
21
-169.9961950000000002
0
LINE
8
BLACK
6
CONTINUOUS
10
171.2844589999999982
20
-169.9961950000000002
11
171.3796969999999931
21
-170.0914339999999925
0
LINE
8
BLACK
6
CONTINUOUS
10
171.3796969999999931
20
-170.0914339999999925
11
171.4749349999999879
21
-170.2819099999999821
0
LINE
8
BLACK
6
CONTINUOUS
10
171.4749349999999879
20
-170.2819099999999821
11
171.4749349999999879
21
-170.7580999999999847
0
LINE
8
BLACK
6
CONTINUOUS
10
171.4749349999999879
20
-170.7580999999999847
11
171.3796969999999931
21
-170.9485760000000028
0
LINE
8
BLACK
6
CONTINUOUS
10
171.3796969999999931
20
-170.9485760000000028
11
171.2844589999999982
21
-171.0438149999999951
0
LINE
8
BLACK
6
CONTINUOUS
10
171.2844589999999982
20
-171.0438149999999951
11
171.0939829999999802
21
-171.1390529999999899
0
LINE
8
BLACK
6
CONTINUOUS
10
171.0939829999999802
20
-171.1390529999999899
11
170.5225539999999853
21
-171.1390529999999899
0
LINE
8
BLACK
6
CONTINUOUS
10
170.5225539999999853
20
-171.1390529999999899
11
170.3320779999999957
21
-171.0438149999999951
0
LINE
8
BLACK
6
CONTINUOUS
10
170.3320779999999957
20
-171.0438149999999951
11
170.2368400000000008
21
-170.9485760000000028
0
LINE
8
BLACK
6
CONTINUOUS
10
172.4273159999999905
20
-171.1390529999999899
11
172.8082679999999982
21
-171.1390529999999899
0
LINE
8
BLACK
6
CONTINUOUS
10
172.8082679999999982
20
-171.1390529999999899
11
172.9987449999999853
21
-171.0438149999999951
0
LINE
8
BLACK
6
CONTINUOUS
10
172.9987449999999853
20
-171.0438149999999951
11
173.0939829999999802
21
-170.9485760000000028
0
LINE
8
BLACK
6
CONTINUOUS
10
173.0939829999999802
20
-170.9485760000000028
11
173.2844589999999982
21
-170.6628619999999898
0
LINE
8
BLACK
6
CONTINUOUS
10
173.2844589999999982
20
-170.6628619999999898
11
173.3796969999999931
21
-170.2819099999999821
0
LINE
8
BLACK
6
CONTINUOUS
10
173.3796969999999931
20
-170.2819099999999821
11
173.3796969999999931
21
-169.5200049999999976
0
LINE
8
BLACK
6
CONTINUOUS
10
173.3796969999999931
20
-169.5200049999999976
11
173.2844589999999982
21
-169.3295289999999795
0
LINE
8
BLACK
6
CONTINUOUS
10
173.2844589999999982
20
-169.3295289999999795
11
173.1892210000000034
21
-169.2342909999999847
0
LINE
8
BLACK
6
CONTINUOUS
10
173.1892210000000034
20
-169.2342909999999847
11
172.9987449999999853
21
-169.1390529999999899
0
LINE
8
BLACK
6
CONTINUOUS
10
172.9987449999999853
20
-169.1390529999999899
11
172.6177919999999801
21
-169.1390529999999899
0
LINE
8
BLACK
6
CONTINUOUS
10
172.6177919999999801
20
-169.1390529999999899
11
172.4273159999999905
21
-169.2342909999999847
0
LINE
8
BLACK
6
CONTINUOUS
10
172.4273159999999905
20
-169.2342909999999847
11
172.3320779999999957
21
-169.3295289999999795
0
LINE
8
BLACK
6
CONTINUOUS
10
172.3320779999999957
20
-169.3295289999999795
11
172.2368400000000008
21
-169.5200049999999976
0
LINE
8
BLACK
6
CONTINUOUS
10
172.2368400000000008
20
-169.5200049999999976
11
172.2368400000000008
21
-169.9961950000000002
0
LINE
8
BLACK
6
CONTINUOUS
10
172.2368400000000008
20
-169.9961950000000002
11
172.3320779999999957
21
-170.1866719999999873
0
LINE
8
BLACK
6
CONTINUOUS
10
172.3320779999999957
20
-170.1866719999999873
11
172.4273159999999905
21
-170.2819099999999821
0
LINE
8
BLACK
6
CONTINUOUS
10
172.4273159999999905
20
-170.2819099999999821
11
172.6177919999999801
21
-170.3771480000000054
0
LINE
8
BLACK
6
CONTINUOUS
10
172.6177919999999801
20
-170.3771480000000054
11
172.9987449999999853
21
-170.3771480000000054
0
LINE
8
BLACK
6
CONTINUOUS
10
172.9987449999999853
20
-170.3771480000000054
11
173.1892210000000034
21
-170.2819099999999821
0
LINE
8
BLACK
6
CONTINUOUS
10
173.1892210000000034
20
-170.2819099999999821
11
173.2844589999999982
21
-170.1866719999999873
0
LINE
8
BLACK
6
CONTINUOUS
10
173.2844589999999982
20
-170.1866719999999873
11
173.3796969999999931
21
-169.9961950000000002
0
LINE
8
BLACK
6
CONTINUOUS
10
175.0939829999999802
20
-169.8057189999999821
11
175.0939829999999802
21
-171.1390529999999899
0
LINE
8
BLACK
6
CONTINUOUS
10
174.6177919999999801
20
-169.0438149999999951
11
174.141602000000006
21
-170.4723860000000002
0
LINE
8
BLACK
6
CONTINUOUS
10
174.141602000000006
20
-170.4723860000000002
11
175.3796969999999931
21
-170.4723860000000002
0
LINE
8
BLACK
6
CONTINUOUS
10
176.0463639999999828
20
-169.1390529999999899
11
176.0463639999999828
21
-169.5200049999999976
0
LINE
8
BLACK
6
CONTINUOUS
10
176.8082689999999957
20
-169.1390529999999899
11
176.8082689999999957
21
-169.5200049999999976
0
LINE
8
BLACK
6
CONTINUOUS
10
179.7606509999999957
20
-171.9009570000000053
11
179.6654120000000034
21
-171.8057189999999821
0
LINE
8
BLACK
6
CONTINUOUS
10
179.6654120000000034
20
-171.8057189999999821
11
179.4749359999999854
21
-171.5200049999999976
0
LINE
8
BLACK
6
CONTINUOUS
10
179.4749359999999854
20
-171.5200049999999976
11
179.3796979999999905
21
-171.3295289999999795
0
LINE
8
BLACK
6
CONTINUOUS
10
179.3796979999999905
20
-171.3295289999999795
11
179.2844599999999957
21
-171.0438149999999951
0
LINE
8
BLACK
6
CONTINUOUS
10
179.2844599999999957
20
-171.0438149999999951
11
179.1892220000000009
21
-170.567623999999995
0
LINE
8
BLACK
6
CONTINUOUS
10
179.1892220000000009
20
-170.567623999999995
11
179.1892220000000009
21
-170.1866719999999873
0
LINE
8
BLACK
6
CONTINUOUS
10
179.1892220000000009
20
-170.1866719999999873
11
179.2844599999999957
21
-169.7104809999999873
0
LINE
8
BLACK
6
CONTINUOUS
10
179.2844599999999957
20
-169.7104809999999873
11
179.3796979999999905
21
-169.4247670000000028
0
LINE
8
BLACK
6
CONTINUOUS
10
179.3796979999999905
20
-169.4247670000000028
11
179.4749359999999854
21
-169.2342909999999847
0
LINE
8
BLACK
6
CONTINUOUS
10
179.4749359999999854
20
-169.2342909999999847
11
179.6654120000000034
21
-168.9485760000000028
0
LINE
8
BLACK
6
CONTINUOUS
10
179.6654120000000034
20
-168.9485760000000028
11
179.7606509999999957
21
-168.8533379999999795
0
LINE
8
BLACK
6
CONTINUOUS
10
181.4749359999999854
20
-169.1390529999999899
11
180.5225549999999828
21
-169.1390529999999899
0
LINE
8
BLACK
6
CONTINUOUS
10
180.5225549999999828
20
-169.1390529999999899
11
180.427316999999988
21
-170.0914339999999925
0
LINE
8
BLACK
6
CONTINUOUS
10
180.427316999999988
20
-170.0914339999999925
11
180.5225549999999828
21
-169.9961950000000002
0
LINE
8
BLACK
6
CONTINUOUS
10
180.5225549999999828
20
-169.9961950000000002
11
180.7130310000000009
21
-169.9009570000000053
0
LINE
8
BLACK
6
CONTINUOUS
10
180.7130310000000009
20
-169.9009570000000053
11
181.1892220000000009
21
-169.9009570000000053
0
LINE
8
BLACK
6
CONTINUOUS
10
181.1892220000000009
20
-169.9009570000000053
11
181.3796979999999905
21
-169.9961950000000002
0
LINE
8
BLACK
6
CONTINUOUS
10
181.3796979999999905
20
-169.9961950000000002
11
181.4749359999999854
21
-170.0914339999999925
0
LINE
8
BLACK
6
CONTINUOUS
10
181.4749359999999854
20
-170.0914339999999925
11
181.5701739999999802
21
-170.2819099999999821
0
LINE
8
BLACK
6
CONTINUOUS
10
181.5701739999999802
20
-170.2819099999999821
11
181.5701739999999802
21
-170.7580999999999847
0
LINE
8
BLACK
6
CONTINUOUS
10
181.5701739999999802
20
-170.7580999999999847
11
181.4749359999999854
21
-170.9485760000000028
0
LINE
8
BLACK
6
CONTINUOUS
10
181.4749359999999854
20
-170.9485760000000028
11
181.3796979999999905
21
-171.0438149999999951
0
LINE
8
BLACK
6
CONTINUOUS
10
181.3796979999999905
20
-171.0438149999999951
11
181.1892220000000009
21
-171.1390529999999899
0
LINE
8
BLACK
6
CONTINUOUS
10
181.1892220000000009
20
-171.1390529999999899
11
180.7130310000000009
21
-171.1390529999999899
0
LINE
8
BLACK
6
CONTINUOUS
10
180.7130310000000009
20
-171.1390529999999899
11
180.5225549999999828
21
-171.0438149999999951
0
LINE
8
BLACK
6
CONTINUOUS
10
180.5225549999999828
20
-171.0438149999999951
11
180.427316999999988
21
-170.9485760000000028
0
LINE
8
BLACK
6
CONTINUOUS
10
183.9511269999999854
20
-171.1390529999999899
11
183.9511269999999854
21
-169.1390529999999899
0
LINE
8
BLACK
6
CONTINUOUS
10
184.8082699999999932
20
-171.1390529999999899
11
184.8082699999999932
21
-170.0914339999999925
0
LINE
8
BLACK
6
CONTINUOUS
10
184.8082699999999932
20
-170.0914339999999925
11
184.7130319999999983
21
-169.9009570000000053
0
LINE
8
BLACK
6
CONTINUOUS
10
184.7130319999999983
20
-169.9009570000000053
11
184.5225559999999803
21
-169.8057189999999821
0
LINE
8
BLACK
6
CONTINUOUS
10
184.5225559999999803
20
-169.8057189999999821
11
184.2368409999999983
21
-169.8057189999999821
0
LINE
8
BLACK
6
CONTINUOUS
10
184.2368409999999983
20
-169.8057189999999821
11
184.0463649999999802
21
-169.9009570000000053
0
LINE
8
BLACK
6
CONTINUOUS
10
184.0463649999999802
20
-169.9009570000000053
11
183.9511269999999854
21
-169.9961950000000002
0
LINE
8
BLACK
6
CONTINUOUS
10
186.0463649999999802
20
-171.1390529999999899
11
185.8558889999999906
21
-171.0438149999999951
0
LINE
8
BLACK
6
CONTINUOUS
10
185.8558889999999906
20
-171.0438149999999951
11
185.7606509999999957
21
-170.9485760000000028
0
LINE
8
BLACK
6
CONTINUOUS
10
185.7606509999999957
20
-170.9485760000000028
11
185.6654130000000009
21
-170.7580999999999847
0
LINE
8
BLACK
6
CONTINUOUS
10
185.6654130000000009
20
-170.7580999999999847
11
185.6654130000000009
21
-170.1866719999999873
0
LINE
8
BLACK
6
CONTINUOUS
10
185.6654130000000009
20
-170.1866719999999873
11
185.7606509999999957
21
-169.9961950000000002
0
LINE
8
BLACK
6
CONTINUOUS
10
185.7606509999999957
20
-169.9961950000000002
11
185.8558889999999906
21
-169.9009570000000053
0
LINE
8
BLACK
6
CONTINUOUS
10
185.8558889999999906
20
-169.9009570000000053
11
186.0463649999999802
21
-169.8057189999999821
0
LINE
8
BLACK
6
CONTINUOUS
10
186.0463649999999802
20
-169.8057189999999821
11
186.3320799999999906
21
-169.8057189999999821
0
LINE
8
BLACK
6
CONTINUOUS
10
186.3320799999999906
20
-169.8057189999999821
11
186.5225559999999803
21
-169.9009570000000053
0
LINE
8
BLACK
6
CONTINUOUS
10
186.5225559999999803
20
-169.9009570000000053
11
186.6177940000000035
21
-169.9961950000000002
0
LINE
8
BLACK
6
CONTINUOUS
10
186.6177940000000035
20
-169.9961950000000002
11
186.7130319999999983
21
-170.1866719999999873
0
LINE
8
BLACK
6
CONTINUOUS
10
186.7130319999999983
20
-170.1866719999999873
11
186.7130319999999983
21
-170.7580999999999847
0
LINE
8
BLACK
6
CONTINUOUS
10
186.7130319999999983
20
-170.7580999999999847
11
186.6177940000000035
21
-170.9485760000000028
0
LINE
8
BLACK
6
CONTINUOUS
10
186.6177940000000035
20
-170.9485760000000028
11
186.5225559999999803
21
-171.0438149999999951
0
LINE
8
BLACK
6
CONTINUOUS
10
186.5225559999999803
20
-171.0438149999999951
11
186.3320799999999906
21
-171.1390529999999899
0
LINE
8
BLACK
6
CONTINUOUS
10
186.3320799999999906
20
-171.1390529999999899
11
186.0463649999999802
21
-171.1390529999999899
0
LINE
8
BLACK
6
CONTINUOUS
10
187.8558889999999906
20
-171.1390529999999899
11
187.6654130000000009
21
-171.0438149999999951
0
LINE
8
BLACK
6
CONTINUOUS
10
187.6654130000000009
20
-171.0438149999999951
11
187.5701749999999777
21
-170.8533379999999795
0
LINE
8
BLACK
6
CONTINUOUS
10
187.5701749999999777
20
-170.8533379999999795
11
187.5701749999999777
21
-169.1390529999999899
0
LINE
8
BLACK
6
CONTINUOUS
10
189.379698999999988
20
-171.0438149999999951
11
189.1892229999999984
21
-171.1390529999999899
0
LINE
8
BLACK
6
CONTINUOUS
10
189.1892229999999984
20
-171.1390529999999899
11
188.8082699999999932
21
-171.1390529999999899
0
LINE
8
BLACK
6
CONTINUOUS
10
188.8082699999999932
20
-171.1390529999999899
11
188.6177940000000035
21
-171.0438149999999951
0
LINE
8
BLACK
6
CONTINUOUS
10
188.6177940000000035
20
-171.0438149999999951
11
188.5225559999999803
21
-170.8533379999999795
0
LINE
8
BLACK
6
CONTINUOUS
10
188.5225559999999803
20
-170.8533379999999795
11
188.5225559999999803
21
-170.0914339999999925
0
LINE
8
BLACK
6
CONTINUOUS
10
188.5225559999999803
20
-170.0914339999999925
11
188.6177940000000035
21
-169.9009570000000053
0
LINE
8
BLACK
6
CONTINUOUS
10
188.6177940000000035
20
-169.9009570000000053
11
188.8082699999999932
21
-169.8057189999999821
0
LINE
8
BLACK
6
CONTINUOUS
10
188.8082699999999932
20
-169.8057189999999821
11
189.1892229999999984
21
-169.8057189999999821
0
LINE
8
BLACK
6
CONTINUOUS
10
189.1892229999999984
20
-169.8057189999999821
11
189.379698999999988
21
-169.9009570000000053
0
LINE
8
BLACK
6
CONTINUOUS
10
189.379698999999988
20
-169.9009570000000053
11
189.4749369999999828
21
-170.0914339999999925
0
LINE
8
BLACK
6
CONTINUOUS
10
189.4749369999999828
20
-170.0914339999999925
11
189.4749369999999828
21
-170.2819099999999821
0
LINE
8
BLACK
6
CONTINUOUS
10
189.4749369999999828
20
-170.2819099999999821
11
188.5225559999999803
21
-170.4723860000000002
0
LINE
8
BLACK
6
CONTINUOUS
10
190.2368419999999958
20
-171.0438149999999951
11
190.4273179999999854
21
-171.1390529999999899
0
LINE
8
BLACK
6
CONTINUOUS
10
190.4273179999999854
20
-171.1390529999999899
11
190.8082699999999932
21
-171.1390529999999899
0
LINE
8
BLACK
6
CONTINUOUS
10
190.8082699999999932
20
-171.1390529999999899
11
190.9987469999999803
21
-171.0438149999999951
0
LINE
8
BLACK
6
CONTINUOUS
10
190.9987469999999803
20
-171.0438149999999951
11
191.0939850000000035
21
-170.8533379999999795
0
LINE
8
BLACK
6
CONTINUOUS
10
191.0939850000000035
20
-170.8533379999999795
11
191.0939850000000035
21
-170.7580999999999847
0
LINE
8
BLACK
6
CONTINUOUS
10
191.0939850000000035
20
-170.7580999999999847
11
190.9987469999999803
21
-170.567623999999995
0
LINE
8
BLACK
6
CONTINUOUS
10
190.9987469999999803
20
-170.567623999999995
11
190.8082699999999932
21
-170.4723860000000002
0
LINE
8
BLACK
6
CONTINUOUS
10
190.8082699999999932
20
-170.4723860000000002
11
190.5225559999999803
21
-170.4723860000000002
0
LINE
8
BLACK
6
CONTINUOUS
10
190.5225559999999803
20
-170.4723860000000002
11
190.3320799999999906
21
-170.3771480000000054
0
LINE
8
BLACK
6
CONTINUOUS
10
190.3320799999999906
20
-170.3771480000000054
11
190.2368419999999958
21
-170.1866719999999873
0
LINE
8
BLACK
6
CONTINUOUS
10
190.2368419999999958
20
-170.1866719999999873
11
190.2368419999999958
21
-170.0914339999999925
0
LINE
8
BLACK
6
CONTINUOUS
10
190.2368419999999958
20
-170.0914339999999925
11
190.3320799999999906
21
-169.9009570000000053
0
LINE
8
BLACK
6
CONTINUOUS
10
190.3320799999999906
20
-169.9009570000000053
11
190.5225559999999803
21
-169.8057189999999821
0
LINE
8
BLACK
6
CONTINUOUS
10
190.5225559999999803
20
-169.8057189999999821
11
190.8082699999999932
21
-169.8057189999999821
0
LINE
8
BLACK
6
CONTINUOUS
10
190.8082699999999932
20
-169.8057189999999821
11
190.9987469999999803
21
-169.9009570000000053
0
LINE
8
BLACK
6
CONTINUOUS
10
191.7606519999999932
20
-171.9009570000000053
11
191.855889999999988
21
-171.8057189999999821
0
LINE
8
BLACK
6
CONTINUOUS
10
191.855889999999988
20
-171.8057189999999821
11
192.0463659999999777
21
-171.5200049999999976
0
LINE
8
BLACK
6
CONTINUOUS
10
192.0463659999999777
20
-171.5200049999999976
11
192.141604000000001
21
-171.3295289999999795
0
LINE
8
BLACK
6
CONTINUOUS
10
192.141604000000001
20
-171.3295289999999795
11
192.2368419999999958
21
-171.0438149999999951
0
LINE
8
BLACK
6
CONTINUOUS
10
192.2368419999999958
20
-171.0438149999999951
11
192.3320799999999906
21
-170.567623999999995
0
LINE
8
BLACK
6
CONTINUOUS
10
192.3320799999999906
20
-170.567623999999995
11
192.3320799999999906
21
-170.1866719999999873
0
LINE
8
BLACK
6
CONTINUOUS
10
192.3320799999999906
20
-170.1866719999999873
11
192.2368419999999958
21
-169.7104809999999873
0
LINE
8
BLACK
6
CONTINUOUS
10
192.2368419999999958
20
-169.7104809999999873
11
192.141604000000001
21
-169.4247670000000028
0
LINE
8
BLACK
6
CONTINUOUS
10
192.141604000000001
20
-169.4247670000000028
11
192.0463659999999777
21
-169.2342909999999847
0
LINE
8
BLACK
6
CONTINUOUS
10
192.0463659999999777
20
-169.2342909999999847
11
191.855889999999988
21
-168.9485760000000028
0
LINE
8
BLACK
6
CONTINUOUS
10
191.855889999999988
20
-168.9485760000000028
11
191.7606519999999932
21
-168.8533379999999795
0
LINE
8
BLACK
6
CONTINUOUS
10
143.7537460000000067
20
-173.4829389999999876
11
143.7537460000000067
21
-172.245490999999987
0
LINE
8
BLACK
6
CONTINUOUS
10
143.7537460000000067
20
-172.245490999999987
11
142.5162980000000061
21
-172.245490999999987
0
LINE
8
BLACK
6
CONTINUOUS
10
142.5162980000000061
20
-172.245490999999987
11
142.5162980000000061
21
-173.4829389999999876
0
LINE
8
BLACK
6
CONTINUOUS
10
142.5162980000000061
20
-173.4829389999999876
11
143.7537460000000067
21
-173.4829389999999876
0
LINE
8
BLACK
6
CONTINUOUS
10
147.6654089999999826
20
-173.7790530000000047
11
146.5225519999999904
21
-173.7790530000000047
0
LINE
8
BLACK
6
CONTINUOUS
10
147.0939799999999877
20
-173.7790530000000047
11
147.0939799999999877
21
-171.7790530000000047
0
LINE
8
BLACK
6
CONTINUOUS
10
147.0939799999999877
20
-171.7790530000000047
11
146.9035039999999981
21
-172.0647669999999891
0
LINE
8
BLACK
6
CONTINUOUS
10
146.9035039999999981
20
-172.0647669999999891
11
146.71302799999998
21
-172.2552429999999788
0
LINE
8
BLACK
6
CONTINUOUS
10
146.71302799999998
20
-172.2552429999999788
11
146.5225519999999904
21
-172.350481000000002
0
LINE
8
BLACK
6
CONTINUOUS
10
148.5225519999999904
20
-173.5885759999999891
11
148.6177899999999852
21
-173.6838149999999814
0
LINE
8
BLACK
6
CONTINUOUS
10
148.6177899999999852
20
-173.6838149999999814
11
148.5225519999999904
21
-173.7790530000000047
0
LINE
8
BLACK
6
CONTINUOUS
10
148.5225519999999904
20
-173.7790530000000047
11
148.4273139999999955
21
-173.6838149999999814
0
LINE
8
BLACK
6
CONTINUOUS
10
148.4273139999999955
20
-173.6838149999999814
11
148.5225519999999904
21
-173.5885759999999891
0
LINE
8
BLACK
6
CONTINUOUS
10
148.5225519999999904
20
-173.5885759999999891
11
148.5225519999999904
21
-173.7790530000000047
0
LINE
8
BLACK
6
CONTINUOUS
10
149.2844570000000033
20
-171.7790530000000047
11
150.6177899999999852
21
-171.7790530000000047
0
LINE
8
BLACK
6
CONTINUOUS
10
150.6177899999999852
20
-171.7790530000000047
11
149.7606470000000058
21
-173.7790530000000047
0
LINE
8
BLACK
6
CONTINUOUS
10
152.3320760000000007
20
-171.7790530000000047
11
151.3796949999999981
21
-171.7790530000000047
0
LINE
8
BLACK
6
CONTINUOUS
10
151.3796949999999981
20
-171.7790530000000047
11
151.2844570000000033
21
-172.7314339999999788
0
LINE
8
BLACK
6
CONTINUOUS
10
151.2844570000000033
20
-172.7314339999999788
11
151.3796949999999981
21
-172.6361949999999865
0
LINE
8
BLACK
6
CONTINUOUS
10
151.3796949999999981
20
-172.6361949999999865
11
151.5701709999999878
21
-172.5409569999999917
0
LINE
8
BLACK
6
CONTINUOUS
10
151.5701709999999878
20
-172.5409569999999917
11
152.0463619999999878
21
-172.5409569999999917
0
LINE
8
BLACK
6
CONTINUOUS
10
152.0463619999999878
20
-172.5409569999999917
11
152.2368380000000059
21
-172.6361949999999865
0
LINE
8
BLACK
6
CONTINUOUS
10
152.2368380000000059
20
-172.6361949999999865
11
152.3320760000000007
21
-172.7314339999999788
0
LINE
8
BLACK
6
CONTINUOUS
10
152.3320760000000007
20
-172.7314339999999788
11
152.4273139999999955
21
-172.9219099999999969
0
LINE
8
BLACK
6
CONTINUOUS
10
152.4273139999999955
20
-172.9219099999999969
11
152.4273139999999955
21
-173.3980999999999995
0
LINE
8
BLACK
6
CONTINUOUS
10
152.4273139999999955
20
-173.3980999999999995
11
152.3320760000000007
21
-173.5885759999999891
0
LINE
8
BLACK
6
CONTINUOUS
10
152.3320760000000007
20
-173.5885759999999891
11
152.2368380000000059
21
-173.6838149999999814
0
LINE
8
BLACK
6
CONTINUOUS
10
152.2368380000000059
20
-173.6838149999999814
11
152.0463619999999878
21
-173.7790530000000047
0
LINE
8
BLACK
6
CONTINUOUS
10
152.0463619999999878
20
-173.7790530000000047
11
151.5701709999999878
21
-173.7790530000000047
0
LINE
8
BLACK
6
CONTINUOUS
10
151.5701709999999878
20
-173.7790530000000047
11
151.3796949999999981
21
-173.6838149999999814
0
LINE
8
BLACK
6
CONTINUOUS
10
151.3796949999999981
20
-173.6838149999999814
11
151.2844570000000033
21
-173.5885759999999891
0
LINE
8
BLACK
6
CONTINUOUS
10
153.6654089999999826
20
-171.7790530000000047
11
153.8558859999999981
21
-171.7790530000000047
0
LINE
8
BLACK
6
CONTINUOUS
10
153.8558859999999981
20
-171.7790530000000047
11
154.0463619999999878
21
-171.8742909999999995
0
LINE
8
BLACK
6
CONTINUOUS
10
154.0463619999999878
20
-171.8742909999999995
11
154.1415999999999826
21
-171.9695289999999943
0
LINE
8
BLACK
6
CONTINUOUS
10
154.1415999999999826
20
-171.9695289999999943
11
154.2368380000000059
21
-172.160004999999984
0
LINE
8
BLACK
6
CONTINUOUS
10
154.2368380000000059
20
-172.160004999999984
11
154.3320760000000007
21
-172.5409569999999917
0
LINE
8
BLACK
6
CONTINUOUS
10
154.3320760000000007
20
-172.5409569999999917
11
154.3320760000000007
21
-173.0171479999999917
0
LINE
8
BLACK
6
CONTINUOUS
10
154.3320760000000007
20
-173.0171479999999917
11
154.2368380000000059
21
-173.3980999999999995
0
LINE
8
BLACK
6
CONTINUOUS
10
154.2368380000000059
20
-173.3980999999999995
11
154.1415999999999826
21
-173.5885759999999891
0
LINE
8
BLACK
6
CONTINUOUS
10
154.1415999999999826
20
-173.5885759999999891
11
154.0463619999999878
21
-173.6838149999999814
0
LINE
8
BLACK
6
CONTINUOUS
10
154.0463619999999878
20
-173.6838149999999814
11
153.8558859999999981
21
-173.7790530000000047
0
LINE
8
BLACK
6
CONTINUOUS
10
153.8558859999999981
20
-173.7790530000000047
11
153.6654089999999826
21
-173.7790530000000047
0
LINE
8
BLACK
6
CONTINUOUS
10
153.6654089999999826
20
-173.7790530000000047
11
153.4749329999999929
21
-173.6838149999999814
0
LINE
8
BLACK
6
CONTINUOUS
10
153.4749329999999929
20
-173.6838149999999814
11
153.3796949999999981
21
-173.5885759999999891
0
LINE
8
BLACK
6
CONTINUOUS
10
153.3796949999999981
20
-173.5885759999999891
11
153.2844570000000033
21
-173.3980999999999995
0
LINE
8
BLACK
6
CONTINUOUS
10
153.2844570000000033
20
-173.3980999999999995
11
153.18921899999998
21
-173.0171479999999917
0
LINE
8
BLACK
6
CONTINUOUS
10
153.18921899999998
20
-173.0171479999999917
11
153.18921899999998
21
-172.5409569999999917
0
LINE
8
BLACK
6
CONTINUOUS
10
153.18921899999998
20
-172.5409569999999917
11
153.2844570000000033
21
-172.160004999999984
0
LINE
8
BLACK
6
CONTINUOUS
10
153.2844570000000033
20
-172.160004999999984
11
153.3796949999999981
21
-171.9695289999999943
0
LINE
8
BLACK
6
CONTINUOUS
10
153.3796949999999981
20
-171.9695289999999943
11
153.4749329999999929
21
-171.8742909999999995
0
LINE
8
BLACK
6
CONTINUOUS
10
153.4749329999999929
20
-171.8742909999999995
11
153.6654089999999826
21
-171.7790530000000047
0
LINE
8
BLACK
6
CONTINUOUS
10
155.18921899999998
20
-173.7790530000000047
11
155.18921899999998
21
-172.4457189999999969
0
LINE
8
BLACK
6
CONTINUOUS
10
155.18921899999998
20
-172.6361949999999865
11
155.2844570000000033
21
-172.5409569999999917
0
LINE
8
BLACK
6
CONTINUOUS
10
155.2844570000000033
20
-172.5409569999999917
11
155.4749329999999929
21
-172.4457189999999969
0
LINE
8
BLACK
6
CONTINUOUS
10
155.4749329999999929
20
-172.4457189999999969
11
155.7606480000000033
21
-172.4457189999999969
0
LINE
8
BLACK
6
CONTINUOUS
10
155.7606480000000033
20
-172.4457189999999969
11
155.951123999999993
21
-172.5409569999999917
0
LINE
8
BLACK
6
CONTINUOUS
10
155.951123999999993
20
-172.5409569999999917
11
156.0463619999999878
21
-172.7314339999999788
0
LINE
8
BLACK
6
CONTINUOUS
10
156.0463619999999878
20
-172.7314339999999788
11
156.0463619999999878
21
-173.7790530000000047
0
LINE
8
BLACK
6
CONTINUOUS
10
156.0463619999999878
20
-172.7314339999999788
11
156.1415999999999826
21
-172.5409569999999917
0
LINE
8
BLACK
6
CONTINUOUS
10
156.1415999999999826
20
-172.5409569999999917
11
156.3320760000000007
21
-172.4457189999999969
0
LINE
8
BLACK
6
CONTINUOUS
10
156.3320760000000007
20
-172.4457189999999969
11
156.6177899999999852
21
-172.4457189999999969
0
LINE
8
BLACK
6
CONTINUOUS
10
156.6177899999999852
20
-172.4457189999999969
11
156.8082670000000007
21
-172.5409569999999917
0
LINE
8
BLACK
6
CONTINUOUS
10
156.8082670000000007
20
-172.5409569999999917
11
156.9035049999999956
21
-172.7314339999999788
0
LINE
8
BLACK
6
CONTINUOUS
10
156.9035049999999956
20
-172.7314339999999788
11
156.9035049999999956
21
-173.7790530000000047
0
LINE
8
BLACK
6
CONTINUOUS
10
157.8558859999999981
20
-173.7790530000000047
11
157.8558859999999981
21
-172.4457189999999969
0
LINE
8
BLACK
6
CONTINUOUS
10
157.8558859999999981
20
-172.6361949999999865
11
157.951123999999993
21
-172.5409569999999917
0
LINE
8
BLACK
6
CONTINUOUS
10
157.951123999999993
20
-172.5409569999999917
11
158.1415999999999826
21
-172.4457189999999969
0
LINE
8
BLACK
6
CONTINUOUS
10
158.1415999999999826
20
-172.4457189999999969
11
158.427314999999993
21
-172.4457189999999969
0
LINE
8
BLACK
6
CONTINUOUS
10
158.427314999999993
20
-172.4457189999999969
11
158.6177909999999827
21
-172.5409569999999917
0
LINE
8
BLACK
6
CONTINUOUS
10
158.6177909999999827
20
-172.5409569999999917
11
158.7130290000000059
21
-172.7314339999999788
0
LINE
8
BLACK
6
CONTINUOUS
10
158.7130290000000059
20
-172.7314339999999788
11
158.7130290000000059
21
-173.7790530000000047
0
LINE
8
BLACK
6
CONTINUOUS
10
158.7130290000000059
20
-172.7314339999999788
11
158.8082670000000007
21
-172.5409569999999917
0
LINE
8
BLACK
6
CONTINUOUS
10
158.8082670000000007
20
-172.5409569999999917
11
158.9987429999999904
21
-172.4457189999999969
0
LINE
8
BLACK
6
CONTINUOUS
10
158.9987429999999904
20
-172.4457189999999969
11
159.2844570000000033
21
-172.4457189999999969
0
LINE
8
BLACK
6
CONTINUOUS
10
159.2844570000000033
20
-172.4457189999999969
11
159.4749339999999904
21
-172.5409569999999917
0
LINE
8
BLACK
6
CONTINUOUS
10
159.4749339999999904
20
-172.5409569999999917
11
159.5701719999999852
21
-172.7314339999999788
0
LINE
8
BLACK
6
CONTINUOUS
10
159.5701719999999852
20
-172.7314339999999788
11
159.5701719999999852
21
-173.7790530000000047
0
LINE
8
BLACK
6
CONTINUOUS
10
163.4749339999999904
20
-171.6838149999999814
11
161.7606490000000008
21
-174.2552429999999788
0
LINE
8
BLACK
6
CONTINUOUS
10
166.0463629999999853
20
-171.7790530000000047
11
166.2368400000000008
21
-171.7790530000000047
0
LINE
8
BLACK
6
CONTINUOUS
10
166.2368400000000008
20
-171.7790530000000047
11
166.4273159999999905
21
-171.8742909999999995
0
LINE
8
BLACK
6
CONTINUOUS
10
166.4273159999999905
20
-171.8742909999999995
11
166.5225539999999853
21
-171.9695289999999943
0
LINE
8
BLACK
6
CONTINUOUS
10
166.5225539999999853
20
-171.9695289999999943
11
166.6177919999999801
21
-172.160004999999984
0
LINE
8
BLACK
6
CONTINUOUS
10
166.6177919999999801
20
-172.160004999999984
11
166.7130300000000034
21
-172.5409569999999917
0
LINE
8
BLACK
6
CONTINUOUS
10
166.7130300000000034
20
-172.5409569999999917
11
166.7130300000000034
21
-173.0171479999999917
0
LINE
8
BLACK
6
CONTINUOUS
10
166.7130300000000034
20
-173.0171479999999917
11
166.6177919999999801
21
-173.3980999999999995
0
LINE
8
BLACK
6
CONTINUOUS
10
166.6177919999999801
20
-173.3980999999999995
11
166.5225539999999853
21
-173.5885759999999891
0
LINE
8
BLACK
6
CONTINUOUS
10
166.5225539999999853
20
-173.5885759999999891
11
166.4273159999999905
21
-173.6838149999999814
0
LINE
8
BLACK
6
CONTINUOUS
10
166.4273159999999905
20
-173.6838149999999814
11
166.2368400000000008
21
-173.7790530000000047
0
LINE
8
BLACK
6
CONTINUOUS
10
166.2368400000000008
20
-173.7790530000000047
11
166.0463629999999853
21
-173.7790530000000047
0
LINE
8
BLACK
6
CONTINUOUS
10
166.0463629999999853
20
-173.7790530000000047
11
165.8558869999999956
21
-173.6838149999999814
0
LINE
8
BLACK
6
CONTINUOUS
10
165.8558869999999956
20
-173.6838149999999814
11
165.7606490000000008
21
-173.5885759999999891
0
LINE
8
BLACK
6
CONTINUOUS
10
165.7606490000000008
20
-173.5885759999999891
11
165.665411000000006
21
-173.3980999999999995
0
LINE
8
BLACK
6
CONTINUOUS
10
165.665411000000006
20
-173.3980999999999995
11
165.5701729999999827
21
-173.0171479999999917
0
LINE
8
BLACK
6
CONTINUOUS
10
165.5701729999999827
20
-173.0171479999999917
11
165.5701729999999827
21
-172.5409569999999917
0
LINE
8
BLACK
6
CONTINUOUS
10
165.5701729999999827
20
-172.5409569999999917
11
165.665411000000006
21
-172.160004999999984
0
LINE
8
BLACK
6
CONTINUOUS
10
165.665411000000006
20
-172.160004999999984
11
165.7606490000000008
21
-171.9695289999999943
0
LINE
8
BLACK
6
CONTINUOUS
10
165.7606490000000008
20
-171.9695289999999943
11
165.8558869999999956
21
-171.8742909999999995
0
LINE
8
BLACK
6
CONTINUOUS
10
165.8558869999999956
20
-171.8742909999999995
11
166.0463629999999853
21
-171.7790530000000047
0
LINE
8
BLACK
6
CONTINUOUS
10
167.5701729999999827
20
-173.5885759999999891
11
167.665411000000006
21
-173.6838149999999814
0
LINE
8
BLACK
6
CONTINUOUS
10
167.665411000000006
20
-173.6838149999999814
11
167.5701729999999827
21
-173.7790530000000047
0
LINE
8
BLACK
6
CONTINUOUS
10
167.5701729999999827
20
-173.7790530000000047
11
167.4749349999999879
21
-173.6838149999999814
0
LINE
8
BLACK
6
CONTINUOUS
10
167.4749349999999879
20
-173.6838149999999814
11
167.5701729999999827
21
-173.5885759999999891
0
LINE
8
BLACK
6
CONTINUOUS
10
167.5701729999999827
20
-173.5885759999999891
11
167.5701729999999827
21
-173.7790530000000047
0
LINE
8
BLACK
6
CONTINUOUS
10
168.903505999999993
20
-171.7790530000000047
11
169.0939829999999802
21
-171.7790530000000047
0
LINE
8
BLACK
6
CONTINUOUS
10
169.0939829999999802
20
-171.7790530000000047
11
169.2844589999999982
21
-171.8742909999999995
0
LINE
8
BLACK
6
CONTINUOUS
10
169.2844589999999982
20
-171.8742909999999995
11
169.3796969999999931
21
-171.9695289999999943
0
LINE
8
BLACK
6
CONTINUOUS
10
169.3796969999999931
20
-171.9695289999999943
11
169.4749349999999879
21
-172.160004999999984
0
LINE
8
BLACK
6
CONTINUOUS
10
169.4749349999999879
20
-172.160004999999984
11
169.5701729999999827
21
-172.5409569999999917
0
LINE
8
BLACK
6
CONTINUOUS
10
169.5701729999999827
20
-172.5409569999999917
11
169.5701729999999827
21
-173.0171479999999917
0
LINE
8
BLACK
6
CONTINUOUS
10
169.5701729999999827
20
-173.0171479999999917
11
169.4749349999999879
21
-173.3980999999999995
0
LINE
8
BLACK
6
CONTINUOUS
10
169.4749349999999879
20
-173.3980999999999995
11
169.3796969999999931
21
-173.5885759999999891
0
LINE
8
BLACK
6
CONTINUOUS
10
169.3796969999999931
20
-173.5885759999999891
11
169.2844589999999982
21
-173.6838149999999814
0
LINE
8
BLACK
6
CONTINUOUS
10
169.2844589999999982
20
-173.6838149999999814
11
169.0939829999999802
21
-173.7790530000000047
0
LINE
8
BLACK
6
CONTINUOUS
10
169.0939829999999802
20
-173.7790530000000047
11
168.903505999999993
21
-173.7790530000000047
0
LINE
8
BLACK
6
CONTINUOUS
10
168.903505999999993
20
-173.7790530000000047
11
168.7130300000000034
21
-173.6838149999999814
0
LINE
8
BLACK
6
CONTINUOUS
10
168.7130300000000034
20
-173.6838149999999814
11
168.6177919999999801
21
-173.5885759999999891
0
LINE
8
BLACK
6
CONTINUOUS
10
168.6177919999999801
20
-173.5885759999999891
11
168.5225539999999853
21
-173.3980999999999995
0
LINE
8
BLACK
6
CONTINUOUS
10
168.5225539999999853
20
-173.3980999999999995
11
168.4273159999999905
21
-173.0171479999999917
0
LINE
8
BLACK
6
CONTINUOUS
10
168.4273159999999905
20
-173.0171479999999917
11
168.4273159999999905
21
-172.5409569999999917
0
LINE
8
BLACK
6
CONTINUOUS
10
168.4273159999999905
20
-172.5409569999999917
11
168.5225539999999853
21
-172.160004999999984
0
LINE
8
BLACK
6
CONTINUOUS
10
168.5225539999999853
20
-172.160004999999984
11
168.6177919999999801
21
-171.9695289999999943
0
LINE
8
BLACK
6
CONTINUOUS
10
168.6177919999999801
20
-171.9695289999999943
11
168.7130300000000034
21
-171.8742909999999995
0
LINE
8
BLACK
6
CONTINUOUS
10
168.7130300000000034
20
-171.8742909999999995
11
168.903505999999993
21
-171.7790530000000047
0
LINE
8
BLACK
6
CONTINUOUS
10
171.2844589999999982
20
-171.7790530000000047
11
170.903505999999993
21
-171.7790530000000047
0
LINE
8
BLACK
6
CONTINUOUS
10
170.903505999999993
20
-171.7790530000000047
11
170.7130300000000034
21
-171.8742909999999995
0
LINE
8
BLACK
6
CONTINUOUS
10
170.7130300000000034
20
-171.8742909999999995
11
170.6177919999999801
21
-171.9695289999999943
0
LINE
8
BLACK
6
CONTINUOUS
10
170.6177919999999801
20
-171.9695289999999943
11
170.4273159999999905
21
-172.2552429999999788
0
LINE
8
BLACK
6
CONTINUOUS
10
170.4273159999999905
20
-172.2552429999999788
11
170.3320779999999957
21
-172.6361949999999865
0
LINE
8
BLACK
6
CONTINUOUS
10
170.3320779999999957
20
-172.6361949999999865
11
170.3320779999999957
21
-173.3980999999999995
0
LINE
8
BLACK
6
CONTINUOUS
10
170.3320779999999957
20
-173.3980999999999995
11
170.4273159999999905
21
-173.5885759999999891
0
LINE
8
BLACK
6
CONTINUOUS
10
170.4273159999999905
20
-173.5885759999999891
11
170.5225539999999853
21
-173.6838149999999814
0
LINE
8
BLACK
6
CONTINUOUS
10
170.5225539999999853
20
-173.6838149999999814
11
170.7130300000000034
21
-173.7790530000000047
0
LINE
8
BLACK
6
CONTINUOUS
10
170.7130300000000034
20
-173.7790530000000047
11
171.0939829999999802
21
-173.7790530000000047
0
LINE
8
BLACK
6
CONTINUOUS
10
171.0939829999999802
20
-173.7790530000000047
11
171.2844589999999982
21
-173.6838149999999814
0
LINE
8
BLACK
6
CONTINUOUS
10
171.2844589999999982
20
-173.6838149999999814
11
171.3796969999999931
21
-173.5885759999999891
0
LINE
8
BLACK
6
CONTINUOUS
10
171.3796969999999931
20
-173.5885759999999891
11
171.4749349999999879
21
-173.3980999999999995
0
LINE
8
BLACK
6
CONTINUOUS
10
171.4749349999999879
20
-173.3980999999999995
11
171.4749349999999879
21
-172.9219099999999969
0
LINE
8
BLACK
6
CONTINUOUS
10
171.4749349999999879
20
-172.9219099999999969
11
171.3796969999999931
21
-172.7314339999999788
0
LINE
8
BLACK
6
CONTINUOUS
10
171.3796969999999931
20
-172.7314339999999788
11
171.2844589999999982
21
-172.6361949999999865
0
LINE
8
BLACK
6
CONTINUOUS
10
171.2844589999999982
20
-172.6361949999999865
11
171.0939829999999802
21
-172.5409569999999917
0
LINE
8
BLACK
6
CONTINUOUS
10
171.0939829999999802
20
-172.5409569999999917
11
170.7130300000000034
21
-172.5409569999999917
0
LINE
8
BLACK
6
CONTINUOUS
10
170.7130300000000034
20
-172.5409569999999917
11
170.5225539999999853
21
-172.6361949999999865
0
LINE
8
BLACK
6
CONTINUOUS
10
170.5225539999999853
20
-172.6361949999999865
11
170.4273159999999905
21
-172.7314339999999788
0
LINE
8
BLACK
6
CONTINUOUS
10
170.4273159999999905
20
-172.7314339999999788
11
170.3320779999999957
21
-172.9219099999999969
0
LINE
8
BLACK
6
CONTINUOUS
10
172.6177919999999801
20
-172.6361949999999865
11
172.4273159999999905
21
-172.5409569999999917
0
LINE
8
BLACK
6
CONTINUOUS
10
172.4273159999999905
20
-172.5409569999999917
11
172.3320779999999957
21
-172.4457189999999969
0
LINE
8
BLACK
6
CONTINUOUS
10
172.3320779999999957
20
-172.4457189999999969
11
172.2368400000000008
21
-172.2552429999999788
0
LINE
8
BLACK
6
CONTINUOUS
10
172.2368400000000008
20
-172.2552429999999788
11
172.2368400000000008
21
-172.160004999999984
0
LINE
8
BLACK
6
CONTINUOUS
10
172.2368400000000008
20
-172.160004999999984
11
172.3320779999999957
21
-171.9695289999999943
0
LINE
8
BLACK
6
CONTINUOUS
10
172.3320779999999957
20
-171.9695289999999943
11
172.4273159999999905
21
-171.8742909999999995
0
LINE
8
BLACK
6
CONTINUOUS
10
172.4273159999999905
20
-171.8742909999999995
11
172.6177919999999801
21
-171.7790530000000047
0
LINE
8
BLACK
6
CONTINUOUS
10
172.6177919999999801
20
-171.7790530000000047
11
172.9987449999999853
21
-171.7790530000000047
0
LINE
8
BLACK
6
CONTINUOUS
10
172.9987449999999853
20
-171.7790530000000047
11
173.1892210000000034
21
-171.8742909999999995
0
LINE
8
BLACK
6
CONTINUOUS
10
173.1892210000000034
20
-171.8742909999999995
11
173.2844589999999982
21
-171.9695289999999943
0
LINE
8
BLACK
6
CONTINUOUS
10
173.2844589999999982
20
-171.9695289999999943
11
173.3796969999999931
21
-172.160004999999984
0
LINE
8
BLACK
6
CONTINUOUS
10
173.3796969999999931
20
-172.160004999999984
11
173.3796969999999931
21
-172.2552429999999788
0
LINE
8
BLACK
6
CONTINUOUS
10
173.3796969999999931
20
-172.2552429999999788
11
173.2844589999999982
21
-172.4457189999999969
0
LINE
8
BLACK
6
CONTINUOUS
10
173.2844589999999982
20
-172.4457189999999969
11
173.1892210000000034
21
-172.5409569999999917
0
LINE
8
BLACK
6
CONTINUOUS
10
173.1892210000000034
20
-172.5409569999999917
11
172.9987449999999853
21
-172.6361949999999865
0
LINE
8
BLACK
6
CONTINUOUS
10
172.9987449999999853
20
-172.6361949999999865
11
172.6177919999999801
21
-172.6361949999999865
0
LINE
8
BLACK
6
CONTINUOUS
10
172.6177919999999801
20
-172.6361949999999865
11
172.4273159999999905
21
-172.7314339999999788
0
LINE
8
BLACK
6
CONTINUOUS
10
172.4273159999999905
20
-172.7314339999999788
11
172.3320779999999957
21
-172.8266720000000021
0
LINE
8
BLACK
6
CONTINUOUS
10
172.3320779999999957
20
-172.8266720000000021
11
172.2368400000000008
21
-173.0171479999999917
0
LINE
8
BLACK
6
CONTINUOUS
10
172.2368400000000008
20
-173.0171479999999917
11
172.2368400000000008
21
-173.3980999999999995
0
LINE
8
BLACK
6
CONTINUOUS
10
172.2368400000000008
20
-173.3980999999999995
11
172.3320779999999957
21
-173.5885759999999891
0
LINE
8
BLACK
6
CONTINUOUS
10
172.3320779999999957
20
-173.5885759999999891
11
172.4273159999999905
21
-173.6838149999999814
0
LINE
8
BLACK
6
CONTINUOUS
10
172.4273159999999905
20
-173.6838149999999814
11
172.6177919999999801
21
-173.7790530000000047
0
LINE
8
BLACK
6
CONTINUOUS
10
172.6177919999999801
20
-173.7790530000000047
11
172.9987449999999853
21
-173.7790530000000047
0
LINE
8
BLACK
6
CONTINUOUS
10
172.9987449999999853
20
-173.7790530000000047
11
173.1892210000000034
21
-173.6838149999999814
0
LINE
8
BLACK
6
CONTINUOUS
10
173.1892210000000034
20
-173.6838149999999814
11
173.2844589999999982
21
-173.5885759999999891
0
LINE
8
BLACK
6
CONTINUOUS
10
173.2844589999999982
20
-173.5885759999999891
11
173.3796969999999931
21
-173.3980999999999995
0
LINE
8
BLACK
6
CONTINUOUS
10
173.3796969999999931
20
-173.3980999999999995
11
173.3796969999999931
21
-173.0171479999999917
0
LINE
8
BLACK
6
CONTINUOUS
10
173.3796969999999931
20
-173.0171479999999917
11
173.2844589999999982
21
-172.8266720000000021
0
LINE
8
BLACK
6
CONTINUOUS
10
173.2844589999999982
20
-172.8266720000000021
11
173.1892210000000034
21
-172.7314339999999788
0
LINE
8
BLACK
6
CONTINUOUS
10
173.1892210000000034
20
-172.7314339999999788
11
172.9987449999999853
21
-172.6361949999999865
0
LINE
8
BLACK
6
CONTINUOUS
10
174.3320779999999957
20
-173.7790530000000047
11
174.7130300000000034
21
-173.7790530000000047
0
LINE
8
BLACK
6
CONTINUOUS
10
174.7130300000000034
20
-173.7790530000000047
11
174.9035069999999905
21
-173.6838149999999814
0
LINE
8
BLACK
6
CONTINUOUS
10
174.9035069999999905
20
-173.6838149999999814
11
174.9987449999999853
21
-173.5885759999999891
0
LINE
8
BLACK
6
CONTINUOUS
10
174.9987449999999853
20
-173.5885759999999891
11
175.1892210000000034
21
-173.3028620000000046
0
LINE
8
BLACK
6
CONTINUOUS
10
175.1892210000000034
20
-173.3028620000000046
11
175.2844589999999982
21
-172.9219099999999969
0
LINE
8
BLACK
6
CONTINUOUS
10
175.2844589999999982
20
-172.9219099999999969
11
175.2844589999999982
21
-172.160004999999984
0
LINE
8
BLACK
6
CONTINUOUS
10
175.2844589999999982
20
-172.160004999999984
11
175.1892210000000034
21
-171.9695289999999943
0
LINE
8
BLACK
6
CONTINUOUS
10
175.1892210000000034
20
-171.9695289999999943
11
175.0939829999999802
21
-171.8742909999999995
0
LINE
8
BLACK
6
CONTINUOUS
10
175.0939829999999802
20
-171.8742909999999995
11
174.9035069999999905
21
-171.7790530000000047
0
LINE
8
BLACK
6
CONTINUOUS
10
174.9035069999999905
20
-171.7790530000000047
11
174.5225539999999853
21
-171.7790530000000047
0
LINE
8
BLACK
6
CONTINUOUS
10
174.5225539999999853
20
-171.7790530000000047
11
174.3320779999999957
21
-171.8742909999999995
0
LINE
8
BLACK
6
CONTINUOUS
10
174.3320779999999957
20
-171.8742909999999995
11
174.2368400000000008
21
-171.9695289999999943
0
LINE
8
BLACK
6
CONTINUOUS
10
174.2368400000000008
20
-171.9695289999999943
11
174.141602000000006
21
-172.160004999999984
0
LINE
8
BLACK
6
CONTINUOUS
10
174.141602000000006
20
-172.160004999999984
11
174.141602000000006
21
-172.6361949999999865
0
LINE
8
BLACK
6
CONTINUOUS
10
174.141602000000006
20
-172.6361949999999865
11
174.2368400000000008
21
-172.8266720000000021
0
LINE
8
BLACK
6
CONTINUOUS
10
174.2368400000000008
20
-172.8266720000000021
11
174.3320779999999957
21
-172.9219099999999969
0
LINE
8
BLACK
6
CONTINUOUS
10
174.3320779999999957
20
-172.9219099999999969
11
174.5225539999999853
21
-173.0171479999999917
0
LINE
8
BLACK
6
CONTINUOUS
10
174.5225539999999853
20
-173.0171479999999917
11
174.9035069999999905
21
-173.0171479999999917
0
LINE
8
BLACK
6
CONTINUOUS
10
174.9035069999999905
20
-173.0171479999999917
11
175.0939829999999802
21
-172.9219099999999969
0
LINE
8
BLACK
6
CONTINUOUS
10
175.0939829999999802
20
-172.9219099999999969
11
175.1892210000000034
21
-172.8266720000000021
0
LINE
8
BLACK
6
CONTINUOUS
10
175.1892210000000034
20
-172.8266720000000021
11
175.2844589999999982
21
-172.6361949999999865
0
LINE
8
BLACK
6
CONTINUOUS
10
176.0463639999999828
20
-171.7790530000000047
11
176.0463639999999828
21
-172.160004999999984
0
LINE
8
BLACK
6
CONTINUOUS
10
176.8082689999999957
20
-171.7790530000000047
11
176.8082689999999957
21
-172.160004999999984
0
LINE
8
BLACK
6
CONTINUOUS
10
179.7606509999999957
20
-174.5409569999999917
11
179.6654120000000034
21
-174.4457189999999969
0
LINE
8
BLACK
6
CONTINUOUS
10
179.6654120000000034
20
-174.4457189999999969
11
179.4749359999999854
21
-174.160004999999984
0
LINE
8
BLACK
6
CONTINUOUS
10
179.4749359999999854
20
-174.160004999999984
11
179.3796979999999905
21
-173.9695289999999943
0
LINE
8
BLACK
6
CONTINUOUS
10
179.3796979999999905
20
-173.9695289999999943
11
179.2844599999999957
21
-173.6838149999999814
0
LINE
8
BLACK
6
CONTINUOUS
10
179.2844599999999957
20
-173.6838149999999814
11
179.1892220000000009
21
-173.2076239999999814
0
LINE
8
BLACK
6
CONTINUOUS
10
179.1892220000000009
20
-173.2076239999999814
11
179.1892220000000009
21
-172.8266720000000021
0
LINE
8
BLACK
6
CONTINUOUS
10
179.1892220000000009
20
-172.8266720000000021
11
179.2844599999999957
21
-172.350481000000002
0
LINE
8
BLACK
6
CONTINUOUS
10
179.2844599999999957
20
-172.350481000000002
11
179.3796979999999905
21
-172.0647669999999891
0
LINE
8
BLACK
6
CONTINUOUS
10
179.3796979999999905
20
-172.0647669999999891
11
179.4749359999999854
21
-171.8742909999999995
0
LINE
8
BLACK
6
CONTINUOUS
10
179.4749359999999854
20
-171.8742909999999995
11
179.6654120000000034
21
-171.5885759999999891
0
LINE
8
BLACK
6
CONTINUOUS
10
179.6654120000000034
20
-171.5885759999999891
11
179.7606509999999957
21
-171.4933379999999943
0
LINE
8
BLACK
6
CONTINUOUS
10
180.427316999999988
20
-171.9695289999999943
11
180.5225549999999828
21
-171.8742909999999995
0
LINE
8
BLACK
6
CONTINUOUS
10
180.5225549999999828
20
-171.8742909999999995
11
180.7130310000000009
21
-171.7790530000000047
0
LINE
8
BLACK
6
CONTINUOUS
10
180.7130310000000009
20
-171.7790530000000047
11
181.1892220000000009
21
-171.7790530000000047
0
LINE
8
BLACK
6
CONTINUOUS
10
181.1892220000000009
20
-171.7790530000000047
11
181.3796979999999905
21
-171.8742909999999995
0
LINE
8
BLACK
6
CONTINUOUS
10
181.3796979999999905
20
-171.8742909999999995
11
181.4749359999999854
21
-171.9695289999999943
0
LINE
8
BLACK
6
CONTINUOUS
10
181.4749359999999854
20
-171.9695289999999943
11
181.5701739999999802
21
-172.160004999999984
0
LINE
8
BLACK
6
CONTINUOUS
10
181.5701739999999802
20
-172.160004999999984
11
181.5701739999999802
21
-172.350481000000002
0
LINE
8
BLACK
6
CONTINUOUS
10
181.5701739999999802
20
-172.350481000000002
11
181.4749359999999854
21
-172.6361949999999865
0
LINE
8
BLACK
6
CONTINUOUS
10
181.4749359999999854
20
-172.6361949999999865
11
180.3320789999999931
21
-173.7790530000000047
0
LINE
8
BLACK
6
CONTINUOUS
10
180.3320789999999931
20
-173.7790530000000047
11
181.5701739999999802
21
-173.7790530000000047
0
LINE
8
BLACK
6
CONTINUOUS
10
183.9511269999999854
20
-173.7790530000000047
11
183.9511269999999854
21
-171.7790530000000047
0
LINE
8
BLACK
6
CONTINUOUS
10
184.8082699999999932
20
-173.7790530000000047
11
184.8082699999999932
21
-172.7314339999999788
0
LINE
8
BLACK
6
CONTINUOUS
10
184.8082699999999932
20
-172.7314339999999788
11
184.7130319999999983
21
-172.5409569999999917
0
LINE
8
BLACK
6
CONTINUOUS
10
184.7130319999999983
20
-172.5409569999999917
11
184.5225559999999803
21
-172.4457189999999969
0
LINE
8
BLACK
6
CONTINUOUS
10
184.5225559999999803
20
-172.4457189999999969
11
184.2368409999999983
21
-172.4457189999999969
0
LINE
8
BLACK
6
CONTINUOUS
10
184.2368409999999983
20
-172.4457189999999969
11
184.0463649999999802
21
-172.5409569999999917
0
LINE
8
BLACK
6
CONTINUOUS
10
184.0463649999999802
20
-172.5409569999999917
11
183.9511269999999854
21
-172.6361949999999865
0
LINE
8
BLACK
6
CONTINUOUS
10
186.0463649999999802
20
-173.7790530000000047
11
185.8558889999999906
21
-173.6838149999999814
0
LINE
8
BLACK
6
CONTINUOUS
10
185.8558889999999906
20
-173.6838149999999814
11
185.7606509999999957
21
-173.5885759999999891
0
LINE
8
BLACK
6
CONTINUOUS
10
185.7606509999999957
20
-173.5885759999999891
11
185.6654130000000009
21
-173.3980999999999995
0
LINE
8
BLACK
6
CONTINUOUS
10
185.6654130000000009
20
-173.3980999999999995
11
185.6654130000000009
21
-172.8266720000000021
0
LINE
8
BLACK
6
CONTINUOUS
10
185.6654130000000009
20
-172.8266720000000021
11
185.7606509999999957
21
-172.6361949999999865
0
LINE
8
BLACK
6
CONTINUOUS
10
185.7606509999999957
20
-172.6361949999999865
11
185.8558889999999906
21
-172.5409569999999917
0
LINE
8
BLACK
6
CONTINUOUS
10
185.8558889999999906
20
-172.5409569999999917
11
186.0463649999999802
21
-172.4457189999999969
0
LINE
8
BLACK
6
CONTINUOUS
10
186.0463649999999802
20
-172.4457189999999969
11
186.3320799999999906
21
-172.4457189999999969
0
LINE
8
BLACK
6
CONTINUOUS
10
186.3320799999999906
20
-172.4457189999999969
11
186.5225559999999803
21
-172.5409569999999917
0
LINE
8
BLACK
6
CONTINUOUS
10
186.5225559999999803
20
-172.5409569999999917
11
186.6177940000000035
21
-172.6361949999999865
0
LINE
8
BLACK
6
CONTINUOUS
10
186.6177940000000035
20
-172.6361949999999865
11
186.7130319999999983
21
-172.8266720000000021
0
LINE
8
BLACK
6
CONTINUOUS
10
186.7130319999999983
20
-172.8266720000000021
11
186.7130319999999983
21
-173.3980999999999995
0
LINE
8
BLACK
6
CONTINUOUS
10
186.7130319999999983
20
-173.3980999999999995
11
186.6177940000000035
21
-173.5885759999999891
0
LINE
8
BLACK
6
CONTINUOUS
10
186.6177940000000035
20
-173.5885759999999891
11
186.5225559999999803
21
-173.6838149999999814
0
LINE
8
BLACK
6
CONTINUOUS
10
186.5225559999999803
20
-173.6838149999999814
11
186.3320799999999906
21
-173.7790530000000047
0
LINE
8
BLACK
6
CONTINUOUS
10
186.3320799999999906
20
-173.7790530000000047
11
186.0463649999999802
21
-173.7790530000000047
0
LINE
8
BLACK
6
CONTINUOUS
10
187.8558889999999906
20
-173.7790530000000047
11
187.6654130000000009
21
-173.6838149999999814
0
LINE
8
BLACK
6
CONTINUOUS
10
187.6654130000000009
20
-173.6838149999999814
11
187.5701749999999777
21
-173.4933379999999943
0
LINE
8
BLACK
6
CONTINUOUS
10
187.5701749999999777
20
-173.4933379999999943
11
187.5701749999999777
21
-171.7790530000000047
0
LINE
8
BLACK
6
CONTINUOUS
10
189.379698999999988
20
-173.6838149999999814
11
189.1892229999999984
21
-173.7790530000000047
0
LINE
8
BLACK
6
CONTINUOUS
10
189.1892229999999984
20
-173.7790530000000047
11
188.8082699999999932
21
-173.7790530000000047
0
LINE
8
BLACK
6
CONTINUOUS
10
188.8082699999999932
20
-173.7790530000000047
11
188.6177940000000035
21
-173.6838149999999814
0
LINE
8
BLACK
6
CONTINUOUS
10
188.6177940000000035
20
-173.6838149999999814
11
188.5225559999999803
21
-173.4933379999999943
0
LINE
8
BLACK
6
CONTINUOUS
10
188.5225559999999803
20
-173.4933379999999943
11
188.5225559999999803
21
-172.7314339999999788
0
LINE
8
BLACK
6
CONTINUOUS
10
188.5225559999999803
20
-172.7314339999999788
11
188.6177940000000035
21
-172.5409569999999917
0
LINE
8
BLACK
6
CONTINUOUS
10
188.6177940000000035
20
-172.5409569999999917
11
188.8082699999999932
21
-172.4457189999999969
0
LINE
8
BLACK
6
CONTINUOUS
10
188.8082699999999932
20
-172.4457189999999969
11
189.1892229999999984
21
-172.4457189999999969
0
LINE
8
BLACK
6
CONTINUOUS
10
189.1892229999999984
20
-172.4457189999999969
11
189.379698999999988
21
-172.5409569999999917
0
LINE
8
BLACK
6
CONTINUOUS
10
189.379698999999988
20
-172.5409569999999917
11
189.4749369999999828
21
-172.7314339999999788
0
LINE
8
BLACK
6
CONTINUOUS
10
189.4749369999999828
20
-172.7314339999999788
11
189.4749369999999828
21
-172.9219099999999969
0
LINE
8
BLACK
6
CONTINUOUS
10
189.4749369999999828
20
-172.9219099999999969
11
188.5225559999999803
21
-173.1123859999999866
0
LINE
8
BLACK
6
CONTINUOUS
10
190.2368419999999958
20
-173.6838149999999814
11
190.4273179999999854
21
-173.7790530000000047
0
LINE
8
BLACK
6
CONTINUOUS
10
190.4273179999999854
20
-173.7790530000000047
11
190.8082699999999932
21
-173.7790530000000047
0
LINE
8
BLACK
6
CONTINUOUS
10
190.8082699999999932
20
-173.7790530000000047
11
190.9987469999999803
21
-173.6838149999999814
0
LINE
8
BLACK
6
CONTINUOUS
10
190.9987469999999803
20
-173.6838149999999814
11
191.0939850000000035
21
-173.4933379999999943
0
LINE
8
BLACK
6
CONTINUOUS
10
191.0939850000000035
20
-173.4933379999999943
11
191.0939850000000035
21
-173.3980999999999995
0
LINE
8
BLACK
6
CONTINUOUS
10
191.0939850000000035
20
-173.3980999999999995
11
190.9987469999999803
21
-173.2076239999999814
0
LINE
8
BLACK
6
CONTINUOUS
10
190.9987469999999803
20
-173.2076239999999814
11
190.8082699999999932
21
-173.1123859999999866
0
LINE
8
BLACK
6
CONTINUOUS
10
190.8082699999999932
20
-173.1123859999999866
11
190.5225559999999803
21
-173.1123859999999866
0
LINE
8
BLACK
6
CONTINUOUS
10
190.5225559999999803
20
-173.1123859999999866
11
190.3320799999999906
21
-173.0171479999999917
0
LINE
8
BLACK
6
CONTINUOUS
10
190.3320799999999906
20
-173.0171479999999917
11
190.2368419999999958
21
-172.8266720000000021
0
LINE
8
BLACK
6
CONTINUOUS
10
190.2368419999999958
20
-172.8266720000000021
11
190.2368419999999958
21
-172.7314339999999788
0
LINE
8
BLACK
6
CONTINUOUS
10
190.2368419999999958
20
-172.7314339999999788
11
190.3320799999999906
21
-172.5409569999999917
0
LINE
8
BLACK
6
CONTINUOUS
10
190.3320799999999906
20
-172.5409569999999917
11
190.5225559999999803
21
-172.4457189999999969
0
LINE
8
BLACK
6
CONTINUOUS
10
190.5225559999999803
20
-172.4457189999999969
11
190.8082699999999932
21
-172.4457189999999969
0
LINE
8
BLACK
6
CONTINUOUS
10
190.8082699999999932
20
-172.4457189999999969
11
190.9987469999999803
21
-172.5409569999999917
0
LINE
8
BLACK
6
CONTINUOUS
10
191.7606519999999932
20
-174.5409569999999917
11
191.855889999999988
21
-174.4457189999999969
0
LINE
8
BLACK
6
CONTINUOUS
10
191.855889999999988
20
-174.4457189999999969
11
192.0463659999999777
21
-174.160004999999984
0
LINE
8
BLACK
6
CONTINUOUS
10
192.0463659999999777
20
-174.160004999999984
11
192.141604000000001
21
-173.9695289999999943
0
LINE
8
BLACK
6
CONTINUOUS
10
192.141604000000001
20
-173.9695289999999943
11
192.2368419999999958
21
-173.6838149999999814
0
LINE
8
BLACK
6
CONTINUOUS
10
192.2368419999999958
20
-173.6838149999999814
11
192.3320799999999906
21
-173.2076239999999814
0
LINE
8
BLACK
6
CONTINUOUS
10
192.3320799999999906
20
-173.2076239999999814
11
192.3320799999999906
21
-172.8266720000000021
0
LINE
8
BLACK
6
CONTINUOUS
10
192.3320799999999906
20
-172.8266720000000021
11
192.2368419999999958
21
-172.350481000000002
0
LINE
8
BLACK
6
CONTINUOUS
10
192.2368419999999958
20
-172.350481000000002
11
192.141604000000001
21
-172.0647669999999891
0
LINE
8
BLACK
6
CONTINUOUS
10
192.141604000000001
20
-172.0647669999999891
11
192.0463659999999777
21
-171.8742909999999995
0
LINE
8
BLACK
6
CONTINUOUS
10
192.0463659999999777
20
-171.8742909999999995
11
191.855889999999988
21
-171.5885759999999891
0
LINE
8
BLACK
6
CONTINUOUS
10
191.855889999999988
20
-171.5885759999999891
11
191.7606519999999932
21
-171.4933379999999943
  0
ENDSEC
  0
EOF
