%TF.GenerationSoftware,KiCad,Pcbnew,10.0.3*%
%TF.CreationDate,2026-05-30T18:12:54-06:00*%
%TF.ProjectId,Esk8_spring_26,45736b38-5f73-4707-9269-6e675f32362e,rev?*%
%TF.SameCoordinates,Original*%
%TF.FileFunction,Drillmap*%
%TF.FilePolarity,Positive*%
%FSLAX45Y45*%
G04 Gerber Fmt 4.5, Leading zero omitted, Abs format (unit mm)*
G04 Created by KiCad (PCBNEW 10.0.3) date 2026-05-30 18:12:54*
%MOMM*%
%LPD*%
G01*
G04 APERTURE LIST*
%ADD10C,0.050000*%
%ADD11C,0.200000*%
%ADD12C,0.100000*%
%ADD13C,0.175000*%
G04 APERTURE END LIST*
D10*
X14403502Y-8950000D02*
X16596498Y-8950000D01*
X16596498Y-15851921D01*
X14403502Y-15851921D01*
X14403502Y-8950000D01*
D11*
D12*
X14686000Y-9710000D02*
X14766000Y-9790000D01*
X14766000Y-9710000D02*
X14686000Y-9790000D01*
X14686000Y-9964000D02*
X14766000Y-10044000D01*
X14766000Y-9964000D02*
X14686000Y-10044000D01*
X14686000Y-10218000D02*
X14766000Y-10298000D01*
X14766000Y-10218000D02*
X14686000Y-10298000D01*
X14686000Y-10472000D02*
X14766000Y-10552000D01*
X14766000Y-10472000D02*
X14686000Y-10552000D01*
X14686000Y-10726000D02*
X14766000Y-10806000D01*
X14766000Y-10726000D02*
X14686000Y-10806000D01*
X14686000Y-10980000D02*
X14766000Y-11060000D01*
X14766000Y-10980000D02*
X14686000Y-11060000D01*
X14686000Y-11234000D02*
X14766000Y-11314000D01*
X14766000Y-11234000D02*
X14686000Y-11314000D01*
X14686000Y-11488000D02*
X14766000Y-11568000D01*
X14766000Y-11488000D02*
X14686000Y-11568000D01*
X14686000Y-11742000D02*
X14766000Y-11822000D01*
X14766000Y-11742000D02*
X14686000Y-11822000D01*
X14686000Y-11996000D02*
X14766000Y-12076000D01*
X14766000Y-11996000D02*
X14686000Y-12076000D01*
X14686000Y-12250000D02*
X14766000Y-12330000D01*
X14766000Y-12250000D02*
X14686000Y-12330000D01*
X14686000Y-12504000D02*
X14766000Y-12584000D01*
X14766000Y-12504000D02*
X14686000Y-12584000D01*
X14860000Y-13460000D02*
X14940000Y-13540000D01*
X14940000Y-13460000D02*
X14860000Y-13540000D01*
X14906000Y-12945000D02*
X14986000Y-13025000D01*
X14986000Y-12945000D02*
X14906000Y-13025000D01*
X14906000Y-13199000D02*
X14986000Y-13279000D01*
X14986000Y-13199000D02*
X14906000Y-13279000D01*
X14940000Y-10599000D02*
X15020000Y-10679000D01*
X15020000Y-10599000D02*
X14940000Y-10679000D01*
X14940000Y-10853000D02*
X15020000Y-10933000D01*
X15020000Y-10853000D02*
X14940000Y-10933000D01*
X14940000Y-12504000D02*
X15020000Y-12584000D01*
X15020000Y-12504000D02*
X14940000Y-12584000D01*
X14944000Y-9660000D02*
X15024000Y-9740000D01*
X15024000Y-9660000D02*
X14944000Y-9740000D01*
X14944000Y-10010000D02*
X15024000Y-10090000D01*
X15024000Y-10010000D02*
X14944000Y-10090000D01*
X14944000Y-10360000D02*
X15024000Y-10440000D01*
X15024000Y-10360000D02*
X14944000Y-10440000D01*
X14944000Y-11110000D02*
X15024000Y-11190000D01*
X15024000Y-11110000D02*
X14944000Y-11190000D01*
X14944000Y-11410000D02*
X15024000Y-11490000D01*
X15024000Y-11410000D02*
X14944000Y-11490000D01*
X15160000Y-12945000D02*
X15240000Y-13025000D01*
X15240000Y-12945000D02*
X15160000Y-13025000D01*
X15160000Y-13199000D02*
X15240000Y-13279000D01*
X15240000Y-13199000D02*
X15160000Y-13279000D01*
X15194000Y-12504000D02*
X15274000Y-12584000D01*
X15274000Y-12504000D02*
X15194000Y-12584000D01*
X15310000Y-10760000D02*
X15390000Y-10840000D01*
X15390000Y-10760000D02*
X15310000Y-10840000D01*
X15360000Y-13460000D02*
X15440000Y-13540000D01*
X15440000Y-13460000D02*
X15360000Y-13540000D01*
X15414000Y-12945000D02*
X15494000Y-13025000D01*
X15494000Y-12945000D02*
X15414000Y-13025000D01*
X15414000Y-13199000D02*
X15494000Y-13279000D01*
X15494000Y-13199000D02*
X15414000Y-13279000D01*
X15448000Y-12504000D02*
X15528000Y-12584000D01*
X15528000Y-12504000D02*
X15448000Y-12584000D01*
X15610000Y-13760000D02*
X15690000Y-13840000D01*
X15690000Y-13760000D02*
X15610000Y-13840000D01*
X15610000Y-14776000D02*
X15690000Y-14856000D01*
X15690000Y-14776000D02*
X15610000Y-14856000D01*
X15668000Y-12945000D02*
X15748000Y-13025000D01*
X15748000Y-12945000D02*
X15668000Y-13025000D01*
X15668000Y-13199000D02*
X15748000Y-13279000D01*
X15748000Y-13199000D02*
X15668000Y-13279000D01*
X15810000Y-10760000D02*
X15890000Y-10840000D01*
X15890000Y-10760000D02*
X15810000Y-10840000D01*
X15960000Y-9660000D02*
X16040000Y-9740000D01*
X16040000Y-9660000D02*
X15960000Y-9740000D01*
X15960000Y-10010000D02*
X16040000Y-10090000D01*
X16040000Y-10010000D02*
X15960000Y-10090000D01*
X15960000Y-10360000D02*
X16040000Y-10440000D01*
X16040000Y-10360000D02*
X15960000Y-10440000D01*
X15960000Y-11110000D02*
X16040000Y-11190000D01*
X16040000Y-11110000D02*
X15960000Y-11190000D01*
X15960000Y-11410000D02*
X16040000Y-11490000D01*
X16040000Y-11410000D02*
X15960000Y-11490000D01*
X15960000Y-13760000D02*
X16040000Y-13840000D01*
X16040000Y-13760000D02*
X15960000Y-13840000D01*
X15960000Y-14776000D02*
X16040000Y-14856000D01*
X16040000Y-14776000D02*
X15960000Y-14856000D01*
X16210000Y-9710000D02*
X16290000Y-9790000D01*
X16290000Y-9710000D02*
X16210000Y-9790000D01*
X16210000Y-9964000D02*
X16290000Y-10044000D01*
X16290000Y-9964000D02*
X16210000Y-10044000D01*
X16210000Y-10218000D02*
X16290000Y-10298000D01*
X16290000Y-10218000D02*
X16210000Y-10298000D01*
X16210000Y-10472000D02*
X16290000Y-10552000D01*
X16290000Y-10472000D02*
X16210000Y-10552000D01*
X16210000Y-10726000D02*
X16290000Y-10806000D01*
X16290000Y-10726000D02*
X16210000Y-10806000D01*
X16210000Y-10980000D02*
X16290000Y-11060000D01*
X16290000Y-10980000D02*
X16210000Y-11060000D01*
X16210000Y-11234000D02*
X16290000Y-11314000D01*
X16290000Y-11234000D02*
X16210000Y-11314000D01*
X16210000Y-11488000D02*
X16290000Y-11568000D01*
X16290000Y-11488000D02*
X16210000Y-11568000D01*
X16210000Y-11742000D02*
X16290000Y-11822000D01*
X16290000Y-11742000D02*
X16210000Y-11822000D01*
X16210000Y-11996000D02*
X16290000Y-12076000D01*
X16290000Y-11996000D02*
X16210000Y-12076000D01*
X16210000Y-12250000D02*
X16290000Y-12330000D01*
X16290000Y-12250000D02*
X16210000Y-12330000D01*
X16210000Y-12504000D02*
X16290000Y-12584000D01*
X16290000Y-12504000D02*
X16210000Y-12584000D01*
X15045000Y-13846000D02*
G75*
G02*
X14955000Y-13846000I-45000J0D01*
G01*
X14955000Y-13846000D02*
G75*
G02*
X15045000Y-13846000I45000J0D01*
G01*
X15045000Y-14100000D02*
G75*
G02*
X14955000Y-14100000I-45000J0D01*
G01*
X14955000Y-14100000D02*
G75*
G02*
X15045000Y-14100000I45000J0D01*
G01*
X15045000Y-14496000D02*
G75*
G02*
X14955000Y-14496000I-45000J0D01*
G01*
X14955000Y-14496000D02*
G75*
G02*
X15045000Y-14496000I45000J0D01*
G01*
X15045000Y-14750000D02*
G75*
G02*
X14955000Y-14750000I-45000J0D01*
G01*
X14955000Y-14750000D02*
G75*
G02*
X15045000Y-14750000I45000J0D01*
G01*
X15000000Y-9100000D02*
X15000000Y-9200000D01*
X14950000Y-9150000D02*
X15050000Y-9150000D01*
X15254000Y-9100000D02*
X15254000Y-9200000D01*
X15204000Y-9150000D02*
X15304000Y-9150000D01*
X15508000Y-9100000D02*
X15508000Y-9200000D01*
X15458000Y-9150000D02*
X15558000Y-9150000D01*
X15762000Y-9100000D02*
X15762000Y-9200000D01*
X15712000Y-9150000D02*
X15812000Y-9150000D01*
X16016000Y-9100000D02*
X16016000Y-9200000D01*
X15966000Y-9150000D02*
X16066000Y-9150000D01*
D13*
X15223872Y-15511872D02*
X15223872Y-15388128D01*
X15100128Y-15388128D01*
X15100128Y-15511872D01*
X15223872Y-15511872D01*
X15611872Y-15511872D02*
X15611872Y-15388128D01*
X15488128Y-15388128D01*
X15488128Y-15511872D01*
X15611872Y-15511872D01*
D11*
X14661779Y-16165905D02*
X14661779Y-15965905D01*
X14661779Y-15965905D02*
X14709398Y-15965905D01*
X14709398Y-15965905D02*
X14737969Y-15975429D01*
X14737969Y-15975429D02*
X14757017Y-15994477D01*
X14757017Y-15994477D02*
X14766541Y-16013524D01*
X14766541Y-16013524D02*
X14776065Y-16051619D01*
X14776065Y-16051619D02*
X14776065Y-16080191D01*
X14776065Y-16080191D02*
X14766541Y-16118286D01*
X14766541Y-16118286D02*
X14757017Y-16137334D01*
X14757017Y-16137334D02*
X14737969Y-16156381D01*
X14737969Y-16156381D02*
X14709398Y-16165905D01*
X14709398Y-16165905D02*
X14661779Y-16165905D01*
X14861779Y-16165905D02*
X14861779Y-16032572D01*
X14861779Y-16070667D02*
X14871303Y-16051619D01*
X14871303Y-16051619D02*
X14880827Y-16042096D01*
X14880827Y-16042096D02*
X14899874Y-16032572D01*
X14899874Y-16032572D02*
X14918922Y-16032572D01*
X14985588Y-16165905D02*
X14985588Y-16032572D01*
X14985588Y-15965905D02*
X14976065Y-15975429D01*
X14976065Y-15975429D02*
X14985588Y-15984953D01*
X14985588Y-15984953D02*
X14995112Y-15975429D01*
X14995112Y-15975429D02*
X14985588Y-15965905D01*
X14985588Y-15965905D02*
X14985588Y-15984953D01*
X15109398Y-16165905D02*
X15090350Y-16156381D01*
X15090350Y-16156381D02*
X15080827Y-16137334D01*
X15080827Y-16137334D02*
X15080827Y-15965905D01*
X15214160Y-16165905D02*
X15195112Y-16156381D01*
X15195112Y-16156381D02*
X15185588Y-16137334D01*
X15185588Y-16137334D02*
X15185588Y-15965905D01*
X15442731Y-16165905D02*
X15442731Y-15965905D01*
X15442731Y-15965905D02*
X15509398Y-16108762D01*
X15509398Y-16108762D02*
X15576065Y-15965905D01*
X15576065Y-15965905D02*
X15576065Y-16165905D01*
X15757017Y-16165905D02*
X15757017Y-16061143D01*
X15757017Y-16061143D02*
X15747493Y-16042096D01*
X15747493Y-16042096D02*
X15728446Y-16032572D01*
X15728446Y-16032572D02*
X15690350Y-16032572D01*
X15690350Y-16032572D02*
X15671303Y-16042096D01*
X15757017Y-16156381D02*
X15737969Y-16165905D01*
X15737969Y-16165905D02*
X15690350Y-16165905D01*
X15690350Y-16165905D02*
X15671303Y-16156381D01*
X15671303Y-16156381D02*
X15661779Y-16137334D01*
X15661779Y-16137334D02*
X15661779Y-16118286D01*
X15661779Y-16118286D02*
X15671303Y-16099239D01*
X15671303Y-16099239D02*
X15690350Y-16089715D01*
X15690350Y-16089715D02*
X15737969Y-16089715D01*
X15737969Y-16089715D02*
X15757017Y-16080191D01*
X15852255Y-16032572D02*
X15852255Y-16232572D01*
X15852255Y-16042096D02*
X15871303Y-16032572D01*
X15871303Y-16032572D02*
X15909398Y-16032572D01*
X15909398Y-16032572D02*
X15928446Y-16042096D01*
X15928446Y-16042096D02*
X15937969Y-16051619D01*
X15937969Y-16051619D02*
X15947493Y-16070667D01*
X15947493Y-16070667D02*
X15947493Y-16127810D01*
X15947493Y-16127810D02*
X15937969Y-16146858D01*
X15937969Y-16146858D02*
X15928446Y-16156381D01*
X15928446Y-16156381D02*
X15909398Y-16165905D01*
X15909398Y-16165905D02*
X15871303Y-16165905D01*
X15871303Y-16165905D02*
X15852255Y-16156381D01*
X16033208Y-16146858D02*
X16042731Y-16156381D01*
X16042731Y-16156381D02*
X16033208Y-16165905D01*
X16033208Y-16165905D02*
X16023684Y-16156381D01*
X16023684Y-16156381D02*
X16033208Y-16146858D01*
X16033208Y-16146858D02*
X16033208Y-16165905D01*
X16033208Y-16042096D02*
X16042731Y-16051619D01*
X16042731Y-16051619D02*
X16033208Y-16061143D01*
X16033208Y-16061143D02*
X16023684Y-16051619D01*
X16023684Y-16051619D02*
X16033208Y-16042096D01*
X16033208Y-16042096D02*
X16033208Y-16061143D01*
D12*
X14321002Y-16454421D02*
X14401002Y-16534421D01*
X14401002Y-16454421D02*
X14321002Y-16534421D01*
D11*
X14699874Y-16385905D02*
X14718922Y-16385905D01*
X14718922Y-16385905D02*
X14737969Y-16395429D01*
X14737969Y-16395429D02*
X14747493Y-16404953D01*
X14747493Y-16404953D02*
X14757017Y-16424000D01*
X14757017Y-16424000D02*
X14766541Y-16462096D01*
X14766541Y-16462096D02*
X14766541Y-16509715D01*
X14766541Y-16509715D02*
X14757017Y-16547810D01*
X14757017Y-16547810D02*
X14747493Y-16566858D01*
X14747493Y-16566858D02*
X14737969Y-16576381D01*
X14737969Y-16576381D02*
X14718922Y-16585905D01*
X14718922Y-16585905D02*
X14699874Y-16585905D01*
X14699874Y-16585905D02*
X14680827Y-16576381D01*
X14680827Y-16576381D02*
X14671303Y-16566858D01*
X14671303Y-16566858D02*
X14661779Y-16547810D01*
X14661779Y-16547810D02*
X14652255Y-16509715D01*
X14652255Y-16509715D02*
X14652255Y-16462096D01*
X14652255Y-16462096D02*
X14661779Y-16424000D01*
X14661779Y-16424000D02*
X14671303Y-16404953D01*
X14671303Y-16404953D02*
X14680827Y-16395429D01*
X14680827Y-16395429D02*
X14699874Y-16385905D01*
X14852255Y-16566858D02*
X14861779Y-16576381D01*
X14861779Y-16576381D02*
X14852255Y-16585905D01*
X14852255Y-16585905D02*
X14842731Y-16576381D01*
X14842731Y-16576381D02*
X14852255Y-16566858D01*
X14852255Y-16566858D02*
X14852255Y-16585905D01*
X14976065Y-16471619D02*
X14957017Y-16462096D01*
X14957017Y-16462096D02*
X14947493Y-16452572D01*
X14947493Y-16452572D02*
X14937969Y-16433524D01*
X14937969Y-16433524D02*
X14937969Y-16424000D01*
X14937969Y-16424000D02*
X14947493Y-16404953D01*
X14947493Y-16404953D02*
X14957017Y-16395429D01*
X14957017Y-16395429D02*
X14976065Y-16385905D01*
X14976065Y-16385905D02*
X15014160Y-16385905D01*
X15014160Y-16385905D02*
X15033208Y-16395429D01*
X15033208Y-16395429D02*
X15042731Y-16404953D01*
X15042731Y-16404953D02*
X15052255Y-16424000D01*
X15052255Y-16424000D02*
X15052255Y-16433524D01*
X15052255Y-16433524D02*
X15042731Y-16452572D01*
X15042731Y-16452572D02*
X15033208Y-16462096D01*
X15033208Y-16462096D02*
X15014160Y-16471619D01*
X15014160Y-16471619D02*
X14976065Y-16471619D01*
X14976065Y-16471619D02*
X14957017Y-16481143D01*
X14957017Y-16481143D02*
X14947493Y-16490667D01*
X14947493Y-16490667D02*
X14937969Y-16509715D01*
X14937969Y-16509715D02*
X14937969Y-16547810D01*
X14937969Y-16547810D02*
X14947493Y-16566858D01*
X14947493Y-16566858D02*
X14957017Y-16576381D01*
X14957017Y-16576381D02*
X14976065Y-16585905D01*
X14976065Y-16585905D02*
X15014160Y-16585905D01*
X15014160Y-16585905D02*
X15033208Y-16576381D01*
X15033208Y-16576381D02*
X15042731Y-16566858D01*
X15042731Y-16566858D02*
X15052255Y-16547810D01*
X15052255Y-16547810D02*
X15052255Y-16509715D01*
X15052255Y-16509715D02*
X15042731Y-16490667D01*
X15042731Y-16490667D02*
X15033208Y-16481143D01*
X15033208Y-16481143D02*
X15014160Y-16471619D01*
X15176065Y-16385905D02*
X15195112Y-16385905D01*
X15195112Y-16385905D02*
X15214160Y-16395429D01*
X15214160Y-16395429D02*
X15223684Y-16404953D01*
X15223684Y-16404953D02*
X15233208Y-16424000D01*
X15233208Y-16424000D02*
X15242731Y-16462096D01*
X15242731Y-16462096D02*
X15242731Y-16509715D01*
X15242731Y-16509715D02*
X15233208Y-16547810D01*
X15233208Y-16547810D02*
X15223684Y-16566858D01*
X15223684Y-16566858D02*
X15214160Y-16576381D01*
X15214160Y-16576381D02*
X15195112Y-16585905D01*
X15195112Y-16585905D02*
X15176065Y-16585905D01*
X15176065Y-16585905D02*
X15157017Y-16576381D01*
X15157017Y-16576381D02*
X15147493Y-16566858D01*
X15147493Y-16566858D02*
X15137969Y-16547810D01*
X15137969Y-16547810D02*
X15128446Y-16509715D01*
X15128446Y-16509715D02*
X15128446Y-16462096D01*
X15128446Y-16462096D02*
X15137969Y-16424000D01*
X15137969Y-16424000D02*
X15147493Y-16404953D01*
X15147493Y-16404953D02*
X15157017Y-16395429D01*
X15157017Y-16395429D02*
X15176065Y-16385905D01*
X15366541Y-16385905D02*
X15385589Y-16385905D01*
X15385589Y-16385905D02*
X15404636Y-16395429D01*
X15404636Y-16395429D02*
X15414160Y-16404953D01*
X15414160Y-16404953D02*
X15423684Y-16424000D01*
X15423684Y-16424000D02*
X15433208Y-16462096D01*
X15433208Y-16462096D02*
X15433208Y-16509715D01*
X15433208Y-16509715D02*
X15423684Y-16547810D01*
X15423684Y-16547810D02*
X15414160Y-16566858D01*
X15414160Y-16566858D02*
X15404636Y-16576381D01*
X15404636Y-16576381D02*
X15385589Y-16585905D01*
X15385589Y-16585905D02*
X15366541Y-16585905D01*
X15366541Y-16585905D02*
X15347493Y-16576381D01*
X15347493Y-16576381D02*
X15337969Y-16566858D01*
X15337969Y-16566858D02*
X15328446Y-16547810D01*
X15328446Y-16547810D02*
X15318922Y-16509715D01*
X15318922Y-16509715D02*
X15318922Y-16462096D01*
X15318922Y-16462096D02*
X15328446Y-16424000D01*
X15328446Y-16424000D02*
X15337969Y-16404953D01*
X15337969Y-16404953D02*
X15347493Y-16395429D01*
X15347493Y-16395429D02*
X15366541Y-16385905D01*
X15518922Y-16585905D02*
X15518922Y-16452572D01*
X15518922Y-16471619D02*
X15528446Y-16462096D01*
X15528446Y-16462096D02*
X15547493Y-16452572D01*
X15547493Y-16452572D02*
X15576065Y-16452572D01*
X15576065Y-16452572D02*
X15595112Y-16462096D01*
X15595112Y-16462096D02*
X15604636Y-16481143D01*
X15604636Y-16481143D02*
X15604636Y-16585905D01*
X15604636Y-16481143D02*
X15614160Y-16462096D01*
X15614160Y-16462096D02*
X15633208Y-16452572D01*
X15633208Y-16452572D02*
X15661779Y-16452572D01*
X15661779Y-16452572D02*
X15680827Y-16462096D01*
X15680827Y-16462096D02*
X15690350Y-16481143D01*
X15690350Y-16481143D02*
X15690350Y-16585905D01*
X15785589Y-16585905D02*
X15785589Y-16452572D01*
X15785589Y-16471619D02*
X15795112Y-16462096D01*
X15795112Y-16462096D02*
X15814160Y-16452572D01*
X15814160Y-16452572D02*
X15842731Y-16452572D01*
X15842731Y-16452572D02*
X15861779Y-16462096D01*
X15861779Y-16462096D02*
X15871303Y-16481143D01*
X15871303Y-16481143D02*
X15871303Y-16585905D01*
X15871303Y-16481143D02*
X15880827Y-16462096D01*
X15880827Y-16462096D02*
X15899874Y-16452572D01*
X15899874Y-16452572D02*
X15928446Y-16452572D01*
X15928446Y-16452572D02*
X15947493Y-16462096D01*
X15947493Y-16462096D02*
X15957017Y-16481143D01*
X15957017Y-16481143D02*
X15957017Y-16585905D01*
X16347493Y-16376381D02*
X16176065Y-16633524D01*
X16604636Y-16385905D02*
X16623684Y-16385905D01*
X16623684Y-16385905D02*
X16642732Y-16395429D01*
X16642732Y-16395429D02*
X16652255Y-16404953D01*
X16652255Y-16404953D02*
X16661779Y-16424000D01*
X16661779Y-16424000D02*
X16671303Y-16462096D01*
X16671303Y-16462096D02*
X16671303Y-16509715D01*
X16671303Y-16509715D02*
X16661779Y-16547810D01*
X16661779Y-16547810D02*
X16652255Y-16566858D01*
X16652255Y-16566858D02*
X16642732Y-16576381D01*
X16642732Y-16576381D02*
X16623684Y-16585905D01*
X16623684Y-16585905D02*
X16604636Y-16585905D01*
X16604636Y-16585905D02*
X16585589Y-16576381D01*
X16585589Y-16576381D02*
X16576065Y-16566858D01*
X16576065Y-16566858D02*
X16566541Y-16547810D01*
X16566541Y-16547810D02*
X16557017Y-16509715D01*
X16557017Y-16509715D02*
X16557017Y-16462096D01*
X16557017Y-16462096D02*
X16566541Y-16424000D01*
X16566541Y-16424000D02*
X16576065Y-16404953D01*
X16576065Y-16404953D02*
X16585589Y-16395429D01*
X16585589Y-16395429D02*
X16604636Y-16385905D01*
X16757017Y-16566858D02*
X16766541Y-16576381D01*
X16766541Y-16576381D02*
X16757017Y-16585905D01*
X16757017Y-16585905D02*
X16747493Y-16576381D01*
X16747493Y-16576381D02*
X16757017Y-16566858D01*
X16757017Y-16566858D02*
X16757017Y-16585905D01*
X16890351Y-16385905D02*
X16909398Y-16385905D01*
X16909398Y-16385905D02*
X16928446Y-16395429D01*
X16928446Y-16395429D02*
X16937970Y-16404953D01*
X16937970Y-16404953D02*
X16947494Y-16424000D01*
X16947494Y-16424000D02*
X16957017Y-16462096D01*
X16957017Y-16462096D02*
X16957017Y-16509715D01*
X16957017Y-16509715D02*
X16947494Y-16547810D01*
X16947494Y-16547810D02*
X16937970Y-16566858D01*
X16937970Y-16566858D02*
X16928446Y-16576381D01*
X16928446Y-16576381D02*
X16909398Y-16585905D01*
X16909398Y-16585905D02*
X16890351Y-16585905D01*
X16890351Y-16585905D02*
X16871303Y-16576381D01*
X16871303Y-16576381D02*
X16861779Y-16566858D01*
X16861779Y-16566858D02*
X16852255Y-16547810D01*
X16852255Y-16547810D02*
X16842732Y-16509715D01*
X16842732Y-16509715D02*
X16842732Y-16462096D01*
X16842732Y-16462096D02*
X16852255Y-16424000D01*
X16852255Y-16424000D02*
X16861779Y-16404953D01*
X16861779Y-16404953D02*
X16871303Y-16395429D01*
X16871303Y-16395429D02*
X16890351Y-16385905D01*
X17023684Y-16385905D02*
X17147494Y-16385905D01*
X17147494Y-16385905D02*
X17080827Y-16462096D01*
X17080827Y-16462096D02*
X17109398Y-16462096D01*
X17109398Y-16462096D02*
X17128446Y-16471619D01*
X17128446Y-16471619D02*
X17137970Y-16481143D01*
X17137970Y-16481143D02*
X17147494Y-16500191D01*
X17147494Y-16500191D02*
X17147494Y-16547810D01*
X17147494Y-16547810D02*
X17137970Y-16566858D01*
X17137970Y-16566858D02*
X17128446Y-16576381D01*
X17128446Y-16576381D02*
X17109398Y-16585905D01*
X17109398Y-16585905D02*
X17052255Y-16585905D01*
X17052255Y-16585905D02*
X17033208Y-16576381D01*
X17033208Y-16576381D02*
X17023684Y-16566858D01*
X17337970Y-16585905D02*
X17223684Y-16585905D01*
X17280827Y-16585905D02*
X17280827Y-16385905D01*
X17280827Y-16385905D02*
X17261779Y-16414477D01*
X17261779Y-16414477D02*
X17242732Y-16433524D01*
X17242732Y-16433524D02*
X17223684Y-16443048D01*
X17518922Y-16385905D02*
X17423684Y-16385905D01*
X17423684Y-16385905D02*
X17414160Y-16481143D01*
X17414160Y-16481143D02*
X17423684Y-16471619D01*
X17423684Y-16471619D02*
X17442732Y-16462096D01*
X17442732Y-16462096D02*
X17490351Y-16462096D01*
X17490351Y-16462096D02*
X17509398Y-16471619D01*
X17509398Y-16471619D02*
X17518922Y-16481143D01*
X17518922Y-16481143D02*
X17528446Y-16500191D01*
X17528446Y-16500191D02*
X17528446Y-16547810D01*
X17528446Y-16547810D02*
X17518922Y-16566858D01*
X17518922Y-16566858D02*
X17509398Y-16576381D01*
X17509398Y-16576381D02*
X17490351Y-16585905D01*
X17490351Y-16585905D02*
X17442732Y-16585905D01*
X17442732Y-16585905D02*
X17423684Y-16576381D01*
X17423684Y-16576381D02*
X17414160Y-16566858D01*
X17604636Y-16385905D02*
X17604636Y-16424000D01*
X17680827Y-16385905D02*
X17680827Y-16424000D01*
X17976065Y-16662096D02*
X17966541Y-16652572D01*
X17966541Y-16652572D02*
X17947494Y-16624000D01*
X17947494Y-16624000D02*
X17937970Y-16604953D01*
X17937970Y-16604953D02*
X17928446Y-16576381D01*
X17928446Y-16576381D02*
X17918922Y-16528762D01*
X17918922Y-16528762D02*
X17918922Y-16490667D01*
X17918922Y-16490667D02*
X17928446Y-16443048D01*
X17928446Y-16443048D02*
X17937970Y-16414477D01*
X17937970Y-16414477D02*
X17947494Y-16395429D01*
X17947494Y-16395429D02*
X17966541Y-16366858D01*
X17966541Y-16366858D02*
X17976065Y-16357334D01*
X18147494Y-16385905D02*
X18052256Y-16385905D01*
X18052256Y-16385905D02*
X18042732Y-16481143D01*
X18042732Y-16481143D02*
X18052256Y-16471619D01*
X18052256Y-16471619D02*
X18071303Y-16462096D01*
X18071303Y-16462096D02*
X18118922Y-16462096D01*
X18118922Y-16462096D02*
X18137970Y-16471619D01*
X18137970Y-16471619D02*
X18147494Y-16481143D01*
X18147494Y-16481143D02*
X18157017Y-16500191D01*
X18157017Y-16500191D02*
X18157017Y-16547810D01*
X18157017Y-16547810D02*
X18147494Y-16566858D01*
X18147494Y-16566858D02*
X18137970Y-16576381D01*
X18137970Y-16576381D02*
X18118922Y-16585905D01*
X18118922Y-16585905D02*
X18071303Y-16585905D01*
X18071303Y-16585905D02*
X18052256Y-16576381D01*
X18052256Y-16576381D02*
X18042732Y-16566858D01*
X18337970Y-16385905D02*
X18242732Y-16385905D01*
X18242732Y-16385905D02*
X18233208Y-16481143D01*
X18233208Y-16481143D02*
X18242732Y-16471619D01*
X18242732Y-16471619D02*
X18261779Y-16462096D01*
X18261779Y-16462096D02*
X18309398Y-16462096D01*
X18309398Y-16462096D02*
X18328446Y-16471619D01*
X18328446Y-16471619D02*
X18337970Y-16481143D01*
X18337970Y-16481143D02*
X18347494Y-16500191D01*
X18347494Y-16500191D02*
X18347494Y-16547810D01*
X18347494Y-16547810D02*
X18337970Y-16566858D01*
X18337970Y-16566858D02*
X18328446Y-16576381D01*
X18328446Y-16576381D02*
X18309398Y-16585905D01*
X18309398Y-16585905D02*
X18261779Y-16585905D01*
X18261779Y-16585905D02*
X18242732Y-16576381D01*
X18242732Y-16576381D02*
X18233208Y-16566858D01*
X18585589Y-16585905D02*
X18585589Y-16385905D01*
X18671303Y-16585905D02*
X18671303Y-16481143D01*
X18671303Y-16481143D02*
X18661779Y-16462096D01*
X18661779Y-16462096D02*
X18642732Y-16452572D01*
X18642732Y-16452572D02*
X18614160Y-16452572D01*
X18614160Y-16452572D02*
X18595113Y-16462096D01*
X18595113Y-16462096D02*
X18585589Y-16471619D01*
X18795113Y-16585905D02*
X18776065Y-16576381D01*
X18776065Y-16576381D02*
X18766541Y-16566858D01*
X18766541Y-16566858D02*
X18757018Y-16547810D01*
X18757018Y-16547810D02*
X18757018Y-16490667D01*
X18757018Y-16490667D02*
X18766541Y-16471619D01*
X18766541Y-16471619D02*
X18776065Y-16462096D01*
X18776065Y-16462096D02*
X18795113Y-16452572D01*
X18795113Y-16452572D02*
X18823684Y-16452572D01*
X18823684Y-16452572D02*
X18842732Y-16462096D01*
X18842732Y-16462096D02*
X18852256Y-16471619D01*
X18852256Y-16471619D02*
X18861779Y-16490667D01*
X18861779Y-16490667D02*
X18861779Y-16547810D01*
X18861779Y-16547810D02*
X18852256Y-16566858D01*
X18852256Y-16566858D02*
X18842732Y-16576381D01*
X18842732Y-16576381D02*
X18823684Y-16585905D01*
X18823684Y-16585905D02*
X18795113Y-16585905D01*
X18976065Y-16585905D02*
X18957018Y-16576381D01*
X18957018Y-16576381D02*
X18947494Y-16557334D01*
X18947494Y-16557334D02*
X18947494Y-16385905D01*
X19128446Y-16576381D02*
X19109399Y-16585905D01*
X19109399Y-16585905D02*
X19071303Y-16585905D01*
X19071303Y-16585905D02*
X19052256Y-16576381D01*
X19052256Y-16576381D02*
X19042732Y-16557334D01*
X19042732Y-16557334D02*
X19042732Y-16481143D01*
X19042732Y-16481143D02*
X19052256Y-16462096D01*
X19052256Y-16462096D02*
X19071303Y-16452572D01*
X19071303Y-16452572D02*
X19109399Y-16452572D01*
X19109399Y-16452572D02*
X19128446Y-16462096D01*
X19128446Y-16462096D02*
X19137970Y-16481143D01*
X19137970Y-16481143D02*
X19137970Y-16500191D01*
X19137970Y-16500191D02*
X19042732Y-16519239D01*
X19214160Y-16576381D02*
X19233208Y-16585905D01*
X19233208Y-16585905D02*
X19271303Y-16585905D01*
X19271303Y-16585905D02*
X19290351Y-16576381D01*
X19290351Y-16576381D02*
X19299875Y-16557334D01*
X19299875Y-16557334D02*
X19299875Y-16547810D01*
X19299875Y-16547810D02*
X19290351Y-16528762D01*
X19290351Y-16528762D02*
X19271303Y-16519239D01*
X19271303Y-16519239D02*
X19242732Y-16519239D01*
X19242732Y-16519239D02*
X19223684Y-16509715D01*
X19223684Y-16509715D02*
X19214160Y-16490667D01*
X19214160Y-16490667D02*
X19214160Y-16481143D01*
X19214160Y-16481143D02*
X19223684Y-16462096D01*
X19223684Y-16462096D02*
X19242732Y-16452572D01*
X19242732Y-16452572D02*
X19271303Y-16452572D01*
X19271303Y-16452572D02*
X19290351Y-16462096D01*
X19366541Y-16662096D02*
X19376065Y-16652572D01*
X19376065Y-16652572D02*
X19395113Y-16624000D01*
X19395113Y-16624000D02*
X19404637Y-16604953D01*
X19404637Y-16604953D02*
X19414160Y-16576381D01*
X19414160Y-16576381D02*
X19423684Y-16528762D01*
X19423684Y-16528762D02*
X19423684Y-16490667D01*
X19423684Y-16490667D02*
X19414160Y-16443048D01*
X19414160Y-16443048D02*
X19404637Y-16414477D01*
X19404637Y-16414477D02*
X19395113Y-16395429D01*
X19395113Y-16395429D02*
X19376065Y-16366858D01*
X19376065Y-16366858D02*
X19366541Y-16357334D01*
D12*
X14401002Y-16758421D02*
G75*
G02*
X14311002Y-16758421I-45000J0D01*
G01*
X14311002Y-16758421D02*
G75*
G02*
X14401002Y-16758421I45000J0D01*
G01*
D11*
X14699874Y-16649905D02*
X14718922Y-16649905D01*
X14718922Y-16649905D02*
X14737969Y-16659429D01*
X14737969Y-16659429D02*
X14747493Y-16668953D01*
X14747493Y-16668953D02*
X14757017Y-16688000D01*
X14757017Y-16688000D02*
X14766541Y-16726096D01*
X14766541Y-16726096D02*
X14766541Y-16773715D01*
X14766541Y-16773715D02*
X14757017Y-16811810D01*
X14757017Y-16811810D02*
X14747493Y-16830858D01*
X14747493Y-16830858D02*
X14737969Y-16840382D01*
X14737969Y-16840382D02*
X14718922Y-16849905D01*
X14718922Y-16849905D02*
X14699874Y-16849905D01*
X14699874Y-16849905D02*
X14680827Y-16840382D01*
X14680827Y-16840382D02*
X14671303Y-16830858D01*
X14671303Y-16830858D02*
X14661779Y-16811810D01*
X14661779Y-16811810D02*
X14652255Y-16773715D01*
X14652255Y-16773715D02*
X14652255Y-16726096D01*
X14652255Y-16726096D02*
X14661779Y-16688000D01*
X14661779Y-16688000D02*
X14671303Y-16668953D01*
X14671303Y-16668953D02*
X14680827Y-16659429D01*
X14680827Y-16659429D02*
X14699874Y-16649905D01*
X14852255Y-16830858D02*
X14861779Y-16840382D01*
X14861779Y-16840382D02*
X14852255Y-16849905D01*
X14852255Y-16849905D02*
X14842731Y-16840382D01*
X14842731Y-16840382D02*
X14852255Y-16830858D01*
X14852255Y-16830858D02*
X14852255Y-16849905D01*
X14957017Y-16849905D02*
X14995112Y-16849905D01*
X14995112Y-16849905D02*
X15014160Y-16840382D01*
X15014160Y-16840382D02*
X15023684Y-16830858D01*
X15023684Y-16830858D02*
X15042731Y-16802286D01*
X15042731Y-16802286D02*
X15052255Y-16764191D01*
X15052255Y-16764191D02*
X15052255Y-16688000D01*
X15052255Y-16688000D02*
X15042731Y-16668953D01*
X15042731Y-16668953D02*
X15033208Y-16659429D01*
X15033208Y-16659429D02*
X15014160Y-16649905D01*
X15014160Y-16649905D02*
X14976065Y-16649905D01*
X14976065Y-16649905D02*
X14957017Y-16659429D01*
X14957017Y-16659429D02*
X14947493Y-16668953D01*
X14947493Y-16668953D02*
X14937969Y-16688000D01*
X14937969Y-16688000D02*
X14937969Y-16735619D01*
X14937969Y-16735619D02*
X14947493Y-16754667D01*
X14947493Y-16754667D02*
X14957017Y-16764191D01*
X14957017Y-16764191D02*
X14976065Y-16773715D01*
X14976065Y-16773715D02*
X15014160Y-16773715D01*
X15014160Y-16773715D02*
X15033208Y-16764191D01*
X15033208Y-16764191D02*
X15042731Y-16754667D01*
X15042731Y-16754667D02*
X15052255Y-16735619D01*
X15176065Y-16649905D02*
X15195112Y-16649905D01*
X15195112Y-16649905D02*
X15214160Y-16659429D01*
X15214160Y-16659429D02*
X15223684Y-16668953D01*
X15223684Y-16668953D02*
X15233208Y-16688000D01*
X15233208Y-16688000D02*
X15242731Y-16726096D01*
X15242731Y-16726096D02*
X15242731Y-16773715D01*
X15242731Y-16773715D02*
X15233208Y-16811810D01*
X15233208Y-16811810D02*
X15223684Y-16830858D01*
X15223684Y-16830858D02*
X15214160Y-16840382D01*
X15214160Y-16840382D02*
X15195112Y-16849905D01*
X15195112Y-16849905D02*
X15176065Y-16849905D01*
X15176065Y-16849905D02*
X15157017Y-16840382D01*
X15157017Y-16840382D02*
X15147493Y-16830858D01*
X15147493Y-16830858D02*
X15137969Y-16811810D01*
X15137969Y-16811810D02*
X15128446Y-16773715D01*
X15128446Y-16773715D02*
X15128446Y-16726096D01*
X15128446Y-16726096D02*
X15137969Y-16688000D01*
X15137969Y-16688000D02*
X15147493Y-16668953D01*
X15147493Y-16668953D02*
X15157017Y-16659429D01*
X15157017Y-16659429D02*
X15176065Y-16649905D01*
X15366541Y-16649905D02*
X15385589Y-16649905D01*
X15385589Y-16649905D02*
X15404636Y-16659429D01*
X15404636Y-16659429D02*
X15414160Y-16668953D01*
X15414160Y-16668953D02*
X15423684Y-16688000D01*
X15423684Y-16688000D02*
X15433208Y-16726096D01*
X15433208Y-16726096D02*
X15433208Y-16773715D01*
X15433208Y-16773715D02*
X15423684Y-16811810D01*
X15423684Y-16811810D02*
X15414160Y-16830858D01*
X15414160Y-16830858D02*
X15404636Y-16840382D01*
X15404636Y-16840382D02*
X15385589Y-16849905D01*
X15385589Y-16849905D02*
X15366541Y-16849905D01*
X15366541Y-16849905D02*
X15347493Y-16840382D01*
X15347493Y-16840382D02*
X15337969Y-16830858D01*
X15337969Y-16830858D02*
X15328446Y-16811810D01*
X15328446Y-16811810D02*
X15318922Y-16773715D01*
X15318922Y-16773715D02*
X15318922Y-16726096D01*
X15318922Y-16726096D02*
X15328446Y-16688000D01*
X15328446Y-16688000D02*
X15337969Y-16668953D01*
X15337969Y-16668953D02*
X15347493Y-16659429D01*
X15347493Y-16659429D02*
X15366541Y-16649905D01*
X15518922Y-16849905D02*
X15518922Y-16716572D01*
X15518922Y-16735619D02*
X15528446Y-16726096D01*
X15528446Y-16726096D02*
X15547493Y-16716572D01*
X15547493Y-16716572D02*
X15576065Y-16716572D01*
X15576065Y-16716572D02*
X15595112Y-16726096D01*
X15595112Y-16726096D02*
X15604636Y-16745143D01*
X15604636Y-16745143D02*
X15604636Y-16849905D01*
X15604636Y-16745143D02*
X15614160Y-16726096D01*
X15614160Y-16726096D02*
X15633208Y-16716572D01*
X15633208Y-16716572D02*
X15661779Y-16716572D01*
X15661779Y-16716572D02*
X15680827Y-16726096D01*
X15680827Y-16726096D02*
X15690350Y-16745143D01*
X15690350Y-16745143D02*
X15690350Y-16849905D01*
X15785589Y-16849905D02*
X15785589Y-16716572D01*
X15785589Y-16735619D02*
X15795112Y-16726096D01*
X15795112Y-16726096D02*
X15814160Y-16716572D01*
X15814160Y-16716572D02*
X15842731Y-16716572D01*
X15842731Y-16716572D02*
X15861779Y-16726096D01*
X15861779Y-16726096D02*
X15871303Y-16745143D01*
X15871303Y-16745143D02*
X15871303Y-16849905D01*
X15871303Y-16745143D02*
X15880827Y-16726096D01*
X15880827Y-16726096D02*
X15899874Y-16716572D01*
X15899874Y-16716572D02*
X15928446Y-16716572D01*
X15928446Y-16716572D02*
X15947493Y-16726096D01*
X15947493Y-16726096D02*
X15957017Y-16745143D01*
X15957017Y-16745143D02*
X15957017Y-16849905D01*
X16347493Y-16640381D02*
X16176065Y-16897524D01*
X16604636Y-16649905D02*
X16623684Y-16649905D01*
X16623684Y-16649905D02*
X16642732Y-16659429D01*
X16642732Y-16659429D02*
X16652255Y-16668953D01*
X16652255Y-16668953D02*
X16661779Y-16688000D01*
X16661779Y-16688000D02*
X16671303Y-16726096D01*
X16671303Y-16726096D02*
X16671303Y-16773715D01*
X16671303Y-16773715D02*
X16661779Y-16811810D01*
X16661779Y-16811810D02*
X16652255Y-16830858D01*
X16652255Y-16830858D02*
X16642732Y-16840382D01*
X16642732Y-16840382D02*
X16623684Y-16849905D01*
X16623684Y-16849905D02*
X16604636Y-16849905D01*
X16604636Y-16849905D02*
X16585589Y-16840382D01*
X16585589Y-16840382D02*
X16576065Y-16830858D01*
X16576065Y-16830858D02*
X16566541Y-16811810D01*
X16566541Y-16811810D02*
X16557017Y-16773715D01*
X16557017Y-16773715D02*
X16557017Y-16726096D01*
X16557017Y-16726096D02*
X16566541Y-16688000D01*
X16566541Y-16688000D02*
X16576065Y-16668953D01*
X16576065Y-16668953D02*
X16585589Y-16659429D01*
X16585589Y-16659429D02*
X16604636Y-16649905D01*
X16757017Y-16830858D02*
X16766541Y-16840382D01*
X16766541Y-16840382D02*
X16757017Y-16849905D01*
X16757017Y-16849905D02*
X16747493Y-16840382D01*
X16747493Y-16840382D02*
X16757017Y-16830858D01*
X16757017Y-16830858D02*
X16757017Y-16849905D01*
X16890351Y-16649905D02*
X16909398Y-16649905D01*
X16909398Y-16649905D02*
X16928446Y-16659429D01*
X16928446Y-16659429D02*
X16937970Y-16668953D01*
X16937970Y-16668953D02*
X16947494Y-16688000D01*
X16947494Y-16688000D02*
X16957017Y-16726096D01*
X16957017Y-16726096D02*
X16957017Y-16773715D01*
X16957017Y-16773715D02*
X16947494Y-16811810D01*
X16947494Y-16811810D02*
X16937970Y-16830858D01*
X16937970Y-16830858D02*
X16928446Y-16840382D01*
X16928446Y-16840382D02*
X16909398Y-16849905D01*
X16909398Y-16849905D02*
X16890351Y-16849905D01*
X16890351Y-16849905D02*
X16871303Y-16840382D01*
X16871303Y-16840382D02*
X16861779Y-16830858D01*
X16861779Y-16830858D02*
X16852255Y-16811810D01*
X16852255Y-16811810D02*
X16842732Y-16773715D01*
X16842732Y-16773715D02*
X16842732Y-16726096D01*
X16842732Y-16726096D02*
X16852255Y-16688000D01*
X16852255Y-16688000D02*
X16861779Y-16668953D01*
X16861779Y-16668953D02*
X16871303Y-16659429D01*
X16871303Y-16659429D02*
X16890351Y-16649905D01*
X17023684Y-16649905D02*
X17147494Y-16649905D01*
X17147494Y-16649905D02*
X17080827Y-16726096D01*
X17080827Y-16726096D02*
X17109398Y-16726096D01*
X17109398Y-16726096D02*
X17128446Y-16735619D01*
X17128446Y-16735619D02*
X17137970Y-16745143D01*
X17137970Y-16745143D02*
X17147494Y-16764191D01*
X17147494Y-16764191D02*
X17147494Y-16811810D01*
X17147494Y-16811810D02*
X17137970Y-16830858D01*
X17137970Y-16830858D02*
X17128446Y-16840382D01*
X17128446Y-16840382D02*
X17109398Y-16849905D01*
X17109398Y-16849905D02*
X17052255Y-16849905D01*
X17052255Y-16849905D02*
X17033208Y-16840382D01*
X17033208Y-16840382D02*
X17023684Y-16830858D01*
X17328446Y-16649905D02*
X17233208Y-16649905D01*
X17233208Y-16649905D02*
X17223684Y-16745143D01*
X17223684Y-16745143D02*
X17233208Y-16735619D01*
X17233208Y-16735619D02*
X17252255Y-16726096D01*
X17252255Y-16726096D02*
X17299875Y-16726096D01*
X17299875Y-16726096D02*
X17318922Y-16735619D01*
X17318922Y-16735619D02*
X17328446Y-16745143D01*
X17328446Y-16745143D02*
X17337970Y-16764191D01*
X17337970Y-16764191D02*
X17337970Y-16811810D01*
X17337970Y-16811810D02*
X17328446Y-16830858D01*
X17328446Y-16830858D02*
X17318922Y-16840382D01*
X17318922Y-16840382D02*
X17299875Y-16849905D01*
X17299875Y-16849905D02*
X17252255Y-16849905D01*
X17252255Y-16849905D02*
X17233208Y-16840382D01*
X17233208Y-16840382D02*
X17223684Y-16830858D01*
X17509398Y-16716572D02*
X17509398Y-16849905D01*
X17461779Y-16640381D02*
X17414160Y-16783239D01*
X17414160Y-16783239D02*
X17537970Y-16783239D01*
X17604636Y-16649905D02*
X17604636Y-16688000D01*
X17680827Y-16649905D02*
X17680827Y-16688000D01*
X17976065Y-16926096D02*
X17966541Y-16916572D01*
X17966541Y-16916572D02*
X17947494Y-16888001D01*
X17947494Y-16888001D02*
X17937970Y-16868953D01*
X17937970Y-16868953D02*
X17928446Y-16840382D01*
X17928446Y-16840382D02*
X17918922Y-16792762D01*
X17918922Y-16792762D02*
X17918922Y-16754667D01*
X17918922Y-16754667D02*
X17928446Y-16707048D01*
X17928446Y-16707048D02*
X17937970Y-16678477D01*
X17937970Y-16678477D02*
X17947494Y-16659429D01*
X17947494Y-16659429D02*
X17966541Y-16630858D01*
X17966541Y-16630858D02*
X17976065Y-16621334D01*
X18137970Y-16716572D02*
X18137970Y-16849905D01*
X18090351Y-16640381D02*
X18042732Y-16783239D01*
X18042732Y-16783239D02*
X18166541Y-16783239D01*
X18395113Y-16849905D02*
X18395113Y-16649905D01*
X18480827Y-16849905D02*
X18480827Y-16745143D01*
X18480827Y-16745143D02*
X18471303Y-16726096D01*
X18471303Y-16726096D02*
X18452256Y-16716572D01*
X18452256Y-16716572D02*
X18423684Y-16716572D01*
X18423684Y-16716572D02*
X18404637Y-16726096D01*
X18404637Y-16726096D02*
X18395113Y-16735619D01*
X18604637Y-16849905D02*
X18585589Y-16840382D01*
X18585589Y-16840382D02*
X18576065Y-16830858D01*
X18576065Y-16830858D02*
X18566541Y-16811810D01*
X18566541Y-16811810D02*
X18566541Y-16754667D01*
X18566541Y-16754667D02*
X18576065Y-16735619D01*
X18576065Y-16735619D02*
X18585589Y-16726096D01*
X18585589Y-16726096D02*
X18604637Y-16716572D01*
X18604637Y-16716572D02*
X18633208Y-16716572D01*
X18633208Y-16716572D02*
X18652256Y-16726096D01*
X18652256Y-16726096D02*
X18661779Y-16735619D01*
X18661779Y-16735619D02*
X18671303Y-16754667D01*
X18671303Y-16754667D02*
X18671303Y-16811810D01*
X18671303Y-16811810D02*
X18661779Y-16830858D01*
X18661779Y-16830858D02*
X18652256Y-16840382D01*
X18652256Y-16840382D02*
X18633208Y-16849905D01*
X18633208Y-16849905D02*
X18604637Y-16849905D01*
X18785589Y-16849905D02*
X18766541Y-16840382D01*
X18766541Y-16840382D02*
X18757018Y-16821334D01*
X18757018Y-16821334D02*
X18757018Y-16649905D01*
X18937970Y-16840382D02*
X18918922Y-16849905D01*
X18918922Y-16849905D02*
X18880827Y-16849905D01*
X18880827Y-16849905D02*
X18861779Y-16840382D01*
X18861779Y-16840382D02*
X18852256Y-16821334D01*
X18852256Y-16821334D02*
X18852256Y-16745143D01*
X18852256Y-16745143D02*
X18861779Y-16726096D01*
X18861779Y-16726096D02*
X18880827Y-16716572D01*
X18880827Y-16716572D02*
X18918922Y-16716572D01*
X18918922Y-16716572D02*
X18937970Y-16726096D01*
X18937970Y-16726096D02*
X18947494Y-16745143D01*
X18947494Y-16745143D02*
X18947494Y-16764191D01*
X18947494Y-16764191D02*
X18852256Y-16783239D01*
X19023684Y-16840382D02*
X19042732Y-16849905D01*
X19042732Y-16849905D02*
X19080827Y-16849905D01*
X19080827Y-16849905D02*
X19099875Y-16840382D01*
X19099875Y-16840382D02*
X19109399Y-16821334D01*
X19109399Y-16821334D02*
X19109399Y-16811810D01*
X19109399Y-16811810D02*
X19099875Y-16792762D01*
X19099875Y-16792762D02*
X19080827Y-16783239D01*
X19080827Y-16783239D02*
X19052256Y-16783239D01*
X19052256Y-16783239D02*
X19033208Y-16773715D01*
X19033208Y-16773715D02*
X19023684Y-16754667D01*
X19023684Y-16754667D02*
X19023684Y-16745143D01*
X19023684Y-16745143D02*
X19033208Y-16726096D01*
X19033208Y-16726096D02*
X19052256Y-16716572D01*
X19052256Y-16716572D02*
X19080827Y-16716572D01*
X19080827Y-16716572D02*
X19099875Y-16726096D01*
X19176065Y-16926096D02*
X19185589Y-16916572D01*
X19185589Y-16916572D02*
X19204637Y-16888001D01*
X19204637Y-16888001D02*
X19214160Y-16868953D01*
X19214160Y-16868953D02*
X19223684Y-16840382D01*
X19223684Y-16840382D02*
X19233208Y-16792762D01*
X19233208Y-16792762D02*
X19233208Y-16754667D01*
X19233208Y-16754667D02*
X19223684Y-16707048D01*
X19223684Y-16707048D02*
X19214160Y-16678477D01*
X19214160Y-16678477D02*
X19204637Y-16659429D01*
X19204637Y-16659429D02*
X19185589Y-16630858D01*
X19185589Y-16630858D02*
X19176065Y-16621334D01*
D12*
X14351002Y-16972422D02*
X14351002Y-17072422D01*
X14301002Y-17022422D02*
X14401002Y-17022422D01*
D11*
X14766541Y-17113905D02*
X14652255Y-17113905D01*
X14709398Y-17113905D02*
X14709398Y-16913905D01*
X14709398Y-16913905D02*
X14690350Y-16942477D01*
X14690350Y-16942477D02*
X14671303Y-16961524D01*
X14671303Y-16961524D02*
X14652255Y-16971048D01*
X14852255Y-17094858D02*
X14861779Y-17104382D01*
X14861779Y-17104382D02*
X14852255Y-17113905D01*
X14852255Y-17113905D02*
X14842731Y-17104382D01*
X14842731Y-17104382D02*
X14852255Y-17094858D01*
X14852255Y-17094858D02*
X14852255Y-17113905D01*
X14985588Y-16913905D02*
X15004636Y-16913905D01*
X15004636Y-16913905D02*
X15023684Y-16923429D01*
X15023684Y-16923429D02*
X15033208Y-16932953D01*
X15033208Y-16932953D02*
X15042731Y-16952001D01*
X15042731Y-16952001D02*
X15052255Y-16990096D01*
X15052255Y-16990096D02*
X15052255Y-17037715D01*
X15052255Y-17037715D02*
X15042731Y-17075810D01*
X15042731Y-17075810D02*
X15033208Y-17094858D01*
X15033208Y-17094858D02*
X15023684Y-17104382D01*
X15023684Y-17104382D02*
X15004636Y-17113905D01*
X15004636Y-17113905D02*
X14985588Y-17113905D01*
X14985588Y-17113905D02*
X14966541Y-17104382D01*
X14966541Y-17104382D02*
X14957017Y-17094858D01*
X14957017Y-17094858D02*
X14947493Y-17075810D01*
X14947493Y-17075810D02*
X14937969Y-17037715D01*
X14937969Y-17037715D02*
X14937969Y-16990096D01*
X14937969Y-16990096D02*
X14947493Y-16952001D01*
X14947493Y-16952001D02*
X14957017Y-16932953D01*
X14957017Y-16932953D02*
X14966541Y-16923429D01*
X14966541Y-16923429D02*
X14985588Y-16913905D01*
X15176065Y-16913905D02*
X15195112Y-16913905D01*
X15195112Y-16913905D02*
X15214160Y-16923429D01*
X15214160Y-16923429D02*
X15223684Y-16932953D01*
X15223684Y-16932953D02*
X15233208Y-16952001D01*
X15233208Y-16952001D02*
X15242731Y-16990096D01*
X15242731Y-16990096D02*
X15242731Y-17037715D01*
X15242731Y-17037715D02*
X15233208Y-17075810D01*
X15233208Y-17075810D02*
X15223684Y-17094858D01*
X15223684Y-17094858D02*
X15214160Y-17104382D01*
X15214160Y-17104382D02*
X15195112Y-17113905D01*
X15195112Y-17113905D02*
X15176065Y-17113905D01*
X15176065Y-17113905D02*
X15157017Y-17104382D01*
X15157017Y-17104382D02*
X15147493Y-17094858D01*
X15147493Y-17094858D02*
X15137969Y-17075810D01*
X15137969Y-17075810D02*
X15128446Y-17037715D01*
X15128446Y-17037715D02*
X15128446Y-16990096D01*
X15128446Y-16990096D02*
X15137969Y-16952001D01*
X15137969Y-16952001D02*
X15147493Y-16932953D01*
X15147493Y-16932953D02*
X15157017Y-16923429D01*
X15157017Y-16923429D02*
X15176065Y-16913905D01*
X15366541Y-16913905D02*
X15385589Y-16913905D01*
X15385589Y-16913905D02*
X15404636Y-16923429D01*
X15404636Y-16923429D02*
X15414160Y-16932953D01*
X15414160Y-16932953D02*
X15423684Y-16952001D01*
X15423684Y-16952001D02*
X15433208Y-16990096D01*
X15433208Y-16990096D02*
X15433208Y-17037715D01*
X15433208Y-17037715D02*
X15423684Y-17075810D01*
X15423684Y-17075810D02*
X15414160Y-17094858D01*
X15414160Y-17094858D02*
X15404636Y-17104382D01*
X15404636Y-17104382D02*
X15385589Y-17113905D01*
X15385589Y-17113905D02*
X15366541Y-17113905D01*
X15366541Y-17113905D02*
X15347493Y-17104382D01*
X15347493Y-17104382D02*
X15337969Y-17094858D01*
X15337969Y-17094858D02*
X15328446Y-17075810D01*
X15328446Y-17075810D02*
X15318922Y-17037715D01*
X15318922Y-17037715D02*
X15318922Y-16990096D01*
X15318922Y-16990096D02*
X15328446Y-16952001D01*
X15328446Y-16952001D02*
X15337969Y-16932953D01*
X15337969Y-16932953D02*
X15347493Y-16923429D01*
X15347493Y-16923429D02*
X15366541Y-16913905D01*
X15518922Y-17113905D02*
X15518922Y-16980572D01*
X15518922Y-16999620D02*
X15528446Y-16990096D01*
X15528446Y-16990096D02*
X15547493Y-16980572D01*
X15547493Y-16980572D02*
X15576065Y-16980572D01*
X15576065Y-16980572D02*
X15595112Y-16990096D01*
X15595112Y-16990096D02*
X15604636Y-17009143D01*
X15604636Y-17009143D02*
X15604636Y-17113905D01*
X15604636Y-17009143D02*
X15614160Y-16990096D01*
X15614160Y-16990096D02*
X15633208Y-16980572D01*
X15633208Y-16980572D02*
X15661779Y-16980572D01*
X15661779Y-16980572D02*
X15680827Y-16990096D01*
X15680827Y-16990096D02*
X15690350Y-17009143D01*
X15690350Y-17009143D02*
X15690350Y-17113905D01*
X15785589Y-17113905D02*
X15785589Y-16980572D01*
X15785589Y-16999620D02*
X15795112Y-16990096D01*
X15795112Y-16990096D02*
X15814160Y-16980572D01*
X15814160Y-16980572D02*
X15842731Y-16980572D01*
X15842731Y-16980572D02*
X15861779Y-16990096D01*
X15861779Y-16990096D02*
X15871303Y-17009143D01*
X15871303Y-17009143D02*
X15871303Y-17113905D01*
X15871303Y-17009143D02*
X15880827Y-16990096D01*
X15880827Y-16990096D02*
X15899874Y-16980572D01*
X15899874Y-16980572D02*
X15928446Y-16980572D01*
X15928446Y-16980572D02*
X15947493Y-16990096D01*
X15947493Y-16990096D02*
X15957017Y-17009143D01*
X15957017Y-17009143D02*
X15957017Y-17113905D01*
X16347493Y-16904382D02*
X16176065Y-17161524D01*
X16604636Y-16913905D02*
X16623684Y-16913905D01*
X16623684Y-16913905D02*
X16642732Y-16923429D01*
X16642732Y-16923429D02*
X16652255Y-16932953D01*
X16652255Y-16932953D02*
X16661779Y-16952001D01*
X16661779Y-16952001D02*
X16671303Y-16990096D01*
X16671303Y-16990096D02*
X16671303Y-17037715D01*
X16671303Y-17037715D02*
X16661779Y-17075810D01*
X16661779Y-17075810D02*
X16652255Y-17094858D01*
X16652255Y-17094858D02*
X16642732Y-17104382D01*
X16642732Y-17104382D02*
X16623684Y-17113905D01*
X16623684Y-17113905D02*
X16604636Y-17113905D01*
X16604636Y-17113905D02*
X16585589Y-17104382D01*
X16585589Y-17104382D02*
X16576065Y-17094858D01*
X16576065Y-17094858D02*
X16566541Y-17075810D01*
X16566541Y-17075810D02*
X16557017Y-17037715D01*
X16557017Y-17037715D02*
X16557017Y-16990096D01*
X16557017Y-16990096D02*
X16566541Y-16952001D01*
X16566541Y-16952001D02*
X16576065Y-16932953D01*
X16576065Y-16932953D02*
X16585589Y-16923429D01*
X16585589Y-16923429D02*
X16604636Y-16913905D01*
X16757017Y-17094858D02*
X16766541Y-17104382D01*
X16766541Y-17104382D02*
X16757017Y-17113905D01*
X16757017Y-17113905D02*
X16747493Y-17104382D01*
X16747493Y-17104382D02*
X16757017Y-17094858D01*
X16757017Y-17094858D02*
X16757017Y-17113905D01*
X16890351Y-16913905D02*
X16909398Y-16913905D01*
X16909398Y-16913905D02*
X16928446Y-16923429D01*
X16928446Y-16923429D02*
X16937970Y-16932953D01*
X16937970Y-16932953D02*
X16947494Y-16952001D01*
X16947494Y-16952001D02*
X16957017Y-16990096D01*
X16957017Y-16990096D02*
X16957017Y-17037715D01*
X16957017Y-17037715D02*
X16947494Y-17075810D01*
X16947494Y-17075810D02*
X16937970Y-17094858D01*
X16937970Y-17094858D02*
X16928446Y-17104382D01*
X16928446Y-17104382D02*
X16909398Y-17113905D01*
X16909398Y-17113905D02*
X16890351Y-17113905D01*
X16890351Y-17113905D02*
X16871303Y-17104382D01*
X16871303Y-17104382D02*
X16861779Y-17094858D01*
X16861779Y-17094858D02*
X16852255Y-17075810D01*
X16852255Y-17075810D02*
X16842732Y-17037715D01*
X16842732Y-17037715D02*
X16842732Y-16990096D01*
X16842732Y-16990096D02*
X16852255Y-16952001D01*
X16852255Y-16952001D02*
X16861779Y-16932953D01*
X16861779Y-16932953D02*
X16871303Y-16923429D01*
X16871303Y-16923429D02*
X16890351Y-16913905D01*
X17023684Y-16913905D02*
X17147494Y-16913905D01*
X17147494Y-16913905D02*
X17080827Y-16990096D01*
X17080827Y-16990096D02*
X17109398Y-16990096D01*
X17109398Y-16990096D02*
X17128446Y-16999620D01*
X17128446Y-16999620D02*
X17137970Y-17009143D01*
X17137970Y-17009143D02*
X17147494Y-17028191D01*
X17147494Y-17028191D02*
X17147494Y-17075810D01*
X17147494Y-17075810D02*
X17137970Y-17094858D01*
X17137970Y-17094858D02*
X17128446Y-17104382D01*
X17128446Y-17104382D02*
X17109398Y-17113905D01*
X17109398Y-17113905D02*
X17052255Y-17113905D01*
X17052255Y-17113905D02*
X17033208Y-17104382D01*
X17033208Y-17104382D02*
X17023684Y-17094858D01*
X17242732Y-17113905D02*
X17280827Y-17113905D01*
X17280827Y-17113905D02*
X17299875Y-17104382D01*
X17299875Y-17104382D02*
X17309398Y-17094858D01*
X17309398Y-17094858D02*
X17328446Y-17066286D01*
X17328446Y-17066286D02*
X17337970Y-17028191D01*
X17337970Y-17028191D02*
X17337970Y-16952001D01*
X17337970Y-16952001D02*
X17328446Y-16932953D01*
X17328446Y-16932953D02*
X17318922Y-16923429D01*
X17318922Y-16923429D02*
X17299875Y-16913905D01*
X17299875Y-16913905D02*
X17261779Y-16913905D01*
X17261779Y-16913905D02*
X17242732Y-16923429D01*
X17242732Y-16923429D02*
X17233208Y-16932953D01*
X17233208Y-16932953D02*
X17223684Y-16952001D01*
X17223684Y-16952001D02*
X17223684Y-16999620D01*
X17223684Y-16999620D02*
X17233208Y-17018667D01*
X17233208Y-17018667D02*
X17242732Y-17028191D01*
X17242732Y-17028191D02*
X17261779Y-17037715D01*
X17261779Y-17037715D02*
X17299875Y-17037715D01*
X17299875Y-17037715D02*
X17318922Y-17028191D01*
X17318922Y-17028191D02*
X17328446Y-17018667D01*
X17328446Y-17018667D02*
X17337970Y-16999620D01*
X17509398Y-16980572D02*
X17509398Y-17113905D01*
X17461779Y-16904382D02*
X17414160Y-17047239D01*
X17414160Y-17047239D02*
X17537970Y-17047239D01*
X17604636Y-16913905D02*
X17604636Y-16952001D01*
X17680827Y-16913905D02*
X17680827Y-16952001D01*
X17976065Y-17190096D02*
X17966541Y-17180572D01*
X17966541Y-17180572D02*
X17947494Y-17152001D01*
X17947494Y-17152001D02*
X17937970Y-17132953D01*
X17937970Y-17132953D02*
X17928446Y-17104382D01*
X17928446Y-17104382D02*
X17918922Y-17056762D01*
X17918922Y-17056762D02*
X17918922Y-17018667D01*
X17918922Y-17018667D02*
X17928446Y-16971048D01*
X17928446Y-16971048D02*
X17937970Y-16942477D01*
X17937970Y-16942477D02*
X17947494Y-16923429D01*
X17947494Y-16923429D02*
X17966541Y-16894858D01*
X17966541Y-16894858D02*
X17976065Y-16885334D01*
X18147494Y-16913905D02*
X18052256Y-16913905D01*
X18052256Y-16913905D02*
X18042732Y-17009143D01*
X18042732Y-17009143D02*
X18052256Y-16999620D01*
X18052256Y-16999620D02*
X18071303Y-16990096D01*
X18071303Y-16990096D02*
X18118922Y-16990096D01*
X18118922Y-16990096D02*
X18137970Y-16999620D01*
X18137970Y-16999620D02*
X18147494Y-17009143D01*
X18147494Y-17009143D02*
X18157017Y-17028191D01*
X18157017Y-17028191D02*
X18157017Y-17075810D01*
X18157017Y-17075810D02*
X18147494Y-17094858D01*
X18147494Y-17094858D02*
X18137970Y-17104382D01*
X18137970Y-17104382D02*
X18118922Y-17113905D01*
X18118922Y-17113905D02*
X18071303Y-17113905D01*
X18071303Y-17113905D02*
X18052256Y-17104382D01*
X18052256Y-17104382D02*
X18042732Y-17094858D01*
X18395113Y-17113905D02*
X18395113Y-16913905D01*
X18480827Y-17113905D02*
X18480827Y-17009143D01*
X18480827Y-17009143D02*
X18471303Y-16990096D01*
X18471303Y-16990096D02*
X18452256Y-16980572D01*
X18452256Y-16980572D02*
X18423684Y-16980572D01*
X18423684Y-16980572D02*
X18404637Y-16990096D01*
X18404637Y-16990096D02*
X18395113Y-16999620D01*
X18604637Y-17113905D02*
X18585589Y-17104382D01*
X18585589Y-17104382D02*
X18576065Y-17094858D01*
X18576065Y-17094858D02*
X18566541Y-17075810D01*
X18566541Y-17075810D02*
X18566541Y-17018667D01*
X18566541Y-17018667D02*
X18576065Y-16999620D01*
X18576065Y-16999620D02*
X18585589Y-16990096D01*
X18585589Y-16990096D02*
X18604637Y-16980572D01*
X18604637Y-16980572D02*
X18633208Y-16980572D01*
X18633208Y-16980572D02*
X18652256Y-16990096D01*
X18652256Y-16990096D02*
X18661779Y-16999620D01*
X18661779Y-16999620D02*
X18671303Y-17018667D01*
X18671303Y-17018667D02*
X18671303Y-17075810D01*
X18671303Y-17075810D02*
X18661779Y-17094858D01*
X18661779Y-17094858D02*
X18652256Y-17104382D01*
X18652256Y-17104382D02*
X18633208Y-17113905D01*
X18633208Y-17113905D02*
X18604637Y-17113905D01*
X18785589Y-17113905D02*
X18766541Y-17104382D01*
X18766541Y-17104382D02*
X18757018Y-17085334D01*
X18757018Y-17085334D02*
X18757018Y-16913905D01*
X18937970Y-17104382D02*
X18918922Y-17113905D01*
X18918922Y-17113905D02*
X18880827Y-17113905D01*
X18880827Y-17113905D02*
X18861779Y-17104382D01*
X18861779Y-17104382D02*
X18852256Y-17085334D01*
X18852256Y-17085334D02*
X18852256Y-17009143D01*
X18852256Y-17009143D02*
X18861779Y-16990096D01*
X18861779Y-16990096D02*
X18880827Y-16980572D01*
X18880827Y-16980572D02*
X18918922Y-16980572D01*
X18918922Y-16980572D02*
X18937970Y-16990096D01*
X18937970Y-16990096D02*
X18947494Y-17009143D01*
X18947494Y-17009143D02*
X18947494Y-17028191D01*
X18947494Y-17028191D02*
X18852256Y-17047239D01*
X19023684Y-17104382D02*
X19042732Y-17113905D01*
X19042732Y-17113905D02*
X19080827Y-17113905D01*
X19080827Y-17113905D02*
X19099875Y-17104382D01*
X19099875Y-17104382D02*
X19109399Y-17085334D01*
X19109399Y-17085334D02*
X19109399Y-17075810D01*
X19109399Y-17075810D02*
X19099875Y-17056762D01*
X19099875Y-17056762D02*
X19080827Y-17047239D01*
X19080827Y-17047239D02*
X19052256Y-17047239D01*
X19052256Y-17047239D02*
X19033208Y-17037715D01*
X19033208Y-17037715D02*
X19023684Y-17018667D01*
X19023684Y-17018667D02*
X19023684Y-17009143D01*
X19023684Y-17009143D02*
X19033208Y-16990096D01*
X19033208Y-16990096D02*
X19052256Y-16980572D01*
X19052256Y-16980572D02*
X19080827Y-16980572D01*
X19080827Y-16980572D02*
X19099875Y-16990096D01*
X19176065Y-17190096D02*
X19185589Y-17180572D01*
X19185589Y-17180572D02*
X19204637Y-17152001D01*
X19204637Y-17152001D02*
X19214160Y-17132953D01*
X19214160Y-17132953D02*
X19223684Y-17104382D01*
X19223684Y-17104382D02*
X19233208Y-17056762D01*
X19233208Y-17056762D02*
X19233208Y-17018667D01*
X19233208Y-17018667D02*
X19223684Y-16971048D01*
X19223684Y-16971048D02*
X19214160Y-16942477D01*
X19214160Y-16942477D02*
X19204637Y-16923429D01*
X19204637Y-16923429D02*
X19185589Y-16894858D01*
X19185589Y-16894858D02*
X19176065Y-16885334D01*
D13*
X14375375Y-17348294D02*
X14375375Y-17224549D01*
X14251630Y-17224549D01*
X14251630Y-17348294D01*
X14375375Y-17348294D01*
D11*
X14766541Y-17377905D02*
X14652255Y-17377905D01*
X14709398Y-17377905D02*
X14709398Y-17177905D01*
X14709398Y-17177905D02*
X14690350Y-17206477D01*
X14690350Y-17206477D02*
X14671303Y-17225524D01*
X14671303Y-17225524D02*
X14652255Y-17235048D01*
X14852255Y-17358858D02*
X14861779Y-17368382D01*
X14861779Y-17368382D02*
X14852255Y-17377905D01*
X14852255Y-17377905D02*
X14842731Y-17368382D01*
X14842731Y-17368382D02*
X14852255Y-17358858D01*
X14852255Y-17358858D02*
X14852255Y-17377905D01*
X14928446Y-17177905D02*
X15061779Y-17177905D01*
X15061779Y-17177905D02*
X14976065Y-17377905D01*
X15233208Y-17177905D02*
X15137969Y-17177905D01*
X15137969Y-17177905D02*
X15128446Y-17273143D01*
X15128446Y-17273143D02*
X15137969Y-17263620D01*
X15137969Y-17263620D02*
X15157017Y-17254096D01*
X15157017Y-17254096D02*
X15204636Y-17254096D01*
X15204636Y-17254096D02*
X15223684Y-17263620D01*
X15223684Y-17263620D02*
X15233208Y-17273143D01*
X15233208Y-17273143D02*
X15242731Y-17292191D01*
X15242731Y-17292191D02*
X15242731Y-17339810D01*
X15242731Y-17339810D02*
X15233208Y-17358858D01*
X15233208Y-17358858D02*
X15223684Y-17368382D01*
X15223684Y-17368382D02*
X15204636Y-17377905D01*
X15204636Y-17377905D02*
X15157017Y-17377905D01*
X15157017Y-17377905D02*
X15137969Y-17368382D01*
X15137969Y-17368382D02*
X15128446Y-17358858D01*
X15366541Y-17177905D02*
X15385589Y-17177905D01*
X15385589Y-17177905D02*
X15404636Y-17187429D01*
X15404636Y-17187429D02*
X15414160Y-17196953D01*
X15414160Y-17196953D02*
X15423684Y-17216001D01*
X15423684Y-17216001D02*
X15433208Y-17254096D01*
X15433208Y-17254096D02*
X15433208Y-17301715D01*
X15433208Y-17301715D02*
X15423684Y-17339810D01*
X15423684Y-17339810D02*
X15414160Y-17358858D01*
X15414160Y-17358858D02*
X15404636Y-17368382D01*
X15404636Y-17368382D02*
X15385589Y-17377905D01*
X15385589Y-17377905D02*
X15366541Y-17377905D01*
X15366541Y-17377905D02*
X15347493Y-17368382D01*
X15347493Y-17368382D02*
X15337969Y-17358858D01*
X15337969Y-17358858D02*
X15328446Y-17339810D01*
X15328446Y-17339810D02*
X15318922Y-17301715D01*
X15318922Y-17301715D02*
X15318922Y-17254096D01*
X15318922Y-17254096D02*
X15328446Y-17216001D01*
X15328446Y-17216001D02*
X15337969Y-17196953D01*
X15337969Y-17196953D02*
X15347493Y-17187429D01*
X15347493Y-17187429D02*
X15366541Y-17177905D01*
X15518922Y-17377905D02*
X15518922Y-17244572D01*
X15518922Y-17263620D02*
X15528446Y-17254096D01*
X15528446Y-17254096D02*
X15547493Y-17244572D01*
X15547493Y-17244572D02*
X15576065Y-17244572D01*
X15576065Y-17244572D02*
X15595112Y-17254096D01*
X15595112Y-17254096D02*
X15604636Y-17273143D01*
X15604636Y-17273143D02*
X15604636Y-17377905D01*
X15604636Y-17273143D02*
X15614160Y-17254096D01*
X15614160Y-17254096D02*
X15633208Y-17244572D01*
X15633208Y-17244572D02*
X15661779Y-17244572D01*
X15661779Y-17244572D02*
X15680827Y-17254096D01*
X15680827Y-17254096D02*
X15690350Y-17273143D01*
X15690350Y-17273143D02*
X15690350Y-17377905D01*
X15785589Y-17377905D02*
X15785589Y-17244572D01*
X15785589Y-17263620D02*
X15795112Y-17254096D01*
X15795112Y-17254096D02*
X15814160Y-17244572D01*
X15814160Y-17244572D02*
X15842731Y-17244572D01*
X15842731Y-17244572D02*
X15861779Y-17254096D01*
X15861779Y-17254096D02*
X15871303Y-17273143D01*
X15871303Y-17273143D02*
X15871303Y-17377905D01*
X15871303Y-17273143D02*
X15880827Y-17254096D01*
X15880827Y-17254096D02*
X15899874Y-17244572D01*
X15899874Y-17244572D02*
X15928446Y-17244572D01*
X15928446Y-17244572D02*
X15947493Y-17254096D01*
X15947493Y-17254096D02*
X15957017Y-17273143D01*
X15957017Y-17273143D02*
X15957017Y-17377905D01*
X16347493Y-17168382D02*
X16176065Y-17425524D01*
X16604636Y-17177905D02*
X16623684Y-17177905D01*
X16623684Y-17177905D02*
X16642732Y-17187429D01*
X16642732Y-17187429D02*
X16652255Y-17196953D01*
X16652255Y-17196953D02*
X16661779Y-17216001D01*
X16661779Y-17216001D02*
X16671303Y-17254096D01*
X16671303Y-17254096D02*
X16671303Y-17301715D01*
X16671303Y-17301715D02*
X16661779Y-17339810D01*
X16661779Y-17339810D02*
X16652255Y-17358858D01*
X16652255Y-17358858D02*
X16642732Y-17368382D01*
X16642732Y-17368382D02*
X16623684Y-17377905D01*
X16623684Y-17377905D02*
X16604636Y-17377905D01*
X16604636Y-17377905D02*
X16585589Y-17368382D01*
X16585589Y-17368382D02*
X16576065Y-17358858D01*
X16576065Y-17358858D02*
X16566541Y-17339810D01*
X16566541Y-17339810D02*
X16557017Y-17301715D01*
X16557017Y-17301715D02*
X16557017Y-17254096D01*
X16557017Y-17254096D02*
X16566541Y-17216001D01*
X16566541Y-17216001D02*
X16576065Y-17196953D01*
X16576065Y-17196953D02*
X16585589Y-17187429D01*
X16585589Y-17187429D02*
X16604636Y-17177905D01*
X16757017Y-17358858D02*
X16766541Y-17368382D01*
X16766541Y-17368382D02*
X16757017Y-17377905D01*
X16757017Y-17377905D02*
X16747493Y-17368382D01*
X16747493Y-17368382D02*
X16757017Y-17358858D01*
X16757017Y-17358858D02*
X16757017Y-17377905D01*
X16890351Y-17177905D02*
X16909398Y-17177905D01*
X16909398Y-17177905D02*
X16928446Y-17187429D01*
X16928446Y-17187429D02*
X16937970Y-17196953D01*
X16937970Y-17196953D02*
X16947494Y-17216001D01*
X16947494Y-17216001D02*
X16957017Y-17254096D01*
X16957017Y-17254096D02*
X16957017Y-17301715D01*
X16957017Y-17301715D02*
X16947494Y-17339810D01*
X16947494Y-17339810D02*
X16937970Y-17358858D01*
X16937970Y-17358858D02*
X16928446Y-17368382D01*
X16928446Y-17368382D02*
X16909398Y-17377905D01*
X16909398Y-17377905D02*
X16890351Y-17377905D01*
X16890351Y-17377905D02*
X16871303Y-17368382D01*
X16871303Y-17368382D02*
X16861779Y-17358858D01*
X16861779Y-17358858D02*
X16852255Y-17339810D01*
X16852255Y-17339810D02*
X16842732Y-17301715D01*
X16842732Y-17301715D02*
X16842732Y-17254096D01*
X16842732Y-17254096D02*
X16852255Y-17216001D01*
X16852255Y-17216001D02*
X16861779Y-17196953D01*
X16861779Y-17196953D02*
X16871303Y-17187429D01*
X16871303Y-17187429D02*
X16890351Y-17177905D01*
X17128446Y-17177905D02*
X17090351Y-17177905D01*
X17090351Y-17177905D02*
X17071303Y-17187429D01*
X17071303Y-17187429D02*
X17061779Y-17196953D01*
X17061779Y-17196953D02*
X17042732Y-17225524D01*
X17042732Y-17225524D02*
X17033208Y-17263620D01*
X17033208Y-17263620D02*
X17033208Y-17339810D01*
X17033208Y-17339810D02*
X17042732Y-17358858D01*
X17042732Y-17358858D02*
X17052255Y-17368382D01*
X17052255Y-17368382D02*
X17071303Y-17377905D01*
X17071303Y-17377905D02*
X17109398Y-17377905D01*
X17109398Y-17377905D02*
X17128446Y-17368382D01*
X17128446Y-17368382D02*
X17137970Y-17358858D01*
X17137970Y-17358858D02*
X17147494Y-17339810D01*
X17147494Y-17339810D02*
X17147494Y-17292191D01*
X17147494Y-17292191D02*
X17137970Y-17273143D01*
X17137970Y-17273143D02*
X17128446Y-17263620D01*
X17128446Y-17263620D02*
X17109398Y-17254096D01*
X17109398Y-17254096D02*
X17071303Y-17254096D01*
X17071303Y-17254096D02*
X17052255Y-17263620D01*
X17052255Y-17263620D02*
X17042732Y-17273143D01*
X17042732Y-17273143D02*
X17033208Y-17292191D01*
X17261779Y-17263620D02*
X17242732Y-17254096D01*
X17242732Y-17254096D02*
X17233208Y-17244572D01*
X17233208Y-17244572D02*
X17223684Y-17225524D01*
X17223684Y-17225524D02*
X17223684Y-17216001D01*
X17223684Y-17216001D02*
X17233208Y-17196953D01*
X17233208Y-17196953D02*
X17242732Y-17187429D01*
X17242732Y-17187429D02*
X17261779Y-17177905D01*
X17261779Y-17177905D02*
X17299875Y-17177905D01*
X17299875Y-17177905D02*
X17318922Y-17187429D01*
X17318922Y-17187429D02*
X17328446Y-17196953D01*
X17328446Y-17196953D02*
X17337970Y-17216001D01*
X17337970Y-17216001D02*
X17337970Y-17225524D01*
X17337970Y-17225524D02*
X17328446Y-17244572D01*
X17328446Y-17244572D02*
X17318922Y-17254096D01*
X17318922Y-17254096D02*
X17299875Y-17263620D01*
X17299875Y-17263620D02*
X17261779Y-17263620D01*
X17261779Y-17263620D02*
X17242732Y-17273143D01*
X17242732Y-17273143D02*
X17233208Y-17282667D01*
X17233208Y-17282667D02*
X17223684Y-17301715D01*
X17223684Y-17301715D02*
X17223684Y-17339810D01*
X17223684Y-17339810D02*
X17233208Y-17358858D01*
X17233208Y-17358858D02*
X17242732Y-17368382D01*
X17242732Y-17368382D02*
X17261779Y-17377905D01*
X17261779Y-17377905D02*
X17299875Y-17377905D01*
X17299875Y-17377905D02*
X17318922Y-17368382D01*
X17318922Y-17368382D02*
X17328446Y-17358858D01*
X17328446Y-17358858D02*
X17337970Y-17339810D01*
X17337970Y-17339810D02*
X17337970Y-17301715D01*
X17337970Y-17301715D02*
X17328446Y-17282667D01*
X17328446Y-17282667D02*
X17318922Y-17273143D01*
X17318922Y-17273143D02*
X17299875Y-17263620D01*
X17433208Y-17377905D02*
X17471303Y-17377905D01*
X17471303Y-17377905D02*
X17490351Y-17368382D01*
X17490351Y-17368382D02*
X17499875Y-17358858D01*
X17499875Y-17358858D02*
X17518922Y-17330286D01*
X17518922Y-17330286D02*
X17528446Y-17292191D01*
X17528446Y-17292191D02*
X17528446Y-17216001D01*
X17528446Y-17216001D02*
X17518922Y-17196953D01*
X17518922Y-17196953D02*
X17509398Y-17187429D01*
X17509398Y-17187429D02*
X17490351Y-17177905D01*
X17490351Y-17177905D02*
X17452255Y-17177905D01*
X17452255Y-17177905D02*
X17433208Y-17187429D01*
X17433208Y-17187429D02*
X17423684Y-17196953D01*
X17423684Y-17196953D02*
X17414160Y-17216001D01*
X17414160Y-17216001D02*
X17414160Y-17263620D01*
X17414160Y-17263620D02*
X17423684Y-17282667D01*
X17423684Y-17282667D02*
X17433208Y-17292191D01*
X17433208Y-17292191D02*
X17452255Y-17301715D01*
X17452255Y-17301715D02*
X17490351Y-17301715D01*
X17490351Y-17301715D02*
X17509398Y-17292191D01*
X17509398Y-17292191D02*
X17518922Y-17282667D01*
X17518922Y-17282667D02*
X17528446Y-17263620D01*
X17604636Y-17177905D02*
X17604636Y-17216001D01*
X17680827Y-17177905D02*
X17680827Y-17216001D01*
X17976065Y-17454096D02*
X17966541Y-17444572D01*
X17966541Y-17444572D02*
X17947494Y-17416001D01*
X17947494Y-17416001D02*
X17937970Y-17396953D01*
X17937970Y-17396953D02*
X17928446Y-17368382D01*
X17928446Y-17368382D02*
X17918922Y-17320762D01*
X17918922Y-17320762D02*
X17918922Y-17282667D01*
X17918922Y-17282667D02*
X17928446Y-17235048D01*
X17928446Y-17235048D02*
X17937970Y-17206477D01*
X17937970Y-17206477D02*
X17947494Y-17187429D01*
X17947494Y-17187429D02*
X17966541Y-17158858D01*
X17966541Y-17158858D02*
X17976065Y-17149334D01*
X18042732Y-17196953D02*
X18052256Y-17187429D01*
X18052256Y-17187429D02*
X18071303Y-17177905D01*
X18071303Y-17177905D02*
X18118922Y-17177905D01*
X18118922Y-17177905D02*
X18137970Y-17187429D01*
X18137970Y-17187429D02*
X18147494Y-17196953D01*
X18147494Y-17196953D02*
X18157017Y-17216001D01*
X18157017Y-17216001D02*
X18157017Y-17235048D01*
X18157017Y-17235048D02*
X18147494Y-17263620D01*
X18147494Y-17263620D02*
X18033208Y-17377905D01*
X18033208Y-17377905D02*
X18157017Y-17377905D01*
X18395113Y-17377905D02*
X18395113Y-17177905D01*
X18480827Y-17377905D02*
X18480827Y-17273143D01*
X18480827Y-17273143D02*
X18471303Y-17254096D01*
X18471303Y-17254096D02*
X18452256Y-17244572D01*
X18452256Y-17244572D02*
X18423684Y-17244572D01*
X18423684Y-17244572D02*
X18404637Y-17254096D01*
X18404637Y-17254096D02*
X18395113Y-17263620D01*
X18604637Y-17377905D02*
X18585589Y-17368382D01*
X18585589Y-17368382D02*
X18576065Y-17358858D01*
X18576065Y-17358858D02*
X18566541Y-17339810D01*
X18566541Y-17339810D02*
X18566541Y-17282667D01*
X18566541Y-17282667D02*
X18576065Y-17263620D01*
X18576065Y-17263620D02*
X18585589Y-17254096D01*
X18585589Y-17254096D02*
X18604637Y-17244572D01*
X18604637Y-17244572D02*
X18633208Y-17244572D01*
X18633208Y-17244572D02*
X18652256Y-17254096D01*
X18652256Y-17254096D02*
X18661779Y-17263620D01*
X18661779Y-17263620D02*
X18671303Y-17282667D01*
X18671303Y-17282667D02*
X18671303Y-17339810D01*
X18671303Y-17339810D02*
X18661779Y-17358858D01*
X18661779Y-17358858D02*
X18652256Y-17368382D01*
X18652256Y-17368382D02*
X18633208Y-17377905D01*
X18633208Y-17377905D02*
X18604637Y-17377905D01*
X18785589Y-17377905D02*
X18766541Y-17368382D01*
X18766541Y-17368382D02*
X18757018Y-17349334D01*
X18757018Y-17349334D02*
X18757018Y-17177905D01*
X18937970Y-17368382D02*
X18918922Y-17377905D01*
X18918922Y-17377905D02*
X18880827Y-17377905D01*
X18880827Y-17377905D02*
X18861779Y-17368382D01*
X18861779Y-17368382D02*
X18852256Y-17349334D01*
X18852256Y-17349334D02*
X18852256Y-17273143D01*
X18852256Y-17273143D02*
X18861779Y-17254096D01*
X18861779Y-17254096D02*
X18880827Y-17244572D01*
X18880827Y-17244572D02*
X18918922Y-17244572D01*
X18918922Y-17244572D02*
X18937970Y-17254096D01*
X18937970Y-17254096D02*
X18947494Y-17273143D01*
X18947494Y-17273143D02*
X18947494Y-17292191D01*
X18947494Y-17292191D02*
X18852256Y-17311239D01*
X19023684Y-17368382D02*
X19042732Y-17377905D01*
X19042732Y-17377905D02*
X19080827Y-17377905D01*
X19080827Y-17377905D02*
X19099875Y-17368382D01*
X19099875Y-17368382D02*
X19109399Y-17349334D01*
X19109399Y-17349334D02*
X19109399Y-17339810D01*
X19109399Y-17339810D02*
X19099875Y-17320762D01*
X19099875Y-17320762D02*
X19080827Y-17311239D01*
X19080827Y-17311239D02*
X19052256Y-17311239D01*
X19052256Y-17311239D02*
X19033208Y-17301715D01*
X19033208Y-17301715D02*
X19023684Y-17282667D01*
X19023684Y-17282667D02*
X19023684Y-17273143D01*
X19023684Y-17273143D02*
X19033208Y-17254096D01*
X19033208Y-17254096D02*
X19052256Y-17244572D01*
X19052256Y-17244572D02*
X19080827Y-17244572D01*
X19080827Y-17244572D02*
X19099875Y-17254096D01*
X19176065Y-17454096D02*
X19185589Y-17444572D01*
X19185589Y-17444572D02*
X19204637Y-17416001D01*
X19204637Y-17416001D02*
X19214160Y-17396953D01*
X19214160Y-17396953D02*
X19223684Y-17368382D01*
X19223684Y-17368382D02*
X19233208Y-17320762D01*
X19233208Y-17320762D02*
X19233208Y-17282667D01*
X19233208Y-17282667D02*
X19223684Y-17235048D01*
X19223684Y-17235048D02*
X19214160Y-17206477D01*
X19214160Y-17206477D02*
X19204637Y-17187429D01*
X19204637Y-17187429D02*
X19185589Y-17158858D01*
X19185589Y-17158858D02*
X19176065Y-17149334D01*
M02*
